<?xml version="1.0" standalone="no"?>
<!DOCTYPE svg PUBLIC "-//W3C//DTD SVG 20010904//EN"
 "http://www.w3.org/TR/2001/REC-SVG-20010904/DTD/svg10.dtd">
<svg version="1.0" xmlns="http://www.w3.org/2000/svg"
 width="1694.000000pt" height="1694.000000pt" viewBox="0 0 1694.000000 1694.000000"
 preserveAspectRatio="xMidYMid meet">
<metadata>
Created by potrace 1.11, written by Peter Selinger 2001-2013
</metadata>
<g transform="translate(0.000000,1694.000000) scale(0.100000,-0.100000)"
fill="#000000" stroke="none">
<path d="M0 13840 l0 -1230 5025 0 5025 0 0 -1215 0 -1215 -1800 0 -1800 0 0
-1230 0 -1230 608 -1 c556 -1 600 -2 529 -15 -549 -100 -1010 -530 -1148
-1070 -162 -639 109 -1298 669 -1631 176 -104 361 -167 582 -196 62 -9 88 -15
63 -16 -146 -4 -397 -73 -553 -151 -206 -104 -432 -300 -553 -482 -115 -172
-198 -375 -233 -568 -24 -128 -24 -390 -1 -517 52 -282 186 -546 381 -750 207
-217 450 -356 746 -425 122 -28 410 -36 546 -15 268 43 532 167 736 345 242
211 421 526 472 829 8 49 19 113 24 143 9 53 9 54 11 14 2 -76 33 -229 68
-338 158 -492 572 -865 1088 -981 109 -25 407 -31 530 -12 661 105 1153 621
1229 1287 l12 105 8 -80 c63 -676 582 -1220 1254 -1316 121 -17 413 -6 522 19
281 66 515 196 715 396 221 222 356 480 412 791 22 121 22 369 0 490 -56 310
-193 572 -411 790 -247 246 -556 391 -901 423 l-80 7 110 13 c179 20 333 66
497 148 455 228 751 664 798 1174 31 336 -53 666 -246 958 -78 118 -271 310
-392 390 -164 109 -344 184 -533 222 -94 18 -88 18 1419 19 l1512 1 0 1230 0
1230 -875 0 -875 0 0 1220 0 1220 -1420 0 -1420 0 0 1225 0 1225 -6175 0
-6175 0 0 -1230z m8365 605 c161 -41 309 -161 378 -305 87 -182 87 -392 1
-579 -26 -56 -52 -91 -111 -150 -125 -124 -244 -171 -433 -171 -189 0 -309 47
-431 169 -57 57 -85 95 -112 151 -87 184 -87 396 0 580 68 142 216 263 373
304 74 20 259 20 335 1z m-1610 -10 c138 -36 227 -107 261 -208 23 -70 22
-179 -2 -247 -24 -67 -105 -158 -171 -191 -26 -13 -50 -25 -52 -26 -2 -1 10
-17 26 -36 30 -35 323 -462 323 -472 0 -9 -218 -5 -244 5 -17 6 -70 77 -169
228 -141 213 -145 219 -183 225 -21 4 -56 7 -76 7 l-38 0 0 -235 0 -236 -112
3 -113 3 -3 598 -2 597 248 0 c190 0 262 -4 307 -15z m2863 -497 l2 -508 235
0 235 0 0 -90 0 -90 -350 0 -350 0 0 600 0 601 113 -3 112 -3 3 -507z m1260 0
l2 -508 235 0 235 0 0 -90 0 -90 -350 0 -350 0 0 600 0 601 113 -3 112 -3 3
-507z m-8968 412 l0 -90 -180 0 -180 0 0 -505 0 -505 -115 0 -115 0 0 505 0
505 -185 0 -185 0 0 90 0 90 480 0 480 0 0 -90z m780 -165 l0 -255 275 0 275
0 0 255 0 255 115 0 115 0 0 -595 0 -595 -115 0 -115 0 0 260 0 260 -275 0
-275 0 0 -260 0 -260 -115 0 -115 0 0 595 0 595 115 0 115 0 0 -255z m2190
165 l0 -90 -265 0 -265 0 0 -160 0 -160 210 0 210 0 0 -85 0 -85 -210 0 -210
0 0 -170 0 -170 265 0 265 0 0 -90 0 -90 -380 0 -380 0 0 595 0 595 380 0 380
0 0 -90z m9215 -2255 c72 -18 187 -74 234 -114 l34 -28 -44 -64 c-30 -43 -52
-65 -69 -67 -14 -2 -58 14 -108 40 -83 42 -86 43 -201 46 -141 5 -202 -14
-280 -84 -130 -117 -167 -358 -82 -539 38 -82 78 -125 153 -166 62 -34 64 -34
193 -34 102 0 140 4 178 18 l47 19 0 104 0 104 -90 0 c-88 0 -91 1 -100 26 -6
14 -10 52 -10 85 l0 59 205 0 205 0 0 -243 0 -242 -53 -32 c-103 -62 -196 -86
-352 -91 -156 -5 -223 6 -330 57 -131 61 -240 186 -292 331 -35 100 -43 263
-19 374 49 218 204 380 418 436 93 24 278 27 363 5z m-3055 -600 l0 -595 -120
0 -120 0 0 595 0 595 120 0 120 0 0 -595z m853 572 c12 -12 157 -195 322 -405
l300 -383 3 405 2 406 100 0 100 0 0 -595 0 -595 -76 0 c-41 0 -83 4 -92 9 -9
5 -156 187 -327 404 l-310 396 -3 -405 -2 -404 -100 0 -100 0 0 595 0 595 80
0 c71 0 84 -3 103 -23z m-3882 -2413 c64 -19 121 -47 166 -81 l32 -25 -34 -68
c-20 -40 -43 -71 -54 -75 -13 -4 -49 8 -102 34 -74 37 -90 41 -156 41 -91 0
-143 -23 -167 -74 -47 -99 1 -164 161 -216 294 -96 385 -191 370 -386 -11
-142 -94 -262 -224 -322 -76 -35 -234 -43 -334 -18 -101 26 -249 110 -249 141
0 6 18 38 40 73 35 54 43 62 70 62 19 0 50 -13 76 -31 80 -55 122 -69 209 -69
128 0 184 42 193 143 8 99 -36 139 -213 192 -183 56 -262 111 -308 214 -27 61
-29 176 -4 249 33 94 131 183 242 218 58 18 220 17 286 -2z m1504 1 c69 -18
161 -65 211 -109 l36 -31 -46 -63 c-26 -35 -54 -66 -62 -69 -9 -3 -57 15 -108
42 l-93 47 -109 -3 c-94 -4 -117 -8 -165 -32 -149 -73 -229 -255 -200 -454 21
-144 91 -252 197 -304 44 -21 62 -24 169 -24 129 0 167 11 238 71 16 13 36 24
45 24 19 0 122 -98 122 -116 0 -20 -97 -99 -155 -128 -84 -41 -159 -56 -275
-56 -125 0 -196 16 -292 67 -83 43 -175 138 -219 225 -94 186 -93 450 3 631
69 129 215 241 368 281 75 20 260 20 335 1z m1520 0 c161 -41 309 -161 378
-305 87 -182 87 -392 1 -579 -26 -56 -52 -91 -111 -150 -125 -124 -244 -171
-433 -171 -189 0 -309 47 -431 169 -57 57 -85 95 -112 151 -40 85 -67 200 -67
290 0 282 181 526 440 594 74 20 259 20 335 1z m4326 -1 c64 -19 121 -47 166
-81 l32 -25 -34 -68 c-20 -40 -43 -71 -54 -75 -13 -4 -49 8 -102 34 -74 37
-90 41 -156 41 -91 0 -143 -23 -167 -74 -47 -99 1 -164 161 -216 294 -96 385
-191 370 -386 -11 -142 -94 -262 -224 -322 -76 -35 -234 -43 -334 -18 -101 26
-249 110 -249 141 0 6 18 38 40 73 35 54 43 62 70 62 19 0 50 -13 76 -31 80
-55 122 -69 209 -69 128 0 184 42 193 143 8 99 -36 139 -213 192 -183 56 -262
111 -308 214 -27 61 -29 176 -4 249 33 94 131 183 242 218 58 18 220 17 286
-2z m-2728 -20 c82 -21 131 -47 187 -100 75 -70 95 -125 95 -264 0 -103 -3
-121 -26 -170 -31 -66 -96 -133 -161 -166 -82 -42 -151 -54 -300 -54 l-138 0
0 -210 0 -210 -115 0 -115 0 0 595 0 595 256 0 c201 0 269 -3 317 -16z m1627
-74 l0 -90 -265 0 -265 0 0 -160 0 -160 210 0 210 0 0 -85 0 -85 -210 0 -210
0 0 -170 0 -170 265 0 265 0 0 -90 0 -90 -380 0 -380 0 0 595 0 595 380 0 380
0 0 -90z m-3735 -1856 c-292 -52 -587 -212 -796 -431 -225 -237 -362 -534
-397 -863 l-8 -75 -8 60 c-27 214 -76 380 -161 543 -212 406 -590 685 -1040
767 -58 11 140 13 1210 13 1140 0 1271 -1 1200 -14z m2940 1 c-460 -83 -847
-374 -1054 -792 -82 -164 -130 -334 -148 -518 l-7 -80 -8 80 c-33 347 -177
655 -423 900 -216 216 -480 356 -775 410 -65 11 94 13 1205 13 1068 0 1268 -2
1210 -13z m-2470 -710 c69 -18 161 -65 211 -109 l36 -31 -46 -63 c-26 -35 -54
-66 -62 -69 -9 -3 -57 15 -108 42 l-93 47 -109 -3 c-94 -4 -117 -8 -165 -32
-149 -73 -229 -255 -200 -454 21 -144 91 -252 197 -304 44 -21 62 -24 169 -24
129 0 167 11 238 71 16 13 36 24 45 24 19 0 122 -98 122 -116 0 -20 -97 -99
-155 -128 -84 -41 -159 -56 -275 -56 -125 0 -196 16 -292 67 -83 43 -175 138
-219 225 -94 186 -93 450 3 631 69 129 215 241 368 281 75 20 260 20 335 1z
m-2984 -61 c64 -19 121 -47 166 -81 l32 -25 -34 -68 c-20 -40 -43 -71 -54 -75
-13 -4 -49 8 -102 34 -74 37 -90 41 -156 41 -91 0 -143 -23 -167 -74 -47 -99
1 -164 161 -216 294 -96 385 -191 370 -386 -11 -142 -94 -262 -224 -322 -76
-35 -234 -43 -334 -18 -101 26 -249 110 -249 141 0 6 18 38 40 73 35 54 43 62
70 62 19 0 50 -13 76 -31 80 -55 122 -69 209 -69 128 0 184 42 193 143 8 99
-36 139 -213 192 -183 56 -262 111 -308 214 -27 61 -29 176 -4 249 33 94 131
183 242 218 58 18 220 17 286 -2z m5469 -259 l0 -255 275 0 275 0 0 255 0 255
115 0 115 0 0 -595 0 -595 -115 0 -115 0 0 260 0 260 -275 0 -275 0 0 -260 0
-260 -115 0 -115 0 0 595 0 595 115 0 115 0 0 -255z m-1195 -688 c50 -282 187
-541 404 -758 251 -251 544 -389 901 -425 l75 -8 -106 -12 c-194 -22 -341 -67
-516 -159 -440 -229 -732 -664 -779 -1160 l-8 -80 -12 105 c-54 471 -308 862
-717 1106 -166 98 -397 173 -597 192 l-85 8 75 7 c318 33 602 155 837 359 274
239 458 598 490 958 l7 85 8 -65 c4 -36 15 -104 23 -153z m-2910 -105 c66
-250 198 -476 386 -662 238 -236 551 -381 899 -417 l75 -7 -80 -8 c-590 -56
-1086 -455 -1263 -1018 -31 -98 -61 -252 -63 -324 -2 -40 -2 -39 -11 14 -5 30
-16 94 -24 142 -69 414 -366 819 -744 1017 -184 96 -337 144 -529 165 l-106
12 108 12 c342 40 627 179 872 426 243 245 375 524 421 891 l7 60 14 -105 c7
-58 25 -147 38 -198z m-1310 -1887 c161 -41 309 -161 378 -305 87 -182 87
-392 1 -579 -26 -56 -52 -91 -111 -150 -125 -124 -244 -171 -433 -171 -189 0
-309 47 -431 169 -57 57 -85 95 -112 151 -87 184 -87 396 0 580 68 142 216
263 373 304 74 20 259 20 335 1z m2960 0 c161 -41 309 -161 378 -305 87 -182
87 -392 1 -579 -26 -56 -52 -91 -111 -150 -125 -124 -244 -171 -433 -171 -189
0 -309 47 -431 169 -57 57 -85 95 -112 151 -40 85 -67 200 -67 290 0 282 181
526 440 594 74 20 259 20 335 1z m2703 -507 l2 -508 235 0 235 0 0 -90 0 -90
-350 0 -350 0 0 600 0 601 113 -3 112 -3 3 -507z"/>
<path d="M8080 14251 c-96 -31 -184 -114 -222 -209 -19 -49 -22 -75 -22 -192
0 -117 3 -143 22 -192 29 -72 100 -151 166 -186 48 -25 60 -27 176 -27 116 0
129 2 175 27 95 50 152 126 181 238 23 89 15 253 -15 332 -28 71 -98 151 -165
186 -45 23 -65 26 -161 29 -60 1 -121 -1 -135 -6z"/>
<path d="M6430 14080 l0 -202 113 4 c134 4 192 26 234 89 37 56 43 143 14 203
-34 69 -92 93 -243 102 l-118 7 0 -203z"/>
<path d="M10750 9461 c-96 -31 -184 -114 -222 -209 -19 -49 -22 -75 -22 -192
0 -117 3 -143 22 -192 29 -72 100 -151 166 -186 48 -25 60 -27 176 -27 116 0
129 2 175 27 95 50 152 126 181 238 23 89 15 253 -15 332 -28 71 -98 151 -165
186 -45 23 -65 26 -161 29 -60 1 -121 -1 -135 -6z"/>
<path d="M12290 9265 l0 -218 127 6 c150 8 199 26 241 90 37 55 44 165 14 223
-42 82 -89 102 -257 111 l-125 6 0 -218z"/>
<path d="M7780 3801 c-96 -31 -184 -114 -222 -209 -19 -49 -22 -75 -22 -192 0
-117 3 -143 22 -192 29 -72 100 -151 166 -186 48 -25 60 -27 176 -27 116 0
129 2 175 27 95 50 152 126 181 238 23 89 15 253 -15 332 -28 71 -98 151 -165
186 -45 23 -65 26 -161 29 -60 1 -121 -1 -135 -6z"/>
<path d="M10740 3801 c-96 -31 -184 -114 -222 -209 -19 -49 -22 -75 -22 -192
0 -117 3 -143 22 -192 29 -72 100 -151 166 -186 48 -25 60 -27 176 -27 116 0
129 2 175 27 95 50 152 126 181 238 23 89 15 253 -15 332 -28 71 -98 151 -165
186 -45 23 -65 26 -161 29 -60 1 -121 -1 -135 -6z"/>
</g>
</svg>
