<svg xmlns="http://www.w3.org/2000/svg" width="647" height="545" viewBox="0.28 -3.304 647 545"><path d="M271.33 20.826C310 4.466 352.559-2.224 394.41.646c40.97 3.08 81.25 15.48 116.641 36.41 31.72 18.69 59.579 43.91 81.31 73.64 25.37 34.62 42.301 75.41 48.7 117.87 4.91 33.66 3.91 68.34-4.141 101.438 5.24 10.25 7.86 22.052 6.091 33.512-2.021 17.25-13.08 33.028-28.479 41.02-3.511 2.41-8.711 2.45-11.101 6.28-28.051 44.938-69.511 81.479-117.86 103.21-10.09 4.71-20.6 8.44-31.149 11.96l-2.189.48c-50.819 15.6-106.29 15.05-157.04-.62-37.989-12.03-73.38-32.33-102.6-59.46-27.979-25.79-50.439-57.54-65.33-92.57-6.64-15.37-11.45-31.45-15.37-47.69-7-4.278-15.439-5.5-23.5-4.568-16.649 1.72-32.399 7.738-48.51 11.858 11.48-8.46 24-15.5 36.98-21.37-20.62.271-40.84 5.12-60.84 9.762-5.36 1.33-10.721 2.699-16.021 4.229 20.59-22.029 47.68-36.938 75.61-47.6-9.551-1.22-19.23-2.352-28.351-5.62-8.55-2.86-16.52-7.29-23.68-12.75 6.9-.21 13.83.229 20.71-.57 21.24.15 43.54-1 62.48-11.67 3.479-46.05 19.319-91.1 45.319-129.25 29.2-43.171 71.12-77.671 119.24-97.751z"/><path fill="#F9FCFA" d="M345.299 10.256c34.07-3.5 68.9-1.19 101.82 8.56 69.63 19.84 129.75 70.28 161.51 135.32 15.7 31.52 24.841 66.329 26.45 101.51-.229 7.358 1.101 14.7.13 22.04-.22 14.488-2.17 28.88-4.84 43.108a118.064 118.064 0 0 0-5.939-5.238c2.93-18.78 5.061-37.852 3.84-56.87-.261-4.972-.42-9.94-.91-14.892-3.979-39.479-17.31-78.01-38.89-111.33-21.711-33.829-51.561-62.399-86.301-82.609-36-20.96-77.239-33.09-118.92-34.08-5.01-.74-10.09-.2-15.13-.37l-.67.49c-43.75.62-87.051 14.05-124.351 36.74-36.56 22.38-67.37 54.1-88.55 91.38-16.34 28.47-26.899 60.199-31.109 92.739-1.971 2.4-4.891 3.74-7.49 5.33 4.75-48.488 24.04-95.319 54.14-133.58 31.42-40.09 74.79-70.75 123.17-86.729 16.901-5.589 34.37-9.429 52.04-11.519z"/><path fill="#FCFDFC" d="M356.78 31.216c5.17-2.61 12.369-3 16.67 1.43 2.939 2.65 3.409 6.82 4.39 10.44-2.81.24-5.63.4-8.439.37-.96-1.78-1-4.61-3.22-5.35-1.79-.46-3.63.05-5.41.25-.141 1.5-.22 3-.26 4.51 5.079 1.87 10.779 2.93 14.76 6.9 4.45 4.2 4.101 11.38 1.439 16.46-3.97 7.46-15.101 8.489-21.3 3.35-3.311-3.13-3.939-7.81-4.62-12.07 3.021 0 6.04 0 9.061-.03.66 1.83.92 3.89 2.17 5.47 1.229 1.85 3.609 1.13 5.479 1.23 1.319-2.32 2.061-5.061 1.189-7.67-2.909-2.74-7.239-2.7-10.67-4.49-7.92-3.46-8.76-16.47-1.239-20.8z"/><path fill="#FBFDFA" d="M396.439 31.646c4.95-1 11.13-.85 14.78 3.21 3.01 3.06 3.39 7.62 3.35 11.68-2.609-.07-5.21-.29-7.789-.61-.851-1.86-1.36-3.84-2.131-5.73-1.71-.25-3.75-1.65-5.311-.37-2.021.93-2.279 4.08-.119 5 4.239 2.25 9.061 3.99 12.021 8 3.76 4.66 2.649 11.64-.53 16.3-5.109 7.23-17.55 6.851-22.42-.399-2.26-3.351-2.101-7.59-2.239-11.44 2.97.36 5.939.77 8.93.93.53 2.29.301 5.01 2.08 6.79 1.021.601 2.2.851 3.33 1.181.58-.32 1.72-.95 2.29-1.271 1.229-2.18 1.489-4.66 1.04-7.1-4.011-2.54-8.931-3.78-12.271-7.26-4.7-5.861-2.65-16.591 4.989-18.911zm-80.189 6.21c3.681-2.91 8.75-3.62 13.229-2.46 5.24 1.86 8.75 6.98 9.479 12.39-2.939.75-5.891 1.48-8.88 1.92-.46-1.45-.91-2.9-1.359-4.34-1.58-.36-3.15-.71-4.729-1.06-1.57 1.09-3.58 1.97-4 4.05.92 5.55 2.1 11.06 3.399 16.52.71 3.7 5.92 4.891 8.399 2.21 1.681-1.46 1.05-3.939 1.391-5.88 2.71-.85 5.46-1.7 8.29-2.08 1.909 2.62 1.75 6.22.979 9.23-1.96 5.27-7.431 8.14-12.58 9.46-6.801.95-14.479-3.67-15.54-10.74-1.2-6.18-2.471-12.35-3.521-18.55-.857-4.36 2.162-8.21 5.443-10.67zm139.99 21.05c2.22-4.65 6.449-9.25 12.029-9.01 7.74.05 16.5 6.42 15.2 14.92-1.12 5.85-4.511 10.91-6.62 16.42-2.399 5-4.149 10.34-7.03 15.1-2.729-.71-5.199-2.109-7.76-3.239.641-3.82 2.75-7.12 4.189-10.65 2.359-5.59 5.05-11.04 7.28-16.68.92-1.88-.271-3.69-.87-5.44-2.38-.35-5.681-1.16-6.96 1.58-4.051 8.89-7.881 17.88-11.939 26.76-3.311-.33-6.271-1.95-9.091-3.58 3.791-8.752 7.761-17.431 11.572-26.181z"/><path fill="#FAFDFA" d="M243.66 68.526c2.6-1.561 5.17-3.2 7.899-4.53 6.11 9.66 11.38 19.84 17.4 29.561 4.52-2.551 8.91-5.311 13.52-7.66 1.54 2.54 3 5.12 4.351 7.76-7.261 3.91-14.28 8.25-21.49 12.271-7.25-12.463-14.31-25.022-21.68-37.402z"/><path fill="#FBFDFA" d="M495.25 71.616c6.49-4.32 16.431-1.81 20.069 5.08 1.091 1.82 1.61 3.9 2.311 5.9-.2 2.81-.58 5.77-2.34 8.09-3.79 5.24-7.311 10.68-11.28 15.779-2.909 3.641-8.05 4.41-12.38 3.421-8.08-1.53-14.05-10.851-10.771-18.681 2.08-3.76 4.859-7.09 7.189-10.7 2.282-3.049 4.091-6.579 7.202-8.889z"/><path fill="#010101" d="M497.439 81.715c1.08-1.77 2.96-2.689 4.801-3.5 1.521.671 3.04 1.36 4.54 2.101.81 2.26 1.84 4.939.239 7.13-2.37 3.64-4.88 7.19-7.439 10.69-2.37 2.89-6.681 3.04-9.521.77-.399-1.12-.8-2.22-1.2-3.33 1.891-5.16 5.58-9.34 8.58-13.861z"/><path fill="#FBFDFB" d="M219.399 86.835c4.96-5.17 14.41-6.29 19.591-.84 6.869 7.45 13.949 14.73 20.64 22.37-2.18 2.01-4.29 4.1-6.47 6.1-7.15-6.8-13.29-14.579-20.4-21.409-1.49-1.591-3.8-.92-5.71-.98-1.23 1.89-2.59 4.561-.83 6.59 6.33 7.17 12.97 14.08 19.58 21-.03.61-.05 1.23-.07 1.851-2.25 1.8-4.279 3.85-6.41 5.79-5.96-6.601-12.22-12.931-18.109-19.591-1.65-1.68-3.45-4.029-6.13-3.27-2.75.77-4.44 4.5-2.12 6.67 6.57 7.36 13.39 14.5 20.18 21.67-2.01 2.44-4.43 4.48-6.84 6.521-6.81-7.07-13.39-14.37-20.16-21.471-3.939-3.76-4.63-9.92-2.479-14.79 1.739-5.1 6.989-8.029 12.189-8.27.748-2.811 1.458-5.78 3.548-7.941z"/><path fill="#FFF" d="M299.049 101.326c35.381-16.24 76-20.57 114.051-12.45 36.75 7.681 70.84 27.141 96.439 54.551 13.99 15.069 25.511 32.399 33.939 51.159 5.7 13.38 10.34 27.312 12.66 41.71-19.13-3.75-38.021-8.84-56.391-15.39-8.72-3.15-17.359-6.63-25.51-11.07-1.29-.67-2.44-1.55-3.33-2.68-3.69-4.38-7.38-8.74-11.08-13.1-.931-1.71-2.931-1.062-4.479-1.142a87.814 87.814 0 0 1-.83-5.35c-3.63-3.7-3.551-8.96-3.721-13.79-1.5-14.65-.779-29.71-5.1-43.96-5.67-12.62-17.29-22.83-31.12-25.23-9.771-1.529-19.88-.77-29.38 1.95-17.66 4.95-33.801 14.061-49.11 23.97-13.829 9.091-26.97 19.2-39.689 29.771-15.729.87-30.27 7.54-44.09 14.59-9.06 4.41-18.1 9.29-28.05 11.37-4.95.63-9.93 1.01-14.8 2.189 18.611-38.228 50.842-69.589 89.591-87.098z"/><path fill="#FBFDFB" d="M527.229 92.696c1.689-1.7 3.16-4.15 5.891-3.98 4.41 5.37 11.489 8.9 13.359 16.03.641 3.891-.21 8.24-3 11.15-4.08 4.59-8.261 9.1-12.59 13.46-3.46 3.64-9.12 3.939-13.641 2.49-5.689-3.07-10.05-8.021-14.75-12.37 8.011-9.141 16.631-17.721 24.731-26.78z"/><path fill="#010001" d="M532.429 101.526c2.561 1.54 4.659 3.84 4.811 6.99-4.54 4.91-9.07 9.84-13.7 14.67-1.431-.03-2.87-.05-4.29-.08-1.21-1.18-2.431-2.36-3.641-3.521a815.375 815.375 0 0 0 16.82-18.059z"/><path fill="#FFF" d="M360.399 134.686c13.931-8.01 28.75-15.58 44.931-17.431 10.26-1.38 21.819 1.65 28.229 10.25 5.229 5.721 5.811 13.811 6.521 21.15.92 7.37.51 14.84 1.649 22.2-2.87.55-5.71 1.37-8.63 1.6-1.5-.71-2.99-1.399-4.311-2.39-.51-2-.82-4.04-1.13-6.08-11.79 2.19-24.221 4.63-33.87 12.229-4.851 3.7-7.721 9.421-8.721 15.36-.01 1.79-.05 3.59.08 5.4 1.631 1.358 3.971 1 5.939 1.488-2.75 5.052-5.21 10.342-5.96 16.102v4c4.61-.72 8.53-3.36 12.841-4.95-.189 1.03-.561 3.09-.74 4.12-.09 1.4-.17 2.8-.239 4.2a41.88 41.88 0 0 0 3.25 6.38c6.21-1.352 11.579-4.94 17.51-7.062l-.681 3.44c.24.68.711 2.03.939 2.7a52.775 52.775 0 0 0 17.811-8.08c7.011-4.5 13.82-10.41 22.351-11.521 4.761 3 6.979 9.2 12.011 12.092 8.18 4.938 17.061 8.578 25.96 12 18.279 6.79 37.09 12.148 56.17 16.158 9.92 2.17 20.029 3.65 29.649 6.99 5.38 1.95 10.801 5.24 13.181 10.69 4.479 10.71 4.42 23.38-.859 33.79-4.729 8.72-13.171 15.84-23.051 17.738-39.561 9.15-79.761 15.302-119.979 20.65-11.95 1.32-23.87 2.76-35.851 3.771-27.619 2.471-55.351 3.859-83.101 3.521-9.09.13-18.26-.08-27.14-2.189-3.479-1.319-7.051-2.801-9.561-5.659-3.439-3.341-4.399-8.2-5.28-12.71-1.47-8.28-3.439-16.521-3.72-24.961-.31-7.341 2.181-14.351 3.57-21.471 4.31-21.479 7.689-43.17 13.18-64.41.729-2.6.319-5.35 1.04-7.948 2.891-12.08 6.3-24.021 9.42-36.041.37-1.03.51-2.271 1.38-3 14.393-11.616 29.272-22.706 45.212-32.116z"/><path fill="#FBFDFB" d="M526.219 143.136c11.67-8.44 23.3-16.931 34.989-25.341 4.17 6.011 8.58 11.851 12.82 17.811-2.41 1.7-4.681 3.62-7.29 5-2.86-3.24-5.25-6.87-7.75-10.391-1.86 1.301-3.74 2.57-5.62 3.83.109 2.92 2.521 4.91 3.899 7.311-2.21 1.649-4.45 3.28-6.75 4.81-1.529-2.13-3-4.3-4.72-6.27-1.99 1.16-3.851 2.51-5.73 3.819l-1.319 1.641c2.54 3.43 5.08 6.859 7.471 10.41-2.37 1.8-4.801 3.51-7.311 5.109-4.149-5.969-8.839-11.569-12.689-17.739z"/><path fill="#FCFDFA" d="M185.189 122.556c.94-1.271 1.71-2.73 3.021-3.66 2.609 1.16 4.689 3.22 7 4.88-1.82 2.53-3.69 5.01-5.37 7.65 9.229 6.609 18.34 13.38 27.59 19.949-1.37 2.601-3.18 4.92-4.95 7.25-9.41-6.66-18.63-13.58-28.05-20.22-1.6 2.37-3.12 4.81-4.96 7-2.93-.15-4.97-3.03-7.42-4.42 3.99-6.409 8.879-12.199 13.139-18.429z"/><path fill="#FCFEFB" d="M161.75 160.056c1.57-3.051 3.15-6.101 5.06-8.95 12.351 6.72 25.021 12.939 37.17 20.01.15 3.38-2.71 6.4-4.3 9.311-5.11-2.44-9.79-5.801-15.13-7.7-.79 1.739-1.6 3.489-2.39 5.25 4.819 2.88 10.159 4.88 14.729 8.2-1.47 2.979-3.08 5.891-4.64 8.819-12.67-6.37-25.09-13.25-37.63-19.84-.47-1.9 1.17-3.65 1.84-5.36.89-1.25 1.25-3.229 2.82-3.779 5.08 2.27 9.779 5.33 14.859 7.63.94-1.75 1.9-3.49 2.92-5.2-5.079-2.841-10.278-5.471-15.308-8.391z"/><path fill="#F6FCF8" d="M543.37 164.816c1.13-3.08 4.949-3.271 7.38-1.66 1.061 2.18 1.149 4.49-.061 6.63-1.22.48-2.43.96-3.641 1.46-2.229-1.25-5.518-3.5-3.678-6.43z"/><path fill="#F8FBF9" d="M395.859 184.926c9.181-7.9 20.74-11.9 32.109-15.461l.82.601c1.319.99 2.811 1.68 4.311 2.39-12.631 4.99-24.801 11.07-37.261 16.45-.019-1.34-.008-2.651.021-3.98z"/><path fill="#FCFDFB" d="M553.969 178.476c1.67-3.94 5.46-6.34 9.229-7.99 1.29 2.97 2.649 5.91 3.92 8.9-2.59 1.39-5.011 3.439-4.45 6.68 1.5.38 3.07 1.7 4.66.89 9.47-3.81 18.521-8.58 27.88-12.64 1.351 3.14 2.88 6.189 4.141 9.37-6.811 3.29-13.74 6.34-20.551 9.63-4.699 1.89-9.58 4.7-14.819 3.71-8.04-1.34-13.529-11.09-10.01-18.55z"/><path fill="#FFF" d="M232.359 199.306c23.921-4.82 43.23-22.87 67.801-25.4-2.841 11.61-6.28 23.07-9.07 34.7-.84 3.64-.7 7.45-1.83 11.03-6.39 24.81-9.6 50.3-15.55 75.21-1.61 7.479-.71 15.21.71 22.648.71 4.971 1.76 9.93 3.7 14.59-8.19.352-16.23 3.142-23.2 7.392-7.95 4.68-13.92 12.898-23.51 14.438-12.011.87-22.33-6.85-34.08-7.739-4.261-.021-8.23 2.109-12.521 1.939.78-.58 1.561-1.14 2.351-1.7 6.01-3.148 11.989-6.79 18.84-7.77 8.359-.95 16.77-1.54 25.069-2.92 4.54-.82 8.721-2.96 12.181-5.99 4.56-3.84 12.05-4.67 14.13-10.99.439-4.5-.5-11.76-6.13-12.358-4.8.688-8.75 3.898-12.45 6.81-6.16 4.85-11.72 10.5-18.37 14.71-2.99 2.062-6.77 1.46-10.189 1.51-5.061-.08-9.87-1.989-14.891-2.37-7.59.802-14.84 3.392-22.03 5.83-5.51 1.7-11.14 3.562-16.979 3.271-7.93-.23-15.49-3.12-22.5-6.65 4.82-.16 9.69.271 14.48-.52 16.21-2.33 30.88-10.19 46.67-14.08 5.04-1.48 10.47.04 15.43-1.891 7.45-2.58 14.47-8.811 15.49-16.971.51-3.16-.74-6.1-2.21-8.79-4.48-4.069-10.71-1.608-15.311.892-13.28 7.52-24.189 18.52-37.37 26.188-3.569 2.03-7.649 3.23-11.779 3.062-8.83-.24-17.29-3.052-25.971-4.4-8.01-1.49-16.18-1.2-24.279-.88 15.25-7.38 32.64-6.61 48.97-9.601 5.98-1.149 12.5-1.939 17.39-5.869 1.94-1.4 2.01-3.98 2.34-6.12-2.05-5.75-6.8-11.23-13.319-11.36-10.11.312-18.51 6.71-26.64 12-5.62 3.63-11.301 8.87-18.511 8.021-7.39-1-14.609-3.439-22.14-3.341l-.65-.43c-7.25-.13-14.489.641-21.609 1.97 6-3.75 12.06-7.658 18.939-9.58 8.13-2.369 16.74-1.42 25-2.92 13.771-3.898 22.65-16.188 34.96-22.738 3.681-1.79 7.86-3.28 11.99-2.37 10.39 1.68 16.56 11.818 26.51 14.55 8.88 2.18 18.17-1.19 25.35-6.4 3.9-2.71 7.091-6.6 8.15-11.31-1.79-4.98-8.01-5.95-12.62-5.521-7.729.69-12.27 7.771-18.79 11.04-9.72-1.068-16.819-8.47-25.739-11.608-5.74-1.45-12.4-.75-17.051 3.188-7.409 5.96-15.18 11.94-24.47 14.63-10.79 3.5-22.439 1.762-32.979-1.778 11.02-1.12 22.2-3.472 31.75-9.341 11.71-6.979 20.42-19.381 34.46-22.039 7.81-2.03 15.529 1.47 22.239 5.17 4.24 2.119 8.851 4.63 13.75 3.698 7.391-1.68 12.75-7.39 18.98-11.27 2.95-1.91 6.939-2.08 9.18-5.05 1.88-1.562 1.25-4.13 1.41-6.261-1.92-2.131-4.53-3.811-7.521-3.229-9.72.84-15.47 10.311-24.52 12.89-3.44.74-6.71-.84-9.92-1.84-5.33-1.85-10.91-3.22-16.6-2.96-5.21-.26-10.16 1.54-15.221 2.431 2.381-2.109 4.73-4.369 7.721-5.601 7.1-3.22 15.14-1.84 22.59-3.49 6.79-1.67 11.989-6.59 17.8-10.159 6.07-4.131 12.92-7.149 20.149-8.54 3.95-.964 8.07-.743 12.04-1.663z"/><path fill="#EEFAF9" d="M402.479 198.946c8.41-5.98 16.5-12.79 26.149-16.72-2.18 2.47-4.64 4.661-7.239 6.649-9.92 7.682-19.979 15.17-30.28 22.33 2.06-5.37 7.221-8.599 11.37-12.259z"/><path fill="#FDFDFC" d="M437.24 191.816c2.859-1 5.949-1.28 8.92-.58.229 5.41-4.96 8.57-8.41 11.9-10.779 8.6-23.33 14.618-36.04 19.778.75-5.29 2.551-10.33 4.439-15.29 10-5.918 20-12.119 31.091-15.808z"/><path fill="#FBFEFB" d="M584.99 205.516c2.189-4.062 6.979-5.65 11.29-6.13 8.34.118 13.06 9.96 11.14 17.229-1.3 4.97-6.13 7.49-10.529 9.24-.761-2.71-1.45-5.44-2.149-8.16 1.51-1.271 4.35-1.82 4.34-4.21.05-1.44-.25-2.85-.399-4.271-1.41-.43-2.83-.818-4.25-1.13l-1.351 2.341c-.21 5.899-.59 12.671-5.319 16.891-3.461 3.52-8.851 3.43-13.381 2.76-7.88-2.1-11.51-11.91-8.659-19.109 2.029-4.391 6.689-6.461 10.979-8.029.891 2.91 1.63 5.858 2.33 8.818-2.25 1.4-6.189 2.472-5.561 5.892-.37 1.8 1.42 2.64 2.449 3.76 2.271-.24 5.221.11 6.591-2.189 1.178-4.493.458-9.424 2.479-13.703z"/><path fill="#010102" d="M336 249.585c2.681-8.818 11.351-13.979 20.101-15.06 6.979-.42 14.561.67 20.08 5.31 3.79 2.91 5.239 7.67 6.55 12.062 2.141 0 4.29.05 6.439.2.36-5.65 5.2-9.92 10.221-11.762 3.109-1.27 6.069.5 8.789 1.83 2.312-1.12 4.36-3.25 7.15-2.858 2.391-.271 4.79 2.028 7.061.68 3.369-1.87 7.729-2.45 11.101-.26 3.529 1.648 4.729 5.66 5.649 9.13 7.08-2.47 15.569-2.99 21.819 1.85 1.83-.81 3.641-1.67 5.45-2.54 1.311-6.05 7.96-10.02 13.899-8.46 6.569 1.41 10.819 9.7 6.55 15.45 1.021 3.5 1.301 7.24-.04 10.71 2.641 2.62 5.511 5.79 4.891 9.83.49 5.47-3.561 9.82-7.739 12.7 2.68 4.08 1.029 8.97 2.579 13.34 1.011 4.2.23 9.05-3.149 12.021-4.641 4.961-12 4.229-18.13 5.351-1.12-.72-2.239-1.44-3.359-2.13-6.24 2.938-13.95 3.479-19.69-.892a19.577 19.577 0 0 1-7.96 4.562c-3.05 4.188-7.069 8.38-12.39 9.31-5.141.182-8.721-4.449-9.641-9.108-5.16 1.62-10.479.89-15.5-.841-4.391 3.521-10.489 3.939-15.699 2.189-2.23 4.35-5.37 8.34-9.852 10.53-9.56 4.779-22.699 3.18-29.56-5.49-5.729-7.07-4.79-18.13 1.96-24.22-1-2.19-1.771-4.471-2.189-6.83-1.351-.4-2.689-.811-4.021-1.2-1.28.67-2.561 1.34-3.83 2.021-6.771.021-13.62-.67-20.25 1.091-1.87-1.341-4.101-2.36-5.33-4.38-1.16-2.07-.92-4.5-.979-6.771-8.66-2.54-11.471-14.64-5.46-21.06 3.721-4.011 9.489-4.671 14.659-4.432 3.271-1.59 7.141-3.72 10.641-1.29 4.391 1.921 3.771 7.37 6.021 10.852 3.341 2.229 7.08-.91 10.681-.92-7.254-3.794-9.273-13.064-7.523-20.515z"/><path fill="#F9FCFA" d="M352.379 242.076c5.86-1.74 12.591-1.61 17.939 1.57 5.65 3.14 7.479 11.47 3.61 16.67-1.61 2.14-4.29 2.97-6.641 3.979 2.87 7.57 7.3 16.15 15.641 18.592 4.819 1.31 8.601-3.45 13.279-3 2.609.068 2.41 3.329 2.63 5.188-4.329 6.66-13.729 7.82-20.489 4.49-6.78-3.47-11.149-10.28-13.891-17.17-1.09-2.75-1.97-5.562-2.899-8.36-.431.062-1.311.17-1.74.23.101 1.66.211 3.33.33 5 1.061.479 2.12.96 3.189 1.448-.271 1.23-.56 2.472-.869 3.7-1.939 3.392-4.881 6.12-8.301 7.98-.979-.931-2.21-1.642-2.851-2.852.811-2.278 2.61-4.198 2.689-6.72.141-4.34-.47-8.67-.39-13.01.109-2.58-1.729-4.58-3.09-6.55 2.119-2.86 5.729-2.36 8.859-2.29.311.54.63 1.08.96 1.63-.431 2.29-.62 4.608-.7 6.938 2.851-.01 6.33.36 8.189-2.33 2.92-3.26.21-8.318-3.56-9.448-5.801-1.972-14.171-.53-16.49 5.89.97 3.63 4.55 6.24 4.311 10.19-1.54.579-3.17 1.93-4.859 1.01-4.73-2.44-6.341-8.602-4.811-13.43 1.196-4.706 5.446-8.046 9.955-9.345z"/><path fill="#F4FAF9" d="M426.059 245.266c1.54-.562 3.2-.19 4.8-.15 1.351 2.42 2.24 6.13-.29 8.09-2 .771-4.949.65-5.859-1.64-1.46-2.08-.141-4.66 1.349-6.3z"/><path fill="#F8FCF9" d="M395.769 251.456c1.29-2.75 4.17-4.21 6.819-5.38 3.601 8.21 1.53 17.5 3.16 26.11.891 1.05 1.92 1.99 2.91 2.97.029.54.08 1.63.109 2.17-3.489 1.65-7.439 1.22-11.17.96-.03-.609-.08-1.84-.109-2.45.71-1.09 1.43-2.18 1.979-3.358-.141-5.92-.95-11.812-.841-17.74-.957-1.072-3.447-1.363-2.857-3.282zm13.731-1.76c2.069-1.78 4.181-3.68 6.939-4.25 2.141 4.77 1.75 10.13 2.261 15.23.38 4.5-.94 9.868 2.71 13.35h3.641c.479-.57 1.43-1.7 1.899-2.26.029-3.021.029-6.04-.11-9.052-.89-.22-2.67-.648-3.56-.868.84-3.61 4.06-5.73 7.26-7.052 2.181 5.08 1.149 10.75 2.2 16.07 1.069 1.11 2.149 2.22 3.239 3.33-.04.49-.109 1.45-.14 1.93-3.23.602-6.511.87-9.79.91-1.021-.77-2.04-1.51-3.051-2.27-2.449 4.52-8.409 3.14-12.5 2.25.87-2.41 2.88-4.54 2.551-7.262-.2-4.329-.5-8.658-.71-12.988-.15-1.04-.28-2.07-.391-3.102-2.118-.367-2.379-2.186-2.448-3.966z"/><path fill="#F6FAF7" d="M473.58 248.106c2.061-3.92 9.45-2.08 8.37 2.67-1.36 2.34-4.12 1.2-6.271 1.33 2.319 3.14 6.779 6.02 5.271 10.53-1.79 4.198-7.03 4.54-10.851 5.8-.2.43-.601 1.29-.801 1.729 4.131 2.12 8.7-1.2 12.851.82 2.021.7 2.771 2.87 3.609 4.64-1.42 6.92-9.189 9.61-15.47 9.13-2.67-.47-6.2-.85-7.59-3.5-1.25-2.42 1.04-5.39 3.63-4.92 2.26 1.58 4.21 3.602 6.71 4.841 2.29-.869 6.43-1.25 5.68-4.671-1.239-1.72-3.55-1.5-5.39-1.35-2.771.22-5.55.22-8.33.16-.72-.72-1.431-1.44-2.141-2.15-.01-.92-.01-1.83-.01-2.729a158.31 158.31 0 0 1 3.34-3c-1.271-1.45-3.21-2.57-3.55-4.602-.729-2.26.561-4.358 1.409-6.35 3.051-1.66 6.391-2.59 9.82-3.06-.487-1.709-1.897-3.799-.286-5.318z"/><path fill="#F8FBF9" d="M446.849 256.375c2.42-1.52 5.619-3.56 8.409-1.68 3.021 2.05 2.601 6.04 2.9 9.21-.13 2.7 2.779 4.021 2.97 6.64-2.51 2.67-5.01 7.182-9.37 5.57.79-5.24 2.21-10.95-.27-15.95-1.53.392-3.03.8-4.551 1.19-.399 2.108-1.149 4.22-.851 6.398.261 2.91 2.971 4.57 4.301 6.98-3.479 1.7-7.359 1.71-11.131 1.5l-1.569-1.93c.96-1 1.931-1.98 2.95-2.921.271-.819.561-1.619.84-2.431-.439-2.16-.641-4.35-.761-6.54l-2.979-.56c.02-1.54.399-3.011.96-4.42 1.71-1.15 3.409-2.32 5.159-3.432 1.08 1.222 1.819 2.65 2.54 4.12.113-.433.344-1.303.453-1.744z"/><path fill="#030207" d="M468.059 260.496c.76-2.84 4.061-2.648 6.359-2.28a15.867 15.867 0 0 1 1.78 3.632c-1.61.97-3.33 1.71-5.061 2.42-1.208-.992-4.048-1.592-3.078-3.772z"/><path fill="#F8FBF6" d="M380.689 259.215c4.391-2.158 10.391-.688 12.689 3.79 2.07 4.512 2.181 10.53-1.569 14.2-2.75 3.04-7.45 2.7-11.069 1.82-7.62-3.339-7.721-16.449-.051-19.81z"/><path fill="#152028" d="M359.819 264.266c.431-.062 1.311-.17 1.74-.23.931 2.8 1.811 5.61 2.899 8.36-.67.67-1.34 1.34-1.989 2.02.311-1.229.6-2.47.869-3.7-1.069-.488-2.13-.97-3.189-1.448-.119-1.672-.23-3.342-.33-5.002z"/><path fill="#020103" d="M381.919 264.416c2.141-2.398 6.601-.85 6.979 2.29.32 2.59.82 6.16-2 7.62-1.97.271-4.619.51-5.54-1.72-1.209-2.47-1.448-6.101.561-8.19z"/><path fill="#F2FAF9" d="M319.269 268.166c1.439-1.608 3.221-2.64 5.431-2.2-.011 1.82.271 3.98-1.5 5.12-1.57.38-3.181.41-4.771.552.229 3.818.18 7.648.51 11.46.681.85 1.37 1.71 2.061 2.579-1.891 2.561-3.83 5.931-7.54 5.641.66-4.062 2.891-8.63.141-12.4-1.62 2.53-5.88 2.16-7.479-.188-2.29-2.61-1.811-7.21 1.13-9.16 3.477-2.525 8.047-.974 12.017-1.404z"/><path fill="#030408" d="M308.359 276.045c.421-1.618.15-3.79 2.061-4.479 1.29-.271 2.601-.4 3.931-.4.09 1.95.22 3.91.399 5.88-2.01-.98-4.241-.85-6.391-1.001z"/><path fill="#F2F9F8" d="M323.2 271.085c.729.271 2.189.802 2.93 1.062.37 2.08.391 4.21.551 6.33 2.25-1.142 4.561-1.551 6.779-.09.229 1.93.431 3.858.58 5.8.609.858 1.229 1.729 1.851 2.608a77.694 77.694 0 0 1-3.479 3.83l-2.87-.56c1.05-2.91 1.859-6.3-.09-9.05-.931.33-1.811.778-2.689 1.22.021 1.39.079 2.8.18 4.2.71 1.16 1.45 2.31 2.229 3.438-2.38.33-4.779.54-7.18.591-.051-.381-.15-1.149-.2-1.541.62-.948 1.24-1.88 1.83-2.828-.729-3.07-.681-6.24-.689-9.37-3.563-.829-.403-3.709.267-5.64z"/><path fill="#F1FBF9" d="M339.819 277.166c3.061-.608 7.261-.34 7.979 3.45 1.2 4.32-4.56 3.78-7.26 3.9.141.438.431 1.318.58 1.76 2.311-.05 4.439-1.07 6.72-1.33.771 5.46-8.699 6.29-10.18 1.44-1.809-3.261-.368-6.87 2.161-9.22z"/><path fill="#61A6C3" d="M339.219 280.736c1.88-.57 3.779-1.09 5.71-1.521.351 3.531-4.03 3.891-5.71 1.521z"/><path fill="#F8FCF9" d="M360.389 286.386c2.09.31 3.979-2.37 5.949-.852 2.681 2.25 4.311 5.84 4.181 9.352-.88.729-1.891 1.25-2.88 1.8-2.521-2.102-5.051-4.3-8.189-5.38a336.2 336.2 0 0 0-3.66 1.33c-.16 1.5-1.83 3.51.2 4.408 5.199 3.012 11.55 3.682 16.311 7.592 2.819 3.77 3.8 8.47 3.35 13.108-3 11.53-19.149 14.66-27.47 7.021-5.2-4.29-5.25-14.16 1.01-17.512 3.28-2.028 8.07-2 10.561 1.25-.46 1.092-.909 2.19-1.359 3.29-2.229.762-4.96.88-6.5 2.88-.771 2.82.37 6.182 3.21 7.342 3.76 1.658 8.859 1.278 11.83-1.75 3.359-3.83 2.351-10.54-2.2-12.99-4.47-2.37-9.68-3.19-13.899-6.07-3.311-2.29-3.88-7.21-1.489-10.358 2.315-3.681 6.905-5.021 11.044-4.461z"/><path fill="#F7FAF9" d="M464.979 291.406c2.729-2.438 6.83 0 9.62-2.32.51 0 1.54-.01 2.05-.01 1.359 2.142 2.41 4.47 3.261 6.88-2.9 2.61-5.851-.06-8.41-1.67-.46.062-1.399.16-1.859.22-.011.78-.021 1.57-.011 2.37 3.29 1.5 7.311 1.88 9.92 4.602 1.99 2.12.57 5-.01 7.42-2.63 2.26-5.99 2.88-9.359 2.279-1.21.591-2.49 1.75-3.921 1.141-2.38-2-3.92-4.95-3.819-8.09 3.63-1.91 6.431 1.63 9.66 2.729 2.38.96 1.851-1.989 2.13-3.27-3.391-1.09-6.83-2.102-10.01-3.73l-1.439-2.318c-.042-2.264.407-4.683 2.197-6.233z"/><path fill="#F8FCF9" d="M425.349 294.776c2.771-1.64 6.181-3.42 9.351-1.64 6.109 3.438 6.85 12.71 2.909 18.068-1.949 3.07-6.561 3.98-9.47 1.771-1.71-.88-1.851-3.682-.32-4.79 1.431-.21 2.891-.3 4.36-.28 2.33-2.24 2.93-5.36 1.409-8.25l-2.239-1.56c-2.141.02-4.859.55-5.351 3.04-.37 3.34-.12 6.72.011 10.079-.051 1.931 1.92 2.881 2.81 4.391.461 1.568-1.05 2.64-1.84 3.77-1.931 1.852-3.989 4.57-7.021 3.762-1.22-2.75.5-5.61.42-8.42-.18-4.512-.771-8.99-.649-13.5-.971-.472-1.939-.932-2.891-1.392-.09-.56-.271-1.68-.35-2.24 1.96-2.118 4.1-4.5 7.18-4.738.421.479 1.261 1.448 1.681 1.929z"/><path fill="#F8FBF9" d="M445.29 293.686c4.101-4.142 12.25-3.352 14.819 2.14 1.011 2.13 1.641 5.82-1.04 6.95-3.319 1.729-7.109 1.22-10.689 1.25.091.51.29 1.55.391 2.06 3.95 2.92 7.641-1.22 11.771-1.08.08 1.25.34 2.521.181 3.79-1.479 2.642-4.7 3.271-7.32 4.21-4.97.07-9.979-3.118-10.76-8.25-1.153-3.832-.113-8.171 2.647-11.07z"/><path fill="#F9FDF8" d="M398.05 297.416c2.52-3.83 7.76-4.06 11.75-2.898 4.96 1.83 5.93 7.76 5.779 12.398-.87 2.71-1.99 5.771-4.75 7.102-2.67 1.56-5.83.96-8.761 1.068-6.389-3.15-8.399-12.09-4.018-17.67z"/><path fill="#F7FCF8" d="M380.669 297.005c1.851-1.64 4.36-2.038 6.649-2.698 2.11.738 4.53 1.16 6.15 2.83 1.21 1.63.89 4.158-1.011 5.148-2.729-1.1-5.43-2.568-8.47-2.1-1.71 3.03-2.471 7.54.71 9.898 3.399 1.67 6.6-1.76 10.109-1.22.069 1.78.91 4.21-1.051 5.32-2.659 2.54-6.63 2.688-10.029 1.989-7.526-2.726-9.097-14.186-3.057-19.167z"/><path fill="#03080A" d="M449.12 296.416c2.55-.58 6.29-1.198 6.479 2.48-2.689.77-5.471 1.148-8.261 1.29.572-1.27 1.171-2.52 1.782-3.77z"/><path fill="#040304" d="M403.109 299.276c1.7-.78 3.58-.22 5.351.01 1.311 2.521 2.351 5.44 1.2 8.25-1.04 3.47-6.721 3.55-7.9.09-.411-2.78-1.01-6.251 1.349-8.35z"/><path fill="#FFF" d="M581.399 328.356c7.07-1.62 12.2-7.15 17.66-11.37 9.899 1.03 19.311 5.71 26.239 12.83 6.061 6.76 10.24 15.62 9.851 24.85.569 12.261-5.909 24.052-15.34 31.58-15.939 13.09-41.141 13.36-56.87-.229-9.311-7.771-14.601-20.271-13.08-32.36.771-7.35 3.87-14.3 8.341-20.14 7.769-1.531 15.46-3.472 23.199-5.161z"/><path fill="#FAFCFA" d="M123.57 336.816c2.91 2.91 5.76 5.88 8.72 8.74 2.15 1.84 2.49 4.81 3.479 7.318 14.261 40.32 38.88 76.9 70.891 105.28 28.52 25.4 62.79 44.38 99.59 54.7 41.931 11.87 86.95 12.67 129.25 2.148 59.96-14.51 113.811-52.108 148.561-103.01 2.939-.34 5.891-.66 8.859-.79-35.351 54.271-91.569 94.67-154.51 110.182-15.13 3.948-30.65 6.3-46.229 7.329-21.341 1.421-42.841.149-63.881-3.659-41.439-7.472-80.899-25.41-113.97-51.44-43.821-34.348-76.361-82.958-90.76-136.798z"/><path fill="#FFF" d="M520.889 340.456c1.271-.148 2.59-.62 3.891-.3 7.771 6.32 13.319 15.44 14.56 25.46 3.091 19.58-10.96 39.17-29.569 44.72-12.561 4.08-26.989 2.4-37.96-5.08-8.601-5.59-14.971-14.579-17.021-24.67-2.391-10.118-.03-21.118 5.62-29.76.689-1.49 2.489-1.3 3.84-1.56 18.95-2.471 37.809-5.57 56.639-8.81zm-261.79 32.2c4.101-12.75 14.13-23.87 27.03-27.99 1.77 5.49 6.1 9.9 11.63 11.63 12.159 4.131 25.229 2.472 37.84 2.842 6.199 9.148 9.431 20.67 7.101 31.64-3.28 19.46-21.7 34.78-41.37 34.76-14.311.7-28.66-6.47-36.7-18.33-6.911-9.953-8.79-22.922-5.531-34.552zm108.32-14.37c21.011-.95 42.021-2.46 62.91-5 7.399 7.51 12.149 17.83 11.72 28.49-.109 12.54-7.01 24.49-17.189 31.63-9.579 6.84-22.069 9.54-33.601 7-14.949-2.95-27.68-14.84-31.21-29.74-.93-6.67-1.02-13.59.99-20.08 1.501-4.4 3.88-8.412 6.38-12.3z"/><path fill="#FAFCFB" d="M237.12 366.666c1.55-.778 3.12-1.528 4.699-2.29-3.55 8.602-4.55 17.972-4.079 27.19a247.65 247.65 0 0 1-17.12-22.26c5.63.23 11.239-.56 16.5-2.64z"/><path fill="#FBFDFB" d="M192.149 399.706c8.11-5.05 15.73-10.88 23.9-15.85 1.93 2.83 3.83 5.68 5.58 8.63-7.37 4.8-14.58 9.82-21.95 14.6-3.479 2.12-7.33 4.33-11.57 3.812-7.529-.25-13.55-8.01-12.39-15.352.83-4.51 4.04-8.47 8.22-10.34 1.62 2.57 3.49 4.97 5.051 7.58-1.46 2.15-4.521 4.12-3.181 7.102 1.611 2.278 4.441.898 6.34-.182z"/><path fill="#FCFDFB" d="M214.78 408.217c3.18-2.972 6.8-6.541 11.55-6 7.229.979 13.13 7.35 14.27 14.459.37 4.351-2.3 8.189-5.55 10.801-7.19 6.38-13.84 13.37-21.28 19.47-1.859-1.9-3.739-3.771-5.59-5.67 3.42-4.56 8.04-8.09 12.26-11.88-2.08-2.562-4.29-5-6.54-7.392-4.5 3.421-8.319 7.632-12.619 11.28-1.95-1.74-3.79-3.59-5.62-5.45-.04-.358-.12-1.1-.17-1.47 6.278-6.209 13.018-11.941 19.289-18.148z"/><path fill="#FFF" d="M388.189 436.424c22.859 2.94 46.841-9.67 57.061-30.398 6.55 8.86 16 15.439 26.5 18.74-.029.21-.109.64-.149.85-35.311 21.76-78.011 31.28-119.181 26.01-15.59-1.96-31-5.818-45.529-11.84 16.88-3.37 31.71-14.92 39.54-30.2 8.649 14.881 24.649 25.11 41.758 26.838z"/><path fill="#020304" d="M224.16 411.996c3.81-.25 8.199 3.312 6.67 7.38-1.34 1.592-2.99 2.892-4.561 4.25-2.33-2.25-4.59-4.568-6.72-7.01a692.83 692.83 0 0 1 4.611-4.62z"/><path fill="#FBFDFB" d="M250.25 420.656c2.359 1.562 4.6 3.3 6.88 4.99-3 7.01-5.84 14.1-9.09 21-.11.648-.351 1.938-.471 2.58 6.381-5.57 13.07-10.761 19.61-16.142 2.16 1.79 4.39 3.49 6.67 5.131-11.359 9.591-23.06 18.779-34.51 28.279-2.16-1.64-4.34-3.24-6.54-4.82 5.72-13.718 11.71-27.308 17.451-41.018z"/><path fill="#FBFDF9" d="M458.979 449.967c7.979-4.462 15.729-9.312 23.521-14.08 1.609 2.5 3.149 5.05 4.53 7.698-2.53 1.54-5.181 2.881-7.591 4.602.221 1.31.931 2.45 1.601 3.59 5.061 8.41 10.279 16.74 15.17 25.27.229.16.7.48.931.642a133.765 133.765 0 0 0-7.479 4.688c-6.689-9.398-11.88-19.778-18.229-29.408-2.71 1.578-5.36 3.26-8.16 4.68-1.434-2.573-2.884-5.123-4.294-7.682z"/><path fill="#FBFDFA" d="M279.859 445.516c8.08-2.38 17.99 2.738 20 11.1.811 4.42-1.869 8.3-3.72 12.07-3.791 7.688-7.82 15.238-11.72 22.87-2.62-1.15-5.15-2.48-7.65-3.852 2.511-5.1 5.12-10.14 7.66-15.22-2.96-1.5-5.8-3.311-8.979-4.32-2.351 4.94-5.11 9.682-7.381 14.67-2.729-.76-5.25-2.068-7.789-3.27.189-2.3 1.21-4.38 2.289-6.37 3.461-6.87 7.131-13.63 10.5-20.55 1.37-3.059 3.431-6.078 6.79-7.128z"/><path fill="#020304" d="M282.099 455.217c.57-.222 1.69-.65 2.25-.87 2.67.56 6.59 1.75 6.54 5.108-.649 2.13-1.85 4.04-2.89 6-2.96-1.45-5.92-2.898-8.811-4.488a150.209 150.209 0 0 1 2.911-5.75z"/><path fill="#FCFEFC" d="M428.339 460.846c7.061-1.95 14.061-7.552 21.631-4.74 7.279 2.09 11.42 11.26 7.949 18.05-2.199 4.43-6.59 7.11-11.109 8.69 1.88 5 3.939 9.938 5.62 15.02-2.439 1.07-4.92 2.021-7.33 3.13-.601.021-1.2.04-1.79.07-4-10.19-7.811-20.45-11.76-30.66-1.211-3.14-2.731-6.2-3.211-9.56z"/><path fill="#FAFCF9" d="M313.019 458.456c4.75-1.41 10.029-.398 14.141 2.3 4.42 3.45 5.279 9.79 3.68 14.9-2.609-.67-5.199-1.4-7.739-2.26-.271-2.142.189-5.16-2.17-6.29-1.431-1.04-3.24-.72-4.87-.83-.5 1.21-.99 2.439-1.471 3.67 4.49 3.99 10.58 6.72 12.87 12.71 2.54 7.71-2.979 16.74-10.93 18.26-1.171-.028-2.32-.04-3.471-.04-4.109-1.028-8.71-2.479-10.931-6.42-2.369-3.818-1.67-8.529-1.04-12.738 2.931.63 5.87 1.289 8.69 2.35.199 2.83-.131 5.9 2 8.14 1.039 0 3.109.012 4.14.012 1.351-1.882 3.021-4 2.7-6.45-3.17-4.3-8.87-6-11.58-10.722-2.449-5.874-.048-13.912 5.981-16.592z"/><path fill="#FBFEFA" d="M412.009 463.576c3.17-.67 6.34-1.358 9.55-1.81 2.909 14.06 5.37 28.21 8.351 42.26-2.609.62-5.229 1.18-7.88 1.6-.32.2-.971.602-1.29.812-1.301-3.521-1.78-7.25-2.54-10.892-2.061-10.66-4.17-21.3-6.191-31.97z"/><path fill="#020204" d="M440.439 466.467c2.591-1.07 5.341-1.842 8.17-1.24 1.109 1.99 1.95 4.34.939 6.568-1.689 1.65-4.039 2.302-6.26 2.892-.969-2.741-2.008-5.451-2.849-8.22z"/><path fill="#FCFEFD" d="M342.549 471.186c4.641-7.25 16.4-8.25 22.311-1.98 1.801 1.74 2.631 4.16 3.649 6.392-.01 2.27-.02 4.55-.06 6.84-2.971.108-5.94-.17-8.891-.47-.029-1.53-.069-3.062-.061-4.57-1.95-2.12-4.95-3.352-7.71-2.08-2.45 1.74-2.021 5.03-2.58 7.63-.43 4.25-1.47 8.44-1.43 12.75.369.55 1.13 1.65 1.5 2.2 2.279 1.34 4.819 1.04 7.13-.07.64-1.52 1.279-3.03 1.909-4.54 2.931.32 5.851.78 8.79 1.102-.01 4.39-1.479 9.358-5.609 11.568-6.431 3.48-15.689 2.94-20.33-3.25-3.739-4.108-2.84-10.04-1.899-15.029 1.191-5.473 1.131-11.283 3.281-16.493z"/><path fill="#FDFEFC" d="M375.429 467.096c5.609-.79 11.279-1.19 16.949-1.19 2.891-.1 5.5 1.28 7.99 2.6 4.09 5.012 4.84 12.392 1.75 18.092-1 1.988-2.82 3.408-3.87 5.358 2.37 5.562 5.99 10.512 8.75 15.91-3.21.05-6.399.352-9.59.561-3.58-5.369-6.431-11.209-10.4-16.301.051 5.722 1.04 11.38 1.16 17.11-3.03.26-6.04.68-9.08.78-.38-3.062-.479-6.15-.84-9.21-.601-7.341-1.271-14.682-1.931-22.021-.447-3.889-.628-7.789-.888-11.689z"/><path fill="#010204" d="M385.609 474.906c3.101-.938 6.28-.39 8.95 1.4.359 1.198.739 2.42 1.12 3.63-.761 1.43-1.351 3.148-2.87 3.97-2.04.6-4.141.94-6.24 1.28-.69-3.391-.93-6.83-.96-10.28z"/></svg>