<?xml version="1.0" encoding="utf-8"?>
<!-- Generator: Adobe Illustrator 22.0.1, SVG Export Plug-In . SVG Version: 6.00 Build 0)  -->
<svg version="1.1" id="Layer_1" xmlns="http://www.w3.org/2000/svg" xmlns:xlink="http://www.w3.org/1999/xlink" x="0px" y="0px"
	 viewBox="0 0 2641 1174" style="enable-background:new 0 0 2641 1174;" xml:space="preserve">
<style type="text/css">
	.st0{fill:none;}
	.st1{fill:#010101;}
	.st2{fill:#FFFFFF;}
	.st3{fill:#F8FBF9;}
	.st4{fill:#EEFAF9;}
	.st5{fill:#FDFDFC;}
	.st6{fill:#010102;}
	.st7{fill:#F9FCFA;}
	.st8{fill:#F4FAF9;}
	.st9{fill:#F8FCF9;}
	.st10{fill:#F6FAF7;}
	.st11{fill:#030207;}
	.st12{fill:#F8FBF6;}
	.st13{fill:#152028;}
	.st14{fill:#020103;}
	.st15{fill:#F2FAF9;}
	.st16{fill:#030408;}
	.st17{fill:#F2F9F8;}
	.st18{fill:#F1FBF9;}
	.st19{fill:#61A6C3;}
	.st20{fill:#F7FAF9;}
	.st21{fill:#F9FDF8;}
	.st22{fill:#F7FCF8;}
	.st23{fill:#03080A;}
	.st24{fill:#040304;}
	.st25{fill:#FAFCFB;}
	.st26{fill:#020304;}
	.st27{fill:#020204;}
</style>
<g transform="translate(0.000000,1174.000000) scale(0.100000,-0.100000)">
	<path d="M0,8070V4400l983-1c888-1,973-3,884-15c-448-65-895-292-1227-624C284,3403,62,2932,9,2421c-15-141-6-429,16-561
		c77-461,278-860,599-1189C980,307,1421,86,1930,19c137-18,430-16,575,5c722,104,1340,547,1665,1196c108,215,185,466,211,680
		c13,114,28,162,29,95c0-58,27-215,56-329C4668,864,5316,234,6122,56c175-38,287-50,483-49c209,0,357,18,550,68
		c775,199,1383,811,1580,1590c19,72,39,178,46,235c13,114,28,162,29,95c0-58,27-215,56-329c202-802,850-1432,1656-1610
		c175-38,287-50,483-49c209,0,357,18,550,68c775,199,1383,811,1580,1590c19,72,39,178,46,235c13,114,28,162,29,95
		c0-58,27-215,56-329c202-802,850-1432,1656-1610c175-38,287-50,483-49c209,0,357,18,550,68c775,199,1383,811,1580,1590
		c19,72,39,178,46,235c13,114,28,162,29,95c0-58,27-215,55-325c97-383,283-716,559-999c356-364,797-585,1306-652
		c137-18,430-16,575,5c722,104,1340,547,1665,1196c108,215,185,466,211,680c13,114,28,162,29,95c0-22,7-83,15-135
		c144-892,820-1611,1697-1804c175-38,287-50,483-49c209,0,357,18,550,68c775,199,1384,812,1580,1590c99,391,86,831-36,1212
		c-211,659-727,1186-1381,1411c-124,43-288,82-433,103c-131,20-452,17-599-5c-946-138-1697-871-1856-1809c-11-66-20-138-20-160
		c-1-64-16-25-24,60c-10,101-49,281-86,398c-163,505-494,927-950,1210c-251,155-546,260-865,306c-131,20-452,17-599-5
		c-946-138-1697-871-1856-1809c-11-66-20-138-20-160c-1-69-16-21-29,93c-15,129-66,332-116,465c-282,752-940,1286-1735,1409
		c-64,11-75,14-42,15l42,1v1835v1835h4790h4790v1835v1835H12655H0V8070z M12540,10810c47-11,132-44,190-72c94-46,116-63,205-152
		c111-112,152-175,201-306c124-330,64-718-151-970c-107-126-272-227-441-271c-172-44-397-35-569,22c-137,46-226,101-330,204
		c-97,97-147,174-195,298c-49,124-63,206-63,362c0,200,38,346,130,505c53,91,199,234,293,287c87,49,227,98,320,112
		C12230,10844,12441,10835,12540,10810z M22858,10811c126-32,268-103,360-181l24-20l-56-89c-59-93-93-119-138-106c-13,4-54,25-91,47
		c-128,74-263,105-421,95c-330-19-536-262-536-632c0-203,61-369,179-485c121-119,259-166,456-156c114,5,149,12,248,48l57,20v164v164
		h-123c-169,0-167-1-167,141v109h295h295v-364v-364l-48-31c-179-114-421-171-682-158c-146,7-247,33-375,97c-166,82-293,209-375,375
		c-79,160-94,227-94,440c0,157,3,191,22,264c96,351,350,577,716,637C22519,10845,22751,10837,22858,10811z M2850,10685v-135h-265
		h-265v-755v-755h-170h-170v755v755h-270h-270v135v135h705h705V10685z M4020,10435v-385h420h420v385v385h165h165v-895v-895h-165
		h-165v395v395h-420h-420v-395v-395h-170h-170v895v895h170h170V10435z M7300,10690v-130h-395h-395v-250v-250h310h310v-130v-130h-310
		h-310v-250v-250h395h395v-135v-135h-565h-565v895v895h565h565V10690z M10139,10791c129-33,206-74,282-150c69-69,100-129,120-235
		c33-175-29-368-155-482c-58-53-182-124-215-124c-9,0,3-17,31-42c29-26,137-176,277-383l231-340l-166-3c-146-2-171,0-202,16
		c-29,15-74,76-239,328c-126,193-214,317-234,332c-28,19-45,22-125,22h-94v-350v-350h-170h-170v896v896l373-5
		C10025,10813,10062,10811,10139,10791z M14410,10065v-755h360h360v-140v-140h-525h-525v895v895h165h165V10065z M16310,10065v-755
		h360h360v-140v-140h-525h-525v895v895h165h165V10065z M18250,9925v-895h-170h-170v895v895h170h170V9925z M19543,10780
		c19-19,237-295,486-612c249-318,455-579,459-582c4-2,6,274,4,615l-2,619h145h145v-895v-895h-101c-69,0-111,5-132,15
		c-23,11-172,194-507,621l-475,605l-3-620l-2-621h-145h-145v896v896l120-4l120-3L19543,10780z M2270,7296c95-17,210-62,282-110
		c87-57,86-54,38-148c-24-46-50-91-58-100c-25-29-80-22-147,18c-124,75-240,99-358,74c-168-34-245-221-139-333c43-46,97-72,272-132
		c91-31,201-74,245-95c221-106,304-309,238-575c-94-379-575-531-1001-316c-80,40-182,115-182,133c0,19,101,178,120,188
		c36,19,76,10,139-30c177-114,309-144,455-103c74,21,145,85,164,149c17,57,15,140-4,180c-36,76-110,118-314,179
		c-364,107-490,240-490,513c1,211,100,366,296,459C1953,7307,2109,7325,2270,7296z M4591,7282c94-25,213-84,297-147
		c34-26,62-49,62-52c0-9-91-135-118-165c-36-39-72-36-150,13c-35,22-94,52-131,67c-59,23-80,26-196,26c-102,1-142-3-185-18
		c-185-63-307-186-366-370c-35-109-44-285-20-407c31-159,129-314,244-388c73-46,156-72,257-78c163-10,284,25,404,116
		c30,22,65,41,77,41c15,0,47-27,98-81c88-93,88-89-1-168c-77-67-210-136-319-163c-129-33-372-32-493,0c-239,65-415,208-522,427
		c-77,158-94,243-93,465c0,172,2,191,28,274c73,239,213,416,416,524c82,44,212,87,305,102C4282,7315,4503,7305,4591,7282z
		 M6870,7280c47-11,132-44,190-72c94-46,116-63,205-152c111-112,152-175,201-306c124-330,64-718-151-970c-107-126-272-227-441-271
		c-172-44-397-35-569,22c-137,46-226,101-330,204c-97,97-147,174-195,298c-49,124-63,206-63,362c0,200,38,346,130,505
		c53,91,199,234,293,287c87,49,227,98,320,112C6560,7314,6771,7305,6870,7280z M13290,7296c95-17,210-62,282-110c87-57,86-54,38-148
		c-24-46-50-91-58-100c-25-29-80-22-147,18c-124,75-240,99-358,74c-168-34-245-221-139-333c43-46,97-72,272-132c91-31,201-74,245-95
		c221-106,304-309,238-575c-94-379-575-531-1001-316c-80,40-182,115-182,133c0,19,101,178,120,188c36,19,76,10,139-30
		c177-114,309-144,455-103c74,21,145,85,164,149c17,57,15,140-4,180c-36,76-110,118-314,179c-364,107-490,240-490,513
		c1,211,100,366,296,459C12973,7307,13129,7325,13290,7296z M9255,7265c292-73,444-260,445-546c0-234-107-414-300-507
		c-135-64-187-73-427-79l-213-5v-314v-314h-170h-170v896v896l383-5C9123,7284,9196,7280,9255,7265z M11700,7160v-130h-395h-395v-250
		v-250h310h310v-130v-130h-310h-310v-250v-250h395h395v-135v-135h-565h-565v895v895h565h565V7160z M6267,4384c-53-8-149-28-212-44
		c-842-217-1481-910-1625-1763c-11-66-20-138-20-160c-1-69-16-21-29,93c-15,129-66,332-116,465c-282,752-940,1286-1735,1409
		c-72,12,213,14,1875,14C6133,4398,6353,4396,6267,4384z M10667,4384c-53-8-149-28-212-44c-842-217-1481-910-1625-1763
		c-11-66-20-138-20-160c-1-69-16-21-29,93c-15,129-66,332-116,465c-282,752-940,1286-1735,1409c-72,12,213,14,1875,14
		C10533,4398,10753,4396,10667,4384z M15067,4384c-53-8-149-28-212-44c-842-217-1481-910-1625-1763c-11-66-20-138-20-160
		c-1-69-16-21-29,93c-15,129-66,332-116,465c-282,752-940,1286-1735,1409c-72,12,213,14,1875,14C14933,4398,15153,4396,15067,4384z
		 M6911,3292c94-25,213-84,297-147c34-26,62-49,62-52c0-9-91-135-118-165c-36-39-72-36-150,13c-35,22-94,52-131,67
		c-59,23-80,26-196,26c-102,1-142-3-185-18c-185-63-307-186-366-370c-35-109-44-285-20-407c31-159,129-314,244-388
		c73-46,156-72,257-78c163-10,284,25,404,116c30,22,65,41,77,41c15,0,47-27,98-81c88-93,88-89-1-168c-77-67-210-136-319-163
		c-129-33-372-32-493,0c-239,65-415,208-522,427c-77,158-94,243-93,465c0,172,2,191,28,274c73,239,213,416,416,524
		c82,44,212,87,305,102C6602,3325,6823,3315,6911,3292z M2360,3216c95-17,210-62,282-110c87-57,86-54,38-148c-24-46-50-91-58-100
		c-25-29-80-22-147,18c-124,75-240,99-358,74c-168-34-245-221-139-333c43-46,97-72,272-132c91-31,201-74,245-95
		c221-106,304-309,238-575c-94-379-575-531-1001-316c-80,40-182,115-182,133c0,19,101,178,120,188c36,19,76,10,139-30
		c177-114,309-144,455-103c74,21,145,85,164,149c17,57,15,140-4,180c-36,76-110,118-314,179c-364,107-490,240-490,513
		c1,211,100,366,296,459C2043,3227,2199,3245,2360,3216z M15710,3200c47-11,132-44,190-72c94-46,116-63,205-152
		c111-112,152-175,201-306c124-330,64-718-151-970c-107-126-272-227-441-271c-172-44-397-35-569,22c-137,46-226,101-330,204
		c-97,97-147,174-195,298c-49,124-63,206-63,362c0,200,38,346,130,505c53,91,199,234,293,287c87,49,227,98,320,112
		C15400,3234,15611,3225,15710,3200z M20160,3200c47-11,132-44,190-72c94-46,116-63,205-152c111-112,152-175,201-306
		c124-330,64-718-151-970c-107-126-272-227-441-271c-172-44-397-35-569,22c-137,46-226,101-330,204c-97,97-147,174-195,298
		c-49,124-63,206-63,362c0,200,38,346,130,505c53,91,199,234,293,287c87,49,227,98,320,112C19850,3234,20061,3225,20160,3200z
		 M10640,2825v-385h420h420v385v385h165h165v-895v-895h-165h-165v395v395h-420h-420v-395v-395h-170h-170v895v895h170h170V2825z
		 M24190,2455v-755h360h360v-140v-140h-525h-525v895v895h165h165V2455z"/>
	<path d="M12150,10544c-202-43-343-188-401-409c-27-105-29-296-4-405c63-277,267-440,550-440c271,0,472,158,541,425
		c25,96,25,323,1,415c-74,276-271,431-547,429C12249,10559,12186,10552,12150,10544z"/>
	<path d="M9650,10261v-301h108c198,1,310,30,380,99c55,56,75,106,80,203c4,80,2,93-23,143c-30,63-70,97-147,127c-44,18-81,22-225,26
		l-173,4V10261z"/>
	<path d="M6480,7014c-202-43-343-188-401-409c-27-105-29-296-4-405c63-277,267-440,550-440c271,0,472,158,541,425
		c25,96,25,323,1,415c-74,276-271,431-547,429C6579,7029,6516,7022,6480,7014z"/>
	<path d="M8760,6710v-320h158c178,0,249,13,322,60c72,47,116,126,126,228c18,171-79,308-242,341c-32,6-126,11-211,11h-153V6710z"/>
	<path d="M15320,2934c-202-43-343-188-401-409c-27-105-29-296-4-405c63-277,267-440,550-440c271,0,472,158,541,425
		c25,96,25,323,1,415c-74,276-271,431-547,429C15419,2949,15356,2942,15320,2934z"/>
	<path d="M19770,2934c-202-43-343-188-401-409c-27-105-29-296-4-405c63-277,267-440,550-440c271,0,472,158,541,425
		c25,96,25,323,1,415c-74,276-271,431-547,429C19869,2949,19806,2942,19770,2934z"/>
</g>
<path d="M1886.6,745.7c32.2-13.6,67.7-19.2,102.6-16.8c34.2,2.6,67.7,12.9,97.2,30.4c26.4,15.6,49.7,36.6,67.8,61.4
	c21.1,28.9,35.3,62.9,40.6,98.3c4.1,28.1,3.3,57-3.5,84.6c4.4,8.5,6.6,18.4,5.1,27.9c-1.7,14.4-10.9,27.5-23.7,34.2
	c-2.9,2-7.3,2-9.3,5.2c-23.4,37.5-57.9,67.9-98.2,86c-8.4,3.9-17.2,7-26,10c-0.5,0.1-1.4,0.3-1.8,0.4c-42.4,13-88.6,12.5-130.9-0.5
	c-31.7-10-61.2-27-85.5-49.6c-23.3-21.5-42-48-54.5-77.2c-5.5-12.8-9.5-26.2-12.8-39.8c-5.8-3.6-12.9-4.6-19.6-3.8
	c-13.9,1.4-27,6.5-40.4,9.9c9.6-7.1,20-12.9,30.8-17.8c-17.2,0.2-34,4.3-50.7,8.1c-4.5,1.1-8.9,2.2-13.4,3.5
	c17.2-18.4,39.7-30.8,63-39.7c-8-1-16-2-23.6-4.7c-7.1-2.4-13.8-6.1-19.7-10.6c5.8-0.2,11.5,0.2,17.3-0.5
	c17.7,0.1,36.3-0.8,52.1-9.7c2.9-38.4,16.1-75.9,37.8-107.7C1811.6,791.2,1846.5,762.4,1886.6,745.7z"/>
<path d="M1948.3,736.9c28.4-2.9,57.4-1,84.9,7.1c58,16.5,108.2,58.6,134.6,112.8c13.1,26.3,20.7,55.3,22,84.6
	c-0.2,6.1,0.9,12.3,0.1,18.4c-0.2,12.1-1.8,24.1-4,35.9c-1.6-1.5-3.3-3-5-4.4c2.4-15.7,4.2-31.6,3.2-47.4c-0.2-4.1-0.4-8.3-0.8-12.4
	c-3.3-32.9-14.4-65-32.4-92.8c-18.1-28.2-43-52-71.9-68.9c-30-17.5-64.4-27.6-99.1-28.4c-4.2-0.6-8.4-0.2-12.6-0.3l-0.6,0.4
	c-36.5,0.5-72.6,11.7-103.7,30.6c-30.5,18.7-56.2,45.1-73.8,76.2c-13.6,23.7-22.4,50.2-25.9,77.3c-1.6,2-4.1,3.1-6.2,4.4
	c4-40.4,20-79.5,45.1-111.4c26.2-33.4,62.3-59,102.7-72.3C1919,741.8,1933.6,738.6,1948.3,736.9z"/>
<rect x="1889.1" y="768.1" class="st0" width="23.3" height="26.7"/>
<path class="st1" d="M2075.1,796.4c0.9-1.5,2.5-2.2,4-2.9c1.3,0.6,2.5,1.1,3.8,1.8c0.7,1.9,1.5,4.1,0.2,5.9c-2,3-4.1,6-6.2,8.9
	c-2,2.4-5.6,2.5-7.9,0.6c-0.3-0.9-0.7-1.9-1-2.8C2069.6,803.7,2072.6,800.2,2075.1,796.4z"/>
<path class="st2" d="M1909.8,812.8c29.5-13.5,63.4-17.1,95.1-10.4c30.6,6.4,59.1,22.6,80.4,45.5c11.7,12.6,21.3,27,28.3,42.6
	c4.8,11.2,8.6,22.8,10.6,34.8c-15.9-3.1-31.7-7.4-47-12.8c-7.3-2.6-14.5-5.5-21.3-9.2c-1.1-0.6-2-1.3-2.8-2.2
	c-3.1-3.7-6.2-7.3-9.2-10.9c-0.8-1.4-2.4-0.9-3.7-1c-0.3-1.5-0.5-3-0.7-4.5c-3-3.1-3-7.5-3.1-11.5c-1.3-12.2-0.6-24.8-4.3-36.6
	c-4.7-10.5-14.4-19-25.9-21c-8.1-1.3-16.6-0.6-24.5,1.6c-14.7,4.1-28.2,11.7-40.9,20c-11.5,7.6-22.5,16-33.1,24.8
	c-13.1,0.7-25.2,6.3-36.8,12.2c-7.6,3.7-15.1,7.7-23.4,9.5c-4.1,0.5-8.3,0.8-12.3,1.8C1850.6,853.5,1877.5,827.4,1909.8,812.8z"/>
<path class="st2" d="M1960.9,840.6c11.6-6.7,24-13,37.5-14.5c8.6-1.2,18.2,1.4,23.5,8.5c4.4,4.8,4.8,11.5,5.4,17.6
	c0.8,6.1,0.4,12.4,1.4,18.5c-2.4,0.5-4.8,1.1-7.2,1.3c-1.3-0.6-2.5-1.2-3.6-2c-0.4-1.7-0.7-3.4-0.9-5.1c-9.8,1.8-20.2,3.9-28.2,10.2
	c-4,3.1-6.4,7.9-7.3,12.8c0,1.5,0,3,0.1,4.5c1.4,1.1,3.3,0.8,5,1.2c-2.3,4.2-4.3,8.6-5,13.4c0,0.8,0,2.5,0,3.3
	c3.8-0.6,7.1-2.8,10.7-4.1c-0.2,0.9-0.5,2.6-0.6,3.4c-0.1,1.2-0.1,2.3-0.2,3.5c0.7,1.9,1.7,3.6,2.7,5.3c5.2-1.1,9.7-4.1,14.6-5.9
	c-0.1,0.7-0.4,2.2-0.6,2.9c0.2,0.6,0.6,1.7,0.8,2.3c5.3-1.3,10.4-3.6,14.8-6.7c5.8-3.8,11.5-8.7,18.6-9.6c4,2.5,5.8,7.7,10,10.1
	c6.8,4.1,14.2,7.2,21.6,10c15.2,5.7,30.9,10.1,46.8,13.5c8.3,1.8,16.7,3,24.7,5.8c4.5,1.6,9,4.4,11,8.9c3.7,8.9,3.7,19.5-0.7,28.2
	c-3.9,7.3-11,13.2-19.2,14.8c-33,7.6-66.5,12.8-100,17.2c-10,1.1-19.9,2.3-29.9,3.1c-23,2.1-46.1,3.2-69.3,2.9
	c-7.6,0.1-15.2-0.1-22.6-1.8c-2.9-1.1-5.9-2.3-8-4.7c-2.9-2.8-3.7-6.8-4.4-10.6c-1.2-6.9-2.9-13.8-3.1-20.8c-0.3-6.1,1.8-12,3-17.9
	c3.6-17.9,6.4-36,11-53.7c0.6-2.2,0.3-4.5,0.9-6.6c2.4-10.1,5.3-20,7.9-30c0.3-0.9,0.4-1.9,1.2-2.5
	C1935.2,857.7,1947.6,848.4,1960.9,840.6z"/>
<path class="st3" d="M1990.5,882.5c7.7-6.6,17.3-9.9,26.8-12.9l0.7,0.5c1.1,0.8,2.3,1.4,3.6,2c-10.5,4.2-20.7,9.2-31.1,13.7
	C1990.4,884.7,1990.4,883.6,1990.5,882.5z"/>
<path class="st2" d="M1854.2,894.5c19.9-4,36-19.1,56.5-21.2c-2.4,9.7-5.2,19.2-7.6,28.9c-0.7,3-0.6,6.2-1.5,9.2
	c-5.3,20.7-8,41.9-13,62.7c-1.3,6.2-0.6,12.7,0.6,18.9c0.6,4.1,1.5,8.3,3.1,12.2c-6.8,0.3-13.5,2.6-19.3,6.2
	c-6.6,3.9-11.6,10.8-19.6,12c-10,0.7-18.6-5.7-28.4-6.5c-3.6,0-6.9,1.8-10.4,1.6c0.7-0.5,1.3-1,2-1.4c5-2.6,10-5.7,15.7-6.5
	c7-0.8,14-1.3,20.9-2.4c3.8-0.7,7.3-2.5,10.2-5c3.8-3.2,10-3.9,11.8-9.2c0.4-3.8-0.4-9.8-5.1-10.3c-4,0.6-7.3,3.2-10.4,5.7
	c-5.1,4-9.8,8.8-15.3,12.3c-2.5,1.7-5.6,1.2-8.5,1.3c-4.2-0.1-8.2-1.7-12.4-2c-6.3,0.7-12.4,2.8-18.4,4.9c-4.6,1.4-9.3,3-14.2,2.7
	c-6.6-0.2-12.9-2.6-18.8-5.5c4-0.1,8.1,0.2,12.1-0.4c13.5-1.9,25.7-8.5,38.9-11.7c4.2-1.2,8.7,0,12.9-1.6
	c6.2-2.2,12.1-7.3,12.9-14.1c0.4-2.6-0.6-5.1-1.8-7.3c-3.7-3.4-8.9-1.3-12.8,0.7c-11.1,6.3-20.2,15.4-31.2,21.8
	c-3,1.7-6.4,2.7-9.8,2.6c-7.4-0.2-14.4-2.5-21.6-3.7c-6.7-1.2-13.5-1-20.2-0.7c12.7-6.2,27.2-5.5,40.8-8c5-1,10.4-1.6,14.5-4.9
	c1.6-1.2,1.7-3.3,2-5.1c-1.7-4.8-5.7-9.4-11.1-9.5c-8.4,0.3-15.4,5.6-22.2,10c-4.7,3-9.4,7.4-15.4,6.7c-6.2-0.8-12.2-2.9-18.5-2.8
	l-0.5-0.4c-6-0.1-12.1,0.5-18,1.6c5-3.1,10.1-6.4,15.8-8c6.8-2,14-1.2,20.8-2.4c11.5-3.2,18.9-13.5,29.1-19c3.1-1.5,6.6-2.7,10-2
	c8.7,1.4,13.8,9.9,22.1,12.1c7.4,1.8,15.1-1,21.1-5.3c3.3-2.3,5.9-5.5,6.8-9.4c-1.5-4.2-6.7-5-10.5-4.6c-6.4,0.6-10.2,6.5-15.7,9.2
	c-8.1-0.9-14-7.1-21.5-9.7c-4.8-1.2-10.3-0.6-14.2,2.7c-6.2,5-12.7,10-20.4,12.2c-9,2.9-18.7,1.5-27.5-1.5
	c9.2-0.9,18.5-2.9,26.5-7.8c9.8-5.8,17-16.2,28.7-18.4c6.5-1.7,12.9,1.2,18.5,4.3c3.5,1.8,7.4,3.9,11.5,3.1
	c6.2-1.4,10.6-6.2,15.8-9.4c2.5-1.6,5.8-1.7,7.7-4.2c1.6-1.3,1-3.4,1.2-5.2c-1.6-1.8-3.8-3.2-6.3-2.7c-8.1,0.7-12.9,8.6-20.4,10.7
	c-2.9,0.6-5.6-0.7-8.3-1.5c-4.4-1.5-9.1-2.7-13.8-2.5c-4.3-0.2-8.5,1.3-12.7,2c2-1.8,3.9-3.6,6.4-4.7c5.9-2.7,12.6-1.5,18.8-2.9
	c5.7-1.4,10-5.5,14.8-8.5c5.1-3.4,10.8-6,16.8-7.1C1847.4,895,1850.9,895.2,1854.2,894.5z"/>
<path class="st4" d="M1996,894.2c7-5,13.8-10.7,21.8-13.9c-1.8,2.1-3.9,3.9-6,5.5c-8.3,6.4-16.7,12.6-25.2,18.6
	C1988.2,899.9,1992.5,897.2,1996,894.2z"/>
<path class="st5" d="M2025,888.2c2.4-0.8,5-1.1,7.4-0.5c0.2,4.5-4.1,7.1-7,9.9c-9,7.2-19.4,12.2-30,16.5c0.6-4.4,2.1-8.6,3.7-12.7
	C2007.4,896.5,2015.7,891.3,2025,888.2z"/>
<path class="st6" d="M1940.6,936.4c2.2-7.4,9.5-11.7,16.8-12.6c5.8-0.4,12.1,0.6,16.7,4.4c3.2,2.4,4.4,6.4,5.5,10.1
	c1.8,0,3.6,0,5.4,0.2c0.3-4.7,4.3-8.3,8.5-9.8c2.6-1.1,5.1,0.4,7.3,1.5c1.9-0.9,3.6-2.7,6-2.4c2-0.2,4,1.7,5.9,0.6
	c2.8-1.6,6.4-2,9.3-0.2c2.9,1.4,3.9,4.7,4.7,7.6c5.9-2.1,13-2.5,18.2,1.5c1.5-0.7,3-1.4,4.5-2.1c1.1-5,6.6-8.4,11.6-7.1
	c5.5,1.2,9,8.1,5.5,12.9c0.9,2.9,1.1,6,0,8.9c2.2,2.2,4.6,4.8,4.1,8.2c0.4,4.6-3,8.2-6.5,10.6c2.2,3.4,0.9,7.5,2.1,11.1
	c0.8,3.5,0.2,7.5-2.6,10c-3.9,4.1-10,3.5-15.1,4.5c-0.9-0.6-1.9-1.2-2.8-1.8c-5.2,2.4-11.6,2.9-16.4-0.7c-1.9,1.8-4.2,3.1-6.6,3.8
	c-2.5,3.5-5.9,7-10.3,7.8c-4.3,0.2-7.3-3.7-8-7.6c-4.3,1.4-8.7,0.7-12.9-0.7c-3.7,2.9-8.7,3.3-13.1,1.8c-1.9,3.6-4.5,7-8.2,8.8
	c-8,4-18.9,2.7-24.6-4.6c-4.8-5.9-4-15.1,1.6-20.2c-0.8-1.8-1.5-3.7-1.8-5.7c-1.1-0.3-2.2-0.7-3.4-1c-1.1,0.6-2.1,1.1-3.2,1.7
	c-5.6,0-11.4-0.6-16.9,0.9c-1.6-1.1-3.4-2-4.4-3.7c-1-1.7-0.8-3.8-0.8-5.6c-7.2-2.1-9.6-12.2-4.6-17.6c3.1-3.3,7.9-3.9,12.2-3.7
	c2.7-1.3,6-3.1,8.9-1.1c3.7,1.6,3.1,6.1,5,9c2.8,1.9,5.9-0.8,8.9-0.8C1940.8,950.3,1939.1,942.6,1940.6,936.4z"/>
<path class="st7" d="M1954.2,930.1c4.9-1.5,10.5-1.3,15,1.3c4.7,2.6,6.2,9.6,3,13.9c-1.3,1.8-3.6,2.5-5.5,3.3
	c2.4,6.3,6.1,13.5,13,15.5c4,1.1,7.2-2.9,11.1-2.5c2.2,0.1,2,2.8,2.2,4.3c-3.6,5.6-11.4,6.5-17.1,3.7c-5.7-2.9-9.3-8.6-11.6-14.3
	c-0.9-2.3-1.6-4.6-2.4-7c-0.4,0.1-1.1,0.1-1.5,0.2c0.1,1.4,0.2,2.8,0.3,4.2c0.9,0.4,1.8,0.8,2.7,1.2c-0.2,1-0.5,2.1-0.7,3.1
	c-1.6,2.8-4.1,5.1-6.9,6.7c-0.8-0.8-1.8-1.4-2.4-2.4c0.7-1.9,2.2-3.5,2.2-5.6c0.1-3.6-0.4-7.2-0.3-10.8c0.1-2.2-1.4-3.8-2.6-5.5
	c1.8-2.4,4.8-2,7.4-1.9c0.3,0.5,0.5,0.9,0.8,1.4c-0.4,1.9-0.5,3.8-0.6,5.8c2.4,0,5.3,0.3,6.8-1.9c2.4-2.7,0.2-6.9-3-7.9
	c-4.8-1.6-11.8-0.4-13.7,4.9c0.8,3,3.8,5.2,3.6,8.5c-1.3,0.5-2.6,1.6-4.1,0.8c-3.9-2-5.3-7.2-4-11.2
	C1946.9,934,1950.5,931.2,1954.2,930.1z"/>
<path class="st8" d="M2015.6,932.8c1.3-0.5,2.7-0.2,4-0.1c1.1,2,1.9,5.1-0.2,6.7c-1.7,0.6-4.1,0.5-4.9-1.4
	C2013.3,936.3,2014.4,934.1,2015.6,932.8z"/>
<path class="st9" d="M1990.4,937.9c1.1-2.3,3.5-3.5,5.7-4.5c3,6.8,1.3,14.6,2.6,21.8c0.7,0.9,1.6,1.7,2.4,2.5c0,0.5,0.1,1.4,0.1,1.8
	c-2.9,1.4-6.2,1-9.3,0.8c0-0.5-0.1-1.5-0.1-2c0.6-0.9,1.2-1.8,1.6-2.8c-0.1-4.9-0.8-9.8-0.7-14.8
	C1992,939.8,1989.9,939.5,1990.4,937.9z"/>
<path class="st9" d="M2001.8,936.5c1.7-1.5,3.5-3.1,5.8-3.5c1.8,4,1.5,8.4,1.9,12.7c0.3,3.8-0.8,8.2,2.3,11.1c1,0,2,0,3,0
	c0.4-0.5,1.2-1.4,1.6-1.9c0-2.5,0-5-0.1-7.5c-0.7-0.2-2.2-0.5-3-0.7c0.7-3,3.4-4.8,6.1-5.9c1.8,4.2,1,9,1.8,13.4
	c0.9,0.9,1.8,1.9,2.7,2.8c0,0.4-0.1,1.2-0.1,1.6c-2.7,0.5-5.4,0.7-8.2,0.8c-0.9-0.6-1.7-1.3-2.5-1.9c-2,3.8-7,2.6-10.4,1.9
	c0.7-2,2.4-3.8,2.1-6.1c-0.2-3.6-0.4-7.2-0.6-10.8c-0.1-0.9-0.2-1.7-0.3-2.6C2002.1,939.5,2001.9,937.9,2001.8,936.5z"/>
<path class="st10" d="M2055.2,935.1c1.7-3.3,7.9-1.7,7,2.2c-1.1,2-3.4,1-5.2,1.1c1.9,2.6,5.7,5,4.4,8.8c-1.5,3.5-5.9,3.8-9,4.8
	c-0.2,0.4-0.5,1.1-0.7,1.4c3.4,1.8,7.3-1,10.7,0.7c1.7,0.6,2.3,2.4,3,3.9c-1.2,5.8-7.7,8-12.9,7.6c-2.2-0.4-5.2-0.7-6.3-2.9
	c-1-2,0.9-4.5,3-4.1c1.9,1.3,3.5,3,5.6,4c1.9-0.7,5.4-1,4.7-3.9c-1-1.4-3-1.3-4.5-1.1c-2.3,0.2-4.6,0.2-6.9,0.1
	c-0.6-0.6-1.2-1.2-1.8-1.8c0-0.8,0-1.5,0-2.3c0.9-0.8,1.8-1.7,2.8-2.5c-1.1-1.2-2.7-2.1-3-3.8c-0.6-1.9,0.5-3.6,1.2-5.3
	c2.5-1.4,5.3-2.2,8.2-2.6C2055.1,938.1,2053.9,936.4,2055.2,935.1z"/>
<path class="st3" d="M2033,942c2-1.3,4.7-3,7-1.4c2.5,1.7,2.2,5,2.4,7.7c-0.1,2.3,2.3,3.4,2.5,5.5c-2.1,2.2-4.2,6-7.8,4.6
	c0.7-4.4,1.8-9.1-0.2-13.3c-1.3,0.3-2.5,0.7-3.8,1c-0.3,1.8-1,3.5-0.7,5.3c0.2,2.4,2.5,3.8,3.6,5.8c-2.9,1.4-6.1,1.4-9.3,1.3
	c-0.3-0.4-1-1.2-1.3-1.6c0.8-0.8,1.6-1.7,2.5-2.4c0.2-0.7,0.5-1.3,0.7-2c-0.4-1.8-0.5-3.6-0.6-5.5c-0.6-0.1-1.9-0.4-2.5-0.5
	c0-1.3,0.3-2.5,0.8-3.7c1.4-1,2.8-1.9,4.3-2.9c0.9,1,1.5,2.2,2.1,3.4C2032.7,943.1,2032.9,942.4,2033,942z"/>
<path class="st11" d="M2050.6,945.5c0.6-2.4,3.4-2.2,5.3-1.9c0.6,0.9,1.1,1.9,1.5,3c-1.3,0.8-2.8,1.4-4.2,2
	C2052.2,947.8,2049.8,947.3,2050.6,945.5z"/>
<path class="st12" d="M1977.8,944.4c3.7-1.8,8.7-0.6,10.6,3.2c1.7,3.8,1.8,8.8-1.3,11.8c-2.3,2.5-6.2,2.3-9.2,1.5
	C1971.5,958.1,1971.4,947.2,1977.8,944.4z"/>
<path class="st13" d="M1960.4,948.6c0.4-0.1,1.1-0.1,1.5-0.2c0.8,2.3,1.5,4.7,2.4,7c-0.6,0.6-1.1,1.1-1.7,1.7c0.3-1,0.5-2.1,0.7-3.1
	c-0.9-0.4-1.8-0.8-2.7-1.2C1960.6,951.4,1960.5,950,1960.4,948.6z"/>
<path class="st14" d="M1978.8,948.7c1.8-2,5.5-0.7,5.8,1.9c0.3,2.2,0.7,5.1-1.7,6.4c-1.6,0.2-3.9,0.4-4.6-1.4
	C1977.4,953.5,1977.2,950.5,1978.8,948.7z"/>
<path class="st15" d="M1926.6,951.9c1.2-1.3,2.7-2.2,4.5-1.8c0,1.5,0.2,3.3-1.3,4.3c-1.3,0.3-2.7,0.3-4,0.5c0.2,3.2,0.2,6.4,0.4,9.6
	c0.6,0.7,1.1,1.4,1.7,2.1c-1.6,2.1-3.2,4.9-6.3,4.7c0.6-3.4,2.4-7.2,0.1-10.3c-1.4,2.1-4.9,1.8-6.2-0.2c-1.9-2.2-1.5-6,0.9-7.6
	C1919.5,950.9,1923.3,952.2,1926.6,951.9z"/>
<path class="st16" d="M1917.5,958.4c0.4-1.3,0.1-3.2,1.7-3.7c1.1-0.2,2.2-0.3,3.3-0.3c0.1,1.6,0.2,3.3,0.3,4.9
	C1921.2,958.4,1919.3,958.5,1917.5,958.4z"/>
<path class="st17" d="M1929.9,954.3c0.6,0.2,1.8,0.7,2.4,0.9c0.3,1.7,0.3,3.5,0.5,5.3c1.9-1,3.8-1.3,5.7-0.1
	c0.2,1.6,0.4,3.2,0.5,4.8c0.5,0.7,1,1.4,1.5,2.2c-0.9,1.1-1.9,2.2-2.9,3.2c-0.6-0.1-1.8-0.4-2.4-0.5c0.9-2.4,1.5-5.3-0.1-7.5
	c-0.8,0.3-1.5,0.6-2.2,1c0,1.2,0.1,2.3,0.2,3.5c0.6,1,1.2,1.9,1.9,2.9c-2,0.3-4,0.5-6,0.5c0-0.3-0.1-1-0.2-1.3
	c0.5-0.8,1-1.6,1.5-2.4c-0.6-2.6-0.6-5.2-0.6-7.8C1926.7,958.3,1929.3,955.9,1929.9,954.3z"/>
<path class="st18" d="M1943.7,959.4c2.6-0.5,6.1-0.3,6.7,2.9c1,3.6-3.8,3.2-6.1,3.3c0.1,0.4,0.4,1.1,0.5,1.5c1.9,0,3.7-0.9,5.6-1.1
	c0.6,4.6-7.3,5.2-8.5,1.2C1940.4,964.3,1941.6,961.3,1943.7,959.4z"/>
<path class="st19" d="M1943.2,962.3c1.6-0.5,3.2-0.9,4.8-1.3C1948.3,964,1944.6,964.3,1943.2,962.3z"/>
<path class="st9" d="M1960.9,967c1.7,0.3,3.3-2,5-0.7c2.2,1.9,3.6,4.9,3.5,7.8c-0.7,0.6-1.6,1-2.4,1.5c-2.1-1.8-4.2-3.6-6.8-4.5
	c-1,0.4-2,0.7-3.1,1.1c-0.1,1.3-1.5,2.9,0.2,3.7c4.3,2.5,9.6,3.1,13.6,6.3c2.3,3.1,3.2,7.1,2.8,10.9c-2.5,9.6-16,12.2-22.9,5.9
	c-4.3-3.6-4.4-11.8,0.8-14.6c2.7-1.7,6.7-1.7,8.8,1c-0.4,0.9-0.8,1.8-1.1,2.7c-1.9,0.6-4.1,0.7-5.4,2.4c-0.6,2.4,0.3,5.2,2.7,6.1
	c3.1,1.4,7.4,1.1,9.9-1.5c2.8-3.2,2-8.8-1.8-10.8c-3.7-2-8.1-2.7-11.6-5.1c-2.8-1.9-3.2-6-1.2-8.6
	C1953.6,967.7,1957.4,966.6,1960.9,967z"/>
<path class="st20" d="M2048.1,971.2c2.3-2,5.7,0,8-1.9c0.4,0,1.3,0,1.7,0c1.1,1.8,2,3.7,2.7,5.7c-2.4,2.2-4.9,0-7-1.4
	c-0.4,0.1-1.2,0.1-1.5,0.2c0,0.7,0,1.3,0,2c2.7,1.3,6.1,1.6,8.3,3.8c1.7,1.8,0.5,4.2,0,6.2c-2.2,1.9-5,2.4-7.8,1.9
	c-1,0.5-2.1,1.5-3.3,1c-2-1.7-3.3-4.1-3.2-6.7c3-1.6,5.4,1.4,8.1,2.3c2,0.8,1.5-1.7,1.8-2.7c-2.8-0.9-5.7-1.8-8.3-3.1
	c-0.3-0.5-0.9-1.4-1.2-1.9C2046.2,974.5,2046.6,972.5,2048.1,971.2z"/>
<path class="st9" d="M2015,974c2.3-1.4,5.2-2.9,7.8-1.4c5.1,2.9,5.7,10.6,2.4,15.1c-1.6,2.6-5.5,3.3-7.9,1.5c-1.4-0.7-1.5-3.1-0.3-4
	c1.2-0.2,2.4-0.3,3.6-0.2c1.9-1.9,2.4-4.5,1.2-6.9c-0.5-0.3-1.4-1-1.9-1.3c-1.8,0-4.1,0.5-4.5,2.5c-0.3,2.8-0.1,5.6,0,8.4
	c0,1.6,1.6,2.4,2.3,3.7c0.4,1.3-0.9,2.2-1.5,3.1c-1.6,1.5-3.3,3.8-5.9,3.1c-1-2.3,0.4-4.7,0.4-7c-0.2-3.8-0.6-7.5-0.5-11.3
	c-0.8-0.4-1.6-0.8-2.4-1.2c-0.1-0.5-0.2-1.4-0.3-1.9c1.6-1.8,3.4-3.8,6-3.9C2014,972.8,2014.7,973.6,2015,974z"/>
<path class="st3" d="M2031.7,973.1c3.4-3.5,10.2-2.8,12.4,1.8c0.8,1.8,1.4,4.9-0.9,5.8c-2.8,1.4-5.9,1-8.9,1
	c0.1,0.4,0.2,1.3,0.3,1.7c3.3,2.4,6.4-1,9.8-0.9c0.1,1,0.3,2.1,0.2,3.2c-1.2,2.2-3.9,2.7-6.1,3.5c-4.1,0.1-8.3-2.6-9-6.9
	C2028.5,979.2,2029.4,975.5,2031.7,973.1z"/>
<path class="st21" d="M1992.3,976.2c2.1-3.2,6.5-3.4,9.8-2.4c4.1,1.5,4.9,6.5,4.8,10.3c-0.7,2.3-1.7,4.8-4,5.9
	c-2.2,1.3-4.9,0.8-7.3,0.9C1990.3,988.3,1988.6,980.9,1992.3,976.2z"/>
<path class="st22" d="M1977.8,975.9c1.5-1.4,3.6-1.7,5.5-2.2c1.8,0.6,3.8,1,5.1,2.4c1,1.4,0.7,3.5-0.8,4.3c-2.3-0.9-4.5-2.1-7.1-1.8
	c-1.4,2.5-2.1,6.3,0.6,8.3c2.8,1.4,5.5-1.5,8.4-1c0.1,1.5,0.8,3.5-0.9,4.4c-2.2,2.1-5.5,2.2-8.4,1.7
	C1974.1,989.6,1972.8,980,1977.8,975.9z"/>
<path class="st23" d="M2034.9,975.4c2.1-0.5,5.2-1,5.4,2.1c-2.2,0.6-4.6,1-6.9,1.1C2033.8,977.5,2034.3,976.4,2034.9,975.4z"/>
<path class="st24" d="M1996.5,977.8c1.4-0.7,3-0.2,4.5,0c1.1,2.1,2,4.5,1,6.9c-0.9,2.9-5.6,3-6.6,0.1
	C1995,982.4,1994.5,979.5,1996.5,977.8z"/>
<path class="st2" d="M2145.1,1002c5.9-1.4,10.2-6,14.7-9.5c8.3,0.9,16.1,4.8,21.9,10.7c5.1,5.6,8.5,13,8.2,20.7
	c0.5,10.2-4.9,20-12.8,26.3c-13.3,10.9-34.3,11.1-47.4-0.2c-7.8-6.5-12.2-16.9-10.9-27c0.6-6.1,3.2-11.9,7-16.8
	C2132.3,1005.1,2138.7,1003.4,2145.1,1002z"/>
<path d="M1763.5,1009.1c2.4,2.4,4.8,4.9,7.3,7.3c1.8,1.5,2.1,4,2.9,6.1c11.9,33.6,32.4,64.1,59.1,87.8c23.8,21.2,52.3,37,83,45.6
	c35,9.9,72.5,10.6,107.7,1.8c50-12.1,94.9-43.4,123.8-85.9c2.5-0.3,4.9-0.6,7.4-0.7c-29.5,45.2-76.3,78.9-128.8,91.8
	c-12.6,3.3-25.6,5.3-38.5,6.1c-17.8,1.2-35.7,0.1-53.3-3.1c-34.5-6.2-67.4-21.2-95-42.9C1802.6,1094.5,1775.5,1054,1763.5,1009.1z"
	/>
<path class="st2" d="M2094.7,1012.1c1.1-0.1,2.2-0.5,3.2-0.3c6.5,5.3,11.1,12.9,12.1,21.2c2.6,16.3-9.1,32.7-24.6,37.3
	c-10.5,3.4-22.5,2-31.6-4.2c-7.2-4.7-12.5-12.2-14.2-20.6c-2-8.4,0-17.6,4.7-24.8c0.6-1.2,2.1-1.1,3.2-1.3
	C2063.3,1017.4,2079,1014.8,2094.7,1012.1z"/>
<path class="st2" d="M1876.5,1039c3.4-10.6,11.8-19.9,22.5-23.3c1.5,4.6,5.1,8.3,9.7,9.7c10.1,3.4,21,2.1,31.5,2.4
	c5.2,7.6,7.9,17.2,5.9,26.4c-2.7,16.2-18.1,29-34.5,29c-11.9,0.6-23.9-5.4-30.6-15.3C1875.3,1059.5,1873.7,1048.7,1876.5,1039z"/>
<path class="st2" d="M1966.7,1027c17.5-0.8,35-2.1,52.4-4.2c6.2,6.3,10.1,14.9,9.8,23.7c-0.1,10.5-5.8,20.4-14.3,26.4
	c-8,5.7-18.4,8-28,5.8c-12.5-2.5-23.1-12.4-26-24.8c-0.8-5.6-0.9-11.3,0.8-16.7C1962.7,1033.6,1964.7,1030.2,1966.7,1027z"/>
<path class="st25" d="M1858.1,1034c1.3-0.6,2.6-1.3,3.9-1.9c-3,7.2-3.8,15-3.4,22.7c-5.1-5.9-9.9-12.1-14.3-18.6
	C1849.1,1036.4,1853.7,1035.7,1858.1,1034z"/>
<path class="st2" d="M1984.1,1092.1c19.1,2.5,39-8.1,47.6-25.3c5.5,7.4,13.3,12.9,22.1,15.6c0,0.2-0.1,0.5-0.1,0.7
	c-29.4,18.1-65,26.1-99.4,21.7c-13-1.6-25.8-4.8-38-9.9c14.1-2.8,26.4-12.4,33-25.2C1956.5,1082.1,1969.8,1090.7,1984.1,1092.1z"/>
<path class="st26" d="M1895.6,1107.8c0.5-0.2,1.4-0.5,1.9-0.7c2.2,0.5,5.5,1.5,5.5,4.3c-0.5,1.8-1.5,3.4-2.4,5
	c-2.5-1.2-4.9-2.4-7.3-3.7C1894,1111,1894.8,1109.4,1895.6,1107.8z"/>
<path class="st27" d="M2027.6,1117.2c2.2-0.9,4.5-1.5,6.8-1c0.9,1.7,1.6,3.6,0.8,5.5c-1.4,1.4-3.4,1.9-5.2,2.4
	C2029.2,1121.7,2028.3,1119.5,2027.6,1117.2z"/>
<rect x="1804.1" y="780.6" class="st0" width="102.5" height="66.7"/>
</svg>
