<?xml version="1.0" standalone="no"?>
<!DOCTYPE svg PUBLIC "-//W3C//DTD SVG 20010904//EN"
 "http://www.w3.org/TR/2001/REC-SVG-20010904/DTD/svg10.dtd">
<svg version="1.0" xmlns="http://www.w3.org/2000/svg"
 width="2641.000000pt" height="1174.000000pt" viewBox="0 0 2641.000000 1174.000000"
 preserveAspectRatio="xMidYMid meet">

<g transform="translate(0.000000,1174.000000) scale(0.100000,-0.100000)"
fill="#000000" stroke="none">
<path d="M0 8070 l0 -3670 983 -1 c888 -1 973 -3 884 -15 -448 -65 -895 -292
-1227 -624 -356 -357 -578 -828 -631 -1339 -15 -141 -6 -429 16 -561 77 -461
278 -860 599 -1189 356 -364 797 -585 1306 -652 137 -18 430 -16 575 5 722
104 1340 547 1665 1196 108 215 185 466 211 680 13 114 28 162 29 95 0 -58 27
-215 56 -329 202 -802 850 -1432 1656 -1610 175 -38 287 -50 483 -49 209 0
357 18 550 68 775 199 1383 811 1580 1590 19 72 39 178 46 235 13 114 28 162
29 95 0 -58 27 -215 56 -329 202 -802 850 -1432 1656 -1610 175 -38 287 -50
483 -49 209 0 357 18 550 68 775 199 1383 811 1580 1590 19 72 39 178 46 235
13 114 28 162 29 95 0 -58 27 -215 56 -329 202 -802 850 -1432 1656 -1610 175
-38 287 -50 483 -49 209 0 357 18 550 68 775 199 1383 811 1580 1590 19 72 39
178 46 235 13 114 28 162 29 95 0 -58 27 -215 55 -325 97 -383 283 -716 559
-999 356 -364 797 -585 1306 -652 137 -18 430 -16 575 5 722 104 1340 547
1665 1196 108 215 185 466 211 680 13 114 28 162 29 95 0 -22 7 -83 15 -135
144 -892 820 -1611 1697 -1804 175 -38 287 -50 483 -49 209 0 357 18 550 68
775 199 1384 812 1580 1590 99 391 86 831 -36 1212 -211 659 -727 1186 -1381
1411 -124 43 -288 82 -433 103 -131 20 -452 17 -599 -5 -946 -138 -1697 -871
-1856 -1809 -11 -66 -20 -138 -20 -160 -1 -64 -16 -25 -24 60 -10 101 -49 281
-86 398 -163 505 -494 927 -950 1210 -251 155 -546 260 -865 306 -131 20 -452
17 -599 -5 -946 -138 -1697 -871 -1856 -1809 -11 -66 -20 -138 -20 -160 -1
-69 -16 -21 -29 93 -15 129 -66 332 -116 465 -282 752 -940 1286 -1735 1409
-64 11 -75 14 -42 15 l42 1 0 1835 0 1835 4790 0 4790 0 0 1835 0 1835 -12655
0 -12655 0 0 -3670z m12540 2740 c47 -11 132 -44 190 -72 94 -46 116 -63 205
-152 111 -112 152 -175 201 -306 124 -330 64 -718 -151 -970 -107 -126 -272
-227 -441 -271 -172 -44 -397 -35 -569 22 -137 46 -226 101 -330 204 -97 97
-147 174 -195 298 -49 124 -63 206 -63 362 0 200 38 346 130 505 53 91 199
234 293 287 87 49 227 98 320 112 100 15 311 6 410 -19z m10318 1 c126 -32
268 -103 360 -181 l24 -20 -56 -89 c-59 -93 -93 -119 -138 -106 -13 4 -54 25
-91 47 -128 74 -263 105 -421 95 -330 -19 -536 -262 -536 -632 0 -203 61 -369
179 -485 121 -119 259 -166 456 -156 114 5 149 12 248 48 l57 20 0 164 0 164
-123 0 c-169 0 -167 -1 -167 141 l0 109 295 0 295 0 0 -364 0 -364 -48 -31
c-179 -114 -421 -171 -682 -158 -146 7 -247 33 -375 97 -166 82 -293 209 -375
375 -79 160 -94 227 -94 440 0 157 3 191 22 264 96 351 350 577 716 637 115
19 347 11 454 -15z m-20008 -126 l0 -135 -265 0 -265 0 0 -755 0 -755 -170 0
-170 0 0 755 0 755 -270 0 -270 0 0 135 0 135 705 0 705 0 0 -135z m1170 -250
l0 -385 420 0 420 0 0 385 0 385 165 0 165 0 0 -895 0 -895 -165 0 -165 0 0
395 0 395 -420 0 -420 0 0 -395 0 -395 -170 0 -170 0 0 895 0 895 170 0 170 0
0 -385z m3280 255 l0 -130 -395 0 -395 0 0 -250 0 -250 310 0 310 0 0 -130 0
-130 -310 0 -310 0 0 -250 0 -250 395 0 395 0 0 -135 0 -135 -565 0 -565 0 0
895 0 895 565 0 565 0 0 -130z m2839 101 c129 -33 206 -74 282 -150 69 -69
100 -129 120 -235 33 -175 -29 -368 -155 -482 -58 -53 -182 -124 -215 -124 -9
0 3 -17 31 -42 29 -26 137 -176 277 -383 l231 -340 -166 -3 c-146 -2 -171 0
-202 16 -29 15 -74 76 -239 328 -126 193 -214 317 -234 332 -28 19 -45 22
-125 22 l-94 0 0 -350 0 -350 -170 0 -170 0 0 896 0 896 373 -5 c342 -4 379
-6 456 -26z m4271 -726 l0 -755 360 0 360 0 0 -140 0 -140 -525 0 -525 0 0
895 0 895 165 0 165 0 0 -755z m1900 0 l0 -755 360 0 360 0 0 -140 0 -140
-525 0 -525 0 0 895 0 895 165 0 165 0 0 -755z m1940 -140 l0 -895 -170 0
-170 0 0 895 0 895 170 0 170 0 0 -895z m1293 855 c19 -19 237 -295 486 -612
249 -318 455 -579 459 -582 4 -2 6 274 4 615 l-2 619 145 0 145 0 0 -895 0
-895 -101 0 c-69 0 -111 5 -132 15 -23 11 -172 194 -507 621 l-475 605 -3
-620 -2 -621 -145 0 -145 0 0 896 0 896 120 -4 120 -3 33 -35z m-17273 -3484
c95 -17 210 -62 282 -110 87 -57 86 -54 38 -148 -24 -46 -50 -91 -58 -100 -25
-29 -80 -22 -147 18 -124 75 -240 99 -358 74 -168 -34 -245 -221 -139 -333 43
-46 97 -72 272 -132 91 -31 201 -74 245 -95 221 -106 304 -309 238 -575 -94
-379 -575 -531 -1001 -316 -80 40 -182 115 -182 133 0 19 101 178 120 188 36
19 76 10 139 -30 177 -114 309 -144 455 -103 74 21 145 85 164 149 17 57 15
140 -4 180 -36 76 -110 118 -314 179 -364 107 -490 240 -490 513 1 211 100
366 296 459 127 60 283 78 444 49z m2321 -14 c94 -25 213 -84 297 -147 34 -26
62 -49 62 -52 0 -9 -91 -135 -118 -165 -36 -39 -72 -36 -150 13 -35 22 -94 52
-131 67 -59 23 -80 26 -196 26 -102 1 -142 -3 -185 -18 -185 -63 -307 -186
-366 -370 -35 -109 -44 -285 -20 -407 31 -159 129 -314 244 -388 73 -46 156
-72 257 -78 163 -10 284 25 404 116 30 22 65 41 77 41 15 0 47 -27 98 -81 88
-93 88 -89 -1 -168 -77 -67 -210 -136 -319 -163 -129 -33 -372 -32 -493 0
-239 65 -415 208 -522 427 -77 158 -94 243 -93 465 0 172 2 191 28 274 73 239
213 416 416 524 82 44 212 87 305 102 97 15 318 5 406 -18z m2279 -2 c47 -11
132 -44 190 -72 94 -46 116 -63 205 -152 111 -112 152 -175 201 -306 124 -330
64 -718 -151 -970 -107 -126 -272 -227 -441 -271 -172 -44 -397 -35 -569 22
-137 46 -226 101 -330 204 -97 97 -147 174 -195 298 -49 124 -63 206 -63 362
0 200 38 346 130 505 53 91 199 234 293 287 87 49 227 98 320 112 100 15 311
6 410 -19z m6420 16 c95 -17 210 -62 282 -110 87 -57 86 -54 38 -148 -24 -46
-50 -91 -58 -100 -25 -29 -80 -22 -147 18 -124 75 -240 99 -358 74 -168 -34
-245 -221 -139 -333 43 -46 97 -72 272 -132 91 -31 201 -74 245 -95 221 -106
304 -309 238 -575 -94 -379 -575 -531 -1001 -316 -80 40 -182 115 -182 133 0
19 101 178 120 188 36 19 76 10 139 -30 177 -114 309 -144 455 -103 74 21 145
85 164 149 17 57 15 140 -4 180 -36 76 -110 118 -314 179 -364 107 -490 240
-490 513 1 211 100 366 296 459 127 60 283 78 444 49z m-4035 -31 c292 -73
444 -260 445 -546 0 -234 -107 -414 -300 -507 -135 -64 -187 -73 -427 -79
l-213 -5 0 -314 0 -314 -170 0 -170 0 0 896 0 896 383 -5 c320 -3 393 -7 452
-22z m2445 -105 l0 -130 -395 0 -395 0 0 -250 0 -250 310 0 310 0 0 -130 0
-130 -310 0 -310 0 0 -250 0 -250 395 0 395 0 0 -135 0 -135 -565 0 -565 0 0
895 0 895 565 0 565 0 0 -130z m-5433 -2776 c-53 -8 -149 -28 -212 -44 -842
-217 -1481 -910 -1625 -1763 -11 -66 -20 -138 -20 -160 -1 -69 -16 -21 -29 93
-15 129 -66 332 -116 465 -282 752 -940 1286 -1735 1409 -72 12 213 14 1875
14 1728 0 1948 -2 1862 -14z m4400 0 c-53 -8 -149 -28 -212 -44 -842 -217
-1481 -910 -1625 -1763 -11 -66 -20 -138 -20 -160 -1 -69 -16 -21 -29 93 -15
129 -66 332 -116 465 -282 752 -940 1286 -1735 1409 -72 12 213 14 1875 14
1728 0 1948 -2 1862 -14z m4400 0 c-53 -8 -149 -28 -212 -44 -842 -217 -1481
-910 -1625 -1763 -11 -66 -20 -138 -20 -160 -1 -69 -16 -21 -29 93 -15 129
-66 332 -116 465 -282 752 -940 1286 -1735 1409 -72 12 213 14 1875 14 1728 0
1948 -2 1862 -14z m-8156 -1092 c94 -25 213 -84 297 -147 34 -26 62 -49 62
-52 0 -9 -91 -135 -118 -165 -36 -39 -72 -36 -150 13 -35 22 -94 52 -131 67
-59 23 -80 26 -196 26 -102 1 -142 -3 -185 -18 -185 -63 -307 -186 -366 -370
-35 -109 -44 -285 -20 -407 31 -159 129 -314 244 -388 73 -46 156 -72 257 -78
163 -10 284 25 404 116 30 22 65 41 77 41 15 0 47 -27 98 -81 88 -93 88 -89
-1 -168 -77 -67 -210 -136 -319 -163 -129 -33 -372 -32 -493 0 -239 65 -415
208 -522 427 -77 158 -94 243 -93 465 0 172 2 191 28 274 73 239 213 416 416
524 82 44 212 87 305 102 97 15 318 5 406 -18z m-4551 -76 c95 -17 210 -62
282 -110 87 -57 86 -54 38 -148 -24 -46 -50 -91 -58 -100 -25 -29 -80 -22
-147 18 -124 75 -240 99 -358 74 -168 -34 -245 -221 -139 -333 43 -46 97 -72
272 -132 91 -31 201 -74 245 -95 221 -106 304 -309 238 -575 -94 -379 -575
-531 -1001 -316 -80 40 -182 115 -182 133 0 19 101 178 120 188 36 19 76 10
139 -30 177 -114 309 -144 455 -103 74 21 145 85 164 149 17 57 15 140 -4 180
-36 76 -110 118 -314 179 -364 107 -490 240 -490 513 1 211 100 366 296 459
127 60 283 78 444 49z m13350 -16 c47 -11 132 -44 190 -72 94 -46 116 -63 205
-152 111 -112 152 -175 201 -306 124 -330 64 -718 -151 -970 -107 -126 -272
-227 -441 -271 -172 -44 -397 -35 -569 22 -137 46 -226 101 -330 204 -97 97
-147 174 -195 298 -49 124 -63 206 -63 362 0 200 38 346 130 505 53 91 199
234 293 287 87 49 227 98 320 112 100 15 311 6 410 -19z m4450 0 c47 -11 132
-44 190 -72 94 -46 116 -63 205 -152 111 -112 152 -175 201 -306 124 -330 64
-718 -151 -970 -107 -126 -272 -227 -441 -271 -172 -44 -397 -35 -569 22 -137
46 -226 101 -330 204 -97 97 -147 174 -195 298 -49 124 -63 206 -63 362 0 200
38 346 130 505 53 91 199 234 293 287 87 49 227 98 320 112 100 15 311 6 410
-19z m-9520 -375 l0 -385 420 0 420 0 0 385 0 385 165 0 165 0 0 -895 0 -895
-165 0 -165 0 0 395 0 395 -420 0 -420 0 0 -395 0 -395 -170 0 -170 0 0 895 0
895 170 0 170 0 0 -385z m13550 -370 l0 -755 360 0 360 0 0 -140 0 -140 -525
0 -525 0 0 895 0 895 165 0 165 0 0 -755z"/>
<path d="M12150 10544 c-202 -43 -343 -188 -401 -409 -27 -105 -29 -296 -4
-405 63 -277 267 -440 550 -440 271 0 472 158 541 425 25 96 25 323 1 415 -74
276 -271 431 -547 429 -41 0 -104 -7 -140 -15z"/>
<path d="M9650 10261 l0 -301 108 0 c198 1 310 30 380 99 55 56 75 106 80 203
4 80 2 93 -23 143 -30 63 -70 97 -147 127 -44 18 -81 22 -225 26 l-173 4 0
-301z"/>
<path d="M6480 7014 c-202 -43 -343 -188 -401 -409 -27 -105 -29 -296 -4 -405
63 -277 267 -440 550 -440 271 0 472 158 541 425 25 96 25 323 1 415 -74 276
-271 431 -547 429 -41 0 -104 -7 -140 -15z"/>
<path d="M8760 6710 l0 -320 158 0 c178 0 249 13 322 60 72 47 116 126 126
228 18 171 -79 308 -242 341 -32 6 -126 11 -211 11 l-153 0 0 -320z"/>
<path d="M15320 2934 c-202 -43 -343 -188 -401 -409 -27 -105 -29 -296 -4
-405 63 -277 267 -440 550 -440 271 0 472 158 541 425 25 96 25 323 1 415 -74
276 -271 431 -547 429 -41 0 -104 -7 -140 -15z"/>
<path d="M19770 2934 c-202 -43 -343 -188 -401 -409 -27 -105 -29 -296 -4
-405 63 -277 267 -440 550 -440 271 0 472 158 541 425 25 96 25 323 1 415 -74
276 -271 431 -547 429 -41 0 -104 -7 -140 -15z"/>
</g>
</svg>
