<?xml version="1.0" encoding="utf-8"?>
<!-- Generator: Adobe Illustrator 22.0.1, SVG Export Plug-In . SVG Version: 6.00 Build 0)  -->
<svg version="1.1" id="Layer_1" xmlns="http://www.w3.org/2000/svg" xmlns:xlink="http://www.w3.org/1999/xlink" x="0px" y="0px"
	 viewBox="0 0 552.8 205.3" style="enable-background:new 0 0 552.8 205.3;" xml:space="preserve">
<style type="text/css">
	.st0{fill:#FFFFFF;}
	.st1{clip-path:url(#SVGID_2_);}
	.st2{clip-path:url(#SVGID_4_);}
	.st3{clip-path:url(#SVGID_6_);}
	.st4{clip-path:url(#SVGID_8_);}
	.st5{fill:#FFFFFF;stroke:#000000;stroke-width:4;stroke-miterlimit:10;}
	.st6{clip-path:url(#SVGID_8_);fill:none;stroke:#000000;stroke-width:4;stroke-miterlimit:10;}
	.st7{fill:none;stroke:#000000;stroke-width:4;stroke-miterlimit:10;}
	.st8{clip-path:url(#SVGID_10_);}
	.st9{clip-path:url(#SVGID_10_);fill:none;stroke:#000000;stroke-width:4;stroke-miterlimit:10;}
</style>
<title>rs_school_js</title>
<g>
	<g>
		<path d="M285.4,68l26.3-1.7c0.6,4.3,1.7,7.5,3.5,9.8c2.9,3.6,6.9,5.4,12.2,5.4c3.9,0,7-0.9,9.1-2.8c2-1.5,3.2-3.9,3.2-6.4
			c0-2.4-1.1-4.7-3-6.2c-2-1.8-6.7-3.6-14.1-5.2c-12.1-2.7-20.8-6.3-25.9-10.9c-5.1-4.3-8-10.6-7.8-17.3c0-4.6,1.4-9.2,4-13
			c3-4.3,7.1-7.7,12-9.6c5.3-2.3,12.7-3.5,22-3.5c11.4,0,20.1,2.1,26.1,6.4c6,4.2,9.6,11,10.7,20.3l-26,1.5c-0.7-4-2.1-6.9-4.4-8.8
			s-5.3-2.8-9.2-2.8c-3.2,0-5.6,0.7-7.2,2c-1.5,1.2-2.5,3-2.4,5c0,1.5,0.8,2.9,2,3.8c1.3,1.2,4.4,2.3,9.3,3.3
			c12.1,2.6,20.7,5.2,26,7.9c5.3,2.7,9.1,6,11.4,9.9c2.4,4,3.6,8.6,3.5,13.3c0,5.6-1.6,11.2-4.8,15.9c-3.3,4.9-7.9,8.7-13.3,11
			c-5.7,2.5-12.9,3.8-21.5,3.8c-15.2,0-25.7-2.9-31.6-8.8S286.1,77,285.4,68z"/>
		<path d="M6.3,97.6V8.2h46.1c8.5,0,15.1,0.7,19.6,2.2c4.4,1.4,8.3,4.3,10.9,8.2c2.9,4.3,4.3,9.3,4.2,14.5
			c0.3,8.8-4.2,17.2-11.9,21.6c-3,1.7-6.3,2.9-9.7,3.5c2.5,0.7,5,1.9,7.2,3.3c1.7,1.4,3.1,3,4.4,4.7c1.5,1.7,2.8,3.6,3.9,5.6
			l13.4,25.9H63L48.2,70.2c-1.9-3.5-3.5-5.8-5-6.9c-2-1.4-4.4-2.1-6.8-2.1H34v36.3H6.3z M34,44.4h11.7c2.5-0.2,4.9-0.6,7.3-1.2
			c1.8-0.3,3.4-1.3,4.5-2.8c2.7-3.6,2.3-8.7-1-11.8c-1.8-1.5-5.3-2.3-10.3-2.3H34V44.4z"/>
		<path d="M0,174.2l26.3-1.7c0.6,4.3,1.7,7.5,3.5,9.8c2.8,3.6,6.9,5.5,12.2,5.5c3.9,0,7-0.9,9.1-2.8c2-1.6,3.2-3.9,3.2-6.4
			c0-2.4-1.1-4.7-3-6.2c-2-1.8-6.7-3.6-14.2-5.2c-12.1-2.7-20.8-6.3-25.9-10.9c-5.1-4.3-8-10.6-7.8-17.3c0-4.6,1.4-9.2,4-13
			c3-4.3,7.1-7.7,12-9.6c5.3-2.3,12.7-3.5,22-3.5c11.4,0,20.1,2.1,26.1,6.4s9.5,11,10.6,20.3l-26,1.5c-0.7-4-2.1-6.9-4.4-8.8
			c-2.2-1.9-5.3-2.8-9.2-2.7c-3.2,0-5.6,0.7-7.2,2.1c-1.6,1.2-2.5,3-2.4,5c0,1.5,0.8,2.9,2,3.8c1.3,1.2,4.4,2.3,9.3,3.3
			c12.1,2.6,20.7,5.2,26,7.9c5.3,2.7,9.1,6,11.4,9.9c2.4,4,3.6,8.6,3.6,13.2c0,5.6-1.7,11.1-4.8,15.8c-3.3,4.9-7.9,8.7-13.3,11
			c-5.7,2.5-12.9,3.8-21.5,3.8c-15.2,0-25.7-2.9-31.6-8.8C4.1,190.6,0.8,183.2,0,174.2z"/>
		<path d="M133,167.2l24.2,7.3c-1.3,6.1-4,11.9-7.7,17c-3.4,4.5-7.9,8-13,10.3c-5.2,2.3-11.8,3.5-19.8,3.5c-9.7,0-17.7-1.4-23.8-4.2
			c-6.2-2.8-11.5-7.8-16-14.9c-4.5-7.1-6.7-16.2-6.7-27.3c0-14.8,3.9-26.2,11.8-34.1s19-11.9,33.4-11.9c11.3,0,20.1,2.3,26.6,6.8
			c6.4,4.6,11.2,11.6,14.4,21l-24.4,5.4c-0.6-2.1-1.5-4.2-2.7-6c-1.5-2.1-3.4-3.7-5.7-4.9c-2.3-1.2-4.9-1.7-7.5-1.7
			c-6.3,0-11.1,2.5-14.4,7.6c-2.5,3.7-3.8,9.6-3.8,17.6c0,9.9,1.5,16.7,4.5,20.4c3,3.7,7.2,5.5,12.7,5.5c5.3,0,9.3-1.5,12-4.4
			C129.8,177.1,131.8,172.8,133,167.2z"/>
		<path d="M189.5,114.4h27.6v31.3h30.2v-31.3h27.8v89.4h-27.8v-36.2h-30.2v36.2h-27.6V114.4z"/>
		<path d="M271.3,159.1c0-14.6,4.1-26,12.2-34.1c8.1-8.1,19.5-12.2,34-12.2c14.9,0,26.3,4,34.4,12S364,144,364,158.4
			c0,10.5-1.8,19-5.3,25.7c-3.4,6.6-8.7,12-15.2,15.6c-6.7,3.7-15,5.6-24.9,5.6c-10.1,0-18.4-1.6-25-4.8
			c-6.8-3.4-12.4-8.7-16.1-15.2C273.4,178.3,271.3,169.6,271.3,159.1z M298.9,159.2c0,9,1.7,15.5,5,19.5c3.3,3.9,7.9,5.9,13.7,5.9
			c5.9,0,10.5-1.9,13.8-5.8s4.9-10.8,4.9-20.8c0-8.4-1.7-14.6-5.1-18.4c-3.4-3.9-8-5.8-13.8-5.8c-5.1-0.2-10,2-13.4,5.9
			C300.6,143.6,298.9,150.1,298.9,159.2L298.9,159.2z"/>
		<path d="M392.3,159.1c0-14.6,4.1-26,12.2-34.1c8.1-8.1,19.5-12.2,34-12.2c14.9,0,26.4,4,34.4,12S485,144,485,158.4
			c0,10.5-1.8,19-5.3,25.7c-3.4,6.6-8.7,12-15.2,15.6c-6.7,3.7-15,5.6-24.9,5.6c-10.1,0-18.4-1.6-25-4.8
			c-6.8-3.4-12.4-8.7-16.1-15.2C394.4,178.3,392.3,169.6,392.3,159.1z M419.9,159.2c0,9,1.7,15.5,5,19.5c3.3,3.9,7.9,5.9,13.7,5.9
			c5.9,0,10.5-1.9,13.8-5.8c3.3-3.9,4.9-10.8,4.9-20.8c0-8.4-1.7-14.6-5.1-18.4c-3.4-3.9-8-5.8-13.8-5.8c-5.1-0.2-10.1,2-13.4,5.9
			C421.6,143.6,419.9,150.1,419.9,159.2L419.9,159.2z"/>
		<path d="M482.1,114.4h27.6v67.4h43.1v22h-70.8V114.4z"/>
		<ellipse transform="matrix(0.7986 -0.6018 0.6018 0.7986 43.815 266.7012)" class="st0" cx="420.5" cy="67.9" rx="63" ry="51.8"/>
		<g>
			<defs>
				
					<ellipse id="SVGID_1_" transform="matrix(0.7986 -0.6018 0.6018 0.7986 43.815 266.7012)" cx="420.5" cy="67.9" rx="63" ry="51.8"/>
			</defs>
			<clipPath id="SVGID_2_">
				<use xlink:href="#SVGID_1_"  style="overflow:visible;"/>
			</clipPath>
			<g class="st1">
				<g>
					
						<rect x="330.9" y="-14.2" transform="matrix(0.7986 -0.6018 0.6018 0.7986 43.6025 267.0134)" class="st0" width="179.8" height="165.1"/>
					<g id="Layer_2_1_">
						<defs>
							
								<rect id="SVGID_3_" x="330.9" y="-14.2" transform="matrix(0.7986 -0.6018 0.6018 0.7986 43.6025 267.0134)" width="179.8" height="165.1"/>
						</defs>
						<clipPath id="SVGID_4_">
							<use xlink:href="#SVGID_3_"  style="overflow:visible;"/>
						</clipPath>
						<g id="Layer_1-2" class="st2">
							
								<ellipse transform="matrix(0.7986 -0.6018 0.6018 0.7986 43.815 266.7012)" class="st0" cx="420.5" cy="67.9" rx="63" ry="51.8"/>
							<g>
								<defs>
									
										<ellipse id="SVGID_5_" transform="matrix(0.7986 -0.6018 0.6018 0.7986 43.815 266.7012)" cx="420.5" cy="67.9" rx="63" ry="51.8"/>
								</defs>
								<clipPath id="SVGID_6_">
									<use xlink:href="#SVGID_5_"  style="overflow:visible;"/>
								</clipPath>
								<g class="st3">
									<rect x="357.8" y="17" transform="matrix(0.8 -0.6 0.6 0.8 42.8786 266.2398)" class="st0" width="125.9" height="103.7"/>
									<g>
										<defs>
											
												<rect id="SVGID_7_" x="357.8" y="17" transform="matrix(0.8 -0.6 0.6 0.8 42.8786 266.2398)" width="125.9" height="103.7"/>
										</defs>
										<clipPath id="SVGID_8_">
											<use xlink:href="#SVGID_7_"  style="overflow:visible;"/>
										</clipPath>
										<g class="st4">
											
												<ellipse transform="matrix(0.7986 -0.6018 0.6018 0.7986 43.815 266.7012)" class="st5" cx="420.5" cy="67.9" rx="63" ry="51.8"/>
										</g>
										
											<rect x="357.8" y="17" transform="matrix(0.8 -0.6 0.6 0.8 42.8786 266.2398)" class="st6" width="125.9" height="103.7"/>
									</g>
									
										<ellipse transform="matrix(0.7986 -0.6018 0.6018 0.7986 43.815 266.7012)" class="st7" cx="420.5" cy="67.9" rx="63" ry="51.8"/>
									<rect x="357.8" y="17" transform="matrix(0.8 -0.6 0.6 0.8 42.8786 266.2398)" class="st0" width="125.9" height="103.7"/>
									<g>
										<defs>
											
												<rect id="SVGID_9_" x="357.8" y="17" transform="matrix(0.8 -0.6 0.6 0.8 42.8786 266.2398)" width="125.9" height="103.7"/>
										</defs>
										<clipPath id="SVGID_10_">
											<use xlink:href="#SVGID_9_"  style="overflow:visible;"/>
										</clipPath>
										<g class="st8">
											
												<ellipse transform="matrix(0.7986 -0.6018 0.6018 0.7986 43.815 266.7012)" class="st5" cx="420.5" cy="67.9" rx="63" ry="51.8"/>
										</g>
										
											<rect x="357.8" y="17" transform="matrix(0.8 -0.6 0.6 0.8 42.8786 266.2398)" class="st9" width="125.9" height="103.7"/>
									</g>
									
										<rect x="330.9" y="-14.2" transform="matrix(0.7986 -0.6018 0.6018 0.7986 43.6025 267.0134)" class="st7" width="179.8" height="165.1"/>
								</g>
							</g>
							
								<ellipse transform="matrix(0.7986 -0.6018 0.6018 0.7986 43.815 266.7012)" class="st7" cx="420.5" cy="67.9" rx="63" ry="51.8"/>
							<path d="M392.4,61.3l10-7l12.3,17.5c2.1,2.8,3.7,5.8,4.9,9.1c0.7,2.5,0.5,5.2-0.5,7.6c-1.3,3-3.4,5.5-6.2,7.3
								c-3.3,2.3-6.1,3.6-8.5,4c-2.3,0.4-4.7,0-6.9-1c-2.4-1.2-4.5-2.9-6.1-5.1l8.6-8c0.7,1.1,1.6,2.1,2.6,2.9
								c0.7,0.5,1.5,0.8,2.4,0.8c0.7,0,1.4-0.3,1.9-0.7c1-0.6,1.7-1.8,1.6-3c-0.3-1.7-1-3.4-2.1-4.7L392.4,61.3z"/>
							<path d="M422.4,72.4l9.1-7.2c1,1.2,2.3,2.1,3.7,2.6c2,0.6,4.1,0.2,5.8-1.1c1.2-0.8,2.2-1.9,2.6-3.3c0.6-1.8-0.4-3.8-2.2-4.4
								c-0.3-0.1-0.6-0.2-0.9-0.2c-1.2-0.1-3.3,0.4-6.4,1.7c-5.1,2.1-9.1,2.9-12.1,2.6c-2.9-0.3-5.6-1.8-7.2-4.3
								c-1.2-1.7-1.8-3.7-1.9-5.7c0-2.3,0.6-4.6,1.9-6.5c1.9-2.7,4.2-5,7-6.8c4.2-2.9,7.9-4.3,11.1-4.3c3.2,0,6.2,1.5,9,4.6l-9,7.1
								c-1.8-2.3-5.2-2.8-7.5-1c-0.1,0.1-0.2,0.2-0.3,0.3c-1,0.6-1.7,1.5-2.1,2.6c-0.3,0.8-0.1,1.7,0.4,2.4c0.4,0.5,1,0.9,1.7,0.9
								c0.8,0.1,2.2-0.3,4.2-1.2c5-2.1,8.8-3.3,11.4-3.7c2.2-0.4,4.5-0.2,6.6,0.7c1.9,0.8,3.5,2.2,4.6,3.9c1.4,2,2.2,4.4,2.3,6.9
								c0.1,2.6-0.6,5.1-2,7.3c-1.8,2.7-4.1,5-6.8,6.8c-5.5,3.8-10,5.4-13.6,4.8C427.9,77.3,424.7,75.3,422.4,72.4z"/>
						</g>
					</g>
				</g>
			</g>
		</g>
	</g>
</g>
</svg>
