<?xml version="1.0" encoding="utf-8"?>
<!-- Generator: Adobe Illustrator 22.0.1, SVG Export Plug-In . SVG Version: 6.00 Build 0)  -->
<svg version="1.1" id="Layer_1" xmlns="http://www.w3.org/2000/svg" xmlns:xlink="http://www.w3.org/1999/xlink" x="0px" y="0px"
	 viewBox="0 0 590.1 213.1" style="enable-background:new 0 0 590.1 213.1;" xml:space="preserve">
<style type="text/css">
	.st0{fill:#FFFFFF;}
	.st1{clip-path:url(#SVGID_2_);}
	.st2{clip-path:url(#SVGID_4_);}
	.st3{clip-path:url(#SVGID_6_);}
	.st4{clip-path:url(#SVGID_8_);}
	.st5{fill:#FFFFFF;stroke:#000000;stroke-width:4;stroke-miterlimit:10;}
	.st6{clip-path:url(#SVGID_8_);fill:none;stroke:#000000;stroke-width:4;stroke-miterlimit:10;}
	.st7{fill:none;stroke:#000000;stroke-width:4;stroke-miterlimit:10;}
	.st8{clip-path:url(#SVGID_10_);}
	.st9{clip-path:url(#SVGID_10_);fill:none;stroke:#000000;stroke-width:4;stroke-miterlimit:10;}
</style>
<title>rs_school_ios</title>
<g>
	<g>
		<path d="M285.4,75.8l26.3-1.6c0.6,4.3,1.7,7.5,3.5,9.8c2.9,3.6,6.9,5.4,12.2,5.4c3.9,0,7-0.9,9.1-2.8c2-1.6,3.2-3.9,3.2-6.4
			c0-2.4-1.1-4.7-3-6.2c-2-1.8-6.7-3.6-14.1-5.2c-12.2-2.7-20.8-6.3-26-10.9c-5.1-4.3-8-10.6-7.8-17.3c0-4.6,1.4-9.2,4-13
			c3-4.3,7.1-7.7,12-9.6c5.3-2.3,12.7-3.5,22-3.5c11.4,0,20.1,2.1,26.1,6.4c6,4.2,9.6,11,10.7,20.3l-26,1.6c-0.7-4-2.1-6.9-4.4-8.8
			s-5.3-2.8-9.2-2.8c-3.2,0-5.6,0.7-7.2,2c-1.6,1.2-2.5,3-2.4,5c0,1.5,0.8,2.9,2,3.8c1.3,1.2,4.4,2.3,9.3,3.3
			c12.1,2.6,20.7,5.2,26,7.9c5.3,2.7,9.1,6,11.4,9.9c2.4,4,3.6,8.6,3.6,13.2c0,5.6-1.6,11.2-4.8,15.9c-3.3,4.9-7.9,8.7-13.3,11
			c-5.7,2.5-12.9,3.8-21.5,3.8c-15.2,0-25.7-2.9-31.6-8.8S286.2,84.8,285.4,75.8z"/>
		<path d="M6.3,105.4V16h46.1c8.5,0,15.1,0.7,19.6,2.2c4.4,1.4,8.3,4.3,10.9,8.1c2.9,4.3,4.3,9.3,4.2,14.5
			c0.3,8.8-4.2,17.2-11.9,21.6c-3,1.7-6.3,2.9-9.7,3.5c2.5,0.7,5,1.9,7.2,3.3c1.6,1.4,3.1,3,4.4,4.7c1.5,1.7,2.8,3.6,3.9,5.6
			l13.4,25.9H63L48.2,78.1c-1.9-3.5-3.5-5.8-5-6.9c-2-1.4-4.4-2.1-6.8-2.1H34v36.3H6.3z M34,52.2h11.7c2.5-0.2,4.9-0.6,7.3-1.2
			c1.8-0.3,3.4-1.3,4.5-2.8c2.7-3.6,2.3-8.7-1-11.8c-1.8-1.6-5.3-2.3-10.3-2.3H34V52.2z"/>
		<path d="M0,182l26.3-1.6c0.6,4.3,1.7,7.5,3.5,9.8c2.8,3.6,6.9,5.4,12.2,5.4c3.9,0,7-0.9,9.1-2.8c2-1.6,3.2-3.9,3.2-6.4
			c0-2.4-1.1-4.7-3-6.2c-2-1.8-6.7-3.6-14.2-5.2c-12.1-2.7-20.8-6.3-25.9-10.9c-5.1-4.3-8-10.6-7.8-17.3c0-4.6,1.4-9.2,4-13
			c3-4.3,7.1-7.7,12-9.6c5.3-2.3,12.7-3.5,22-3.5c11.4,0,20.1,2.1,26.1,6.4c6,4.3,9.6,11,10.7,20.3l-26,1.5c-0.7-4-2.1-6.9-4.4-8.8
			c-2.2-1.9-5.3-2.8-9.2-2.7c-3.2,0-5.6,0.7-7.2,2c-1.6,1.2-2.5,3-2.4,5c0,1.5,0.8,2.9,2,3.9c1.3,1.2,4.4,2.3,9.3,3.3
			c12.1,2.6,20.7,5.2,26,7.9c5.3,2.7,9.1,6,11.4,9.9c2.4,4,3.6,8.6,3.6,13.2c0,5.6-1.6,11.2-4.8,15.9c-3.3,4.9-7.9,8.7-13.3,11
			c-5.7,2.5-12.9,3.8-21.5,3.8c-15.2,0-25.7-2.9-31.6-8.8S0.9,191,0,182z"/>
		<path d="M175,175l24.2,7.3c-1.3,6.1-4,11.9-7.7,17c-3.4,4.5-7.9,8-13,10.3c-5.2,2.3-11.8,3.5-19.8,3.5c-9.7,0-17.7-1.4-23.8-4.2
			s-11.5-7.8-16-14.9c-4.5-7.1-6.7-16.2-6.7-27.3c0-14.8,3.9-26.2,11.8-34.1c7.9-7.9,19-11.9,33.4-11.9c11.3,0,20.1,2.3,26.6,6.8
			c6.4,4.6,11.2,11.6,14.4,21l-24.4,5.4c-0.6-2.1-1.5-4.2-2.7-6c-1.5-2.1-3.4-3.7-5.7-4.9c-2.3-1.2-4.9-1.7-7.5-1.7
			c-6.3,0-11.1,2.5-14.4,7.6c-2.5,3.7-3.8,9.6-3.8,17.6c0,9.9,1.5,16.7,4.5,20.4s7.2,5.5,12.7,5.5c5.3,0,9.3-1.5,12-4.4
			S173.8,180.7,175,175z"/>
		<path d="M189.5,122.2h27.6v31.3h30.2v-31.3h27.8v89.4h-27.8v-36.2h-30.2v36.2h-27.6V122.2z"/>
		<path d="M302.3,166.9c0-14.6,4.1-26,12.2-34.1c8.1-8.1,19.5-12.2,34-12.2c14.9,0,26.3,4,34.4,12s12.1,19.2,12.1,33.6
			c0,10.5-1.8,19-5.3,25.7c-3.4,6.6-8.7,12-15.2,15.6c-6.7,3.7-15,5.6-24.9,5.6c-10.1,0-18.4-1.6-25-4.8
			c-6.8-3.4-12.4-8.7-16.1-15.2C304.4,186.1,302.3,177.4,302.3,166.9z M329.9,167.1c0,9,1.7,15.5,5,19.5c3.3,3.9,7.9,5.9,13.7,5.9
			c5.9,0,10.5-1.9,13.8-5.8c3.3-3.9,4.9-10.8,4.9-20.8c0-8.4-1.7-14.6-5.1-18.5c-3.4-3.9-8-5.8-13.8-5.8c-5.1-0.2-10,2-13.4,5.9
			C331.6,151.4,329.9,157.9,329.9,167.1z"/>
		<path d="M392.3,166.9c0-14.6,4.1-26,12.2-34.1c8.1-8.1,19.5-12.2,34-12.2c14.9,0,26.4,4,34.4,12s12.1,19.2,12.1,33.6
			c0,10.5-1.8,19-5.3,25.7c-3.4,6.6-8.7,12-15.2,15.6c-6.7,3.7-15,5.6-24.9,5.6c-10.1,0-18.4-1.6-25-4.8
			c-6.8-3.4-12.4-8.7-16.1-15.2C394.4,186.1,392.3,177.4,392.3,166.9z M419.9,167.1c0,9,1.7,15.5,5,19.5c3.3,3.9,7.9,5.9,13.7,5.9
			c5.9,0,10.5-1.9,13.8-5.8c3.3-3.9,4.9-10.8,4.9-20.8c0-8.4-1.7-14.6-5.1-18.5s-8-5.8-13.8-5.8c-5.1-0.2-10,2-13.4,5.9
			C421.6,151.4,419.9,157.9,419.9,167.1L419.9,167.1z"/>
		<path d="M482.1,122.2h27.6v67.4h43.1v22h-70.8V122.2z"/>
		
			<ellipse transform="matrix(0.2529 -0.9675 0.9675 0.2529 270.2205 482.3895)" class="st0" cx="447.5" cy="66.2" rx="57.4" ry="88.6"/>
		<g>
			<defs>
				
					<ellipse id="SVGID_1_" transform="matrix(0.2529 -0.9675 0.9675 0.2529 270.2205 482.3895)" cx="447.5" cy="66.2" rx="57.4" ry="88.6"/>
			</defs>
			<clipPath id="SVGID_2_">
				<use xlink:href="#SVGID_1_"  style="overflow:visible;"/>
			</clipPath>
			<g class="st1">
				<g>
					
						<rect x="346.8" y="-53.2" transform="matrix(0.2529 -0.9675 0.9675 0.2529 269.9295 481.7062)" class="st0" width="200.1" height="238.6"/>
					<g id="Layer_2_1_">
						<defs>
							
								<rect id="SVGID_3_" x="346.8" y="-53.2" transform="matrix(0.2529 -0.9675 0.9675 0.2529 269.9295 481.7062)" width="200.1" height="238.6"/>
						</defs>
						<clipPath id="SVGID_4_">
							<use xlink:href="#SVGID_3_"  style="overflow:visible;"/>
						</clipPath>
						<g id="Layer_1-2" class="st2">
							
								<ellipse transform="matrix(0.2529 -0.9675 0.9675 0.2529 270.2205 482.3895)" class="st0" cx="447.5" cy="66.2" rx="57.4" ry="88.6"/>
							<g>
								<defs>
									
										<ellipse id="SVGID_5_" transform="matrix(0.2529 -0.9675 0.9675 0.2529 270.2205 482.3895)" cx="447.5" cy="66.2" rx="57.4" ry="88.6"/>
								</defs>
								<clipPath id="SVGID_6_">
									<use xlink:href="#SVGID_5_"  style="overflow:visible;"/>
								</clipPath>
								<g class="st3">
									
										<rect x="390.1" y="-22.4" transform="matrix(0.2529 -0.9675 0.9675 0.2529 270.2173 482.3975)" class="st0" width="114.8" height="177.2"/>
									<g>
										<defs>
											
												<rect id="SVGID_7_" x="390.1" y="-22.4" transform="matrix(0.2529 -0.9675 0.9675 0.2529 270.2173 482.3975)" width="114.8" height="177.2"/>
										</defs>
										<clipPath id="SVGID_8_">
											<use xlink:href="#SVGID_7_"  style="overflow:visible;"/>
										</clipPath>
										<g class="st4">
											
												<ellipse transform="matrix(0.2529 -0.9675 0.9675 0.2529 270.2206 482.3895)" class="st5" cx="447.5" cy="66.2" rx="57.4" ry="88.6"/>
										</g>
										
											<rect x="390.1" y="-22.4" transform="matrix(0.2529 -0.9675 0.9675 0.2529 270.2173 482.3975)" class="st6" width="114.8" height="177.2"/>
									</g>
									
										<ellipse transform="matrix(0.2529 -0.9675 0.9675 0.2529 270.2205 482.3895)" class="st7" cx="447.5" cy="66.2" rx="57.4" ry="88.6"/>
									
										<rect x="390.1" y="-22.4" transform="matrix(0.2529 -0.9675 0.9675 0.2529 270.2173 482.3975)" class="st0" width="114.8" height="177.2"/>
									<g>
										<defs>
											
												<rect id="SVGID_9_" x="390.1" y="-22.4" transform="matrix(0.2529 -0.9675 0.9675 0.2529 270.2173 482.3975)" width="114.8" height="177.2"/>
										</defs>
										<clipPath id="SVGID_10_">
											<use xlink:href="#SVGID_9_"  style="overflow:visible;"/>
										</clipPath>
										<g class="st8">
											
												<ellipse transform="matrix(0.2529 -0.9675 0.9675 0.2529 270.2205 482.3895)" class="st5" cx="447.5" cy="66.2" rx="57.4" ry="88.6"/>
										</g>
										
											<rect x="390.1" y="-22.4" transform="matrix(0.2529 -0.9675 0.9675 0.2529 270.2173 482.3975)" class="st9" width="114.8" height="177.2"/>
									</g>
									
										<rect x="346.8" y="-53.2" transform="matrix(0.2529 -0.9675 0.9675 0.2529 269.9295 481.7062)" class="st7" width="200.1" height="238.6"/>
								</g>
							</g>
							
								<ellipse transform="matrix(0.2529 -0.9675 0.9675 0.2529 270.2205 482.3895)" class="st7" cx="447.5" cy="66.2" rx="57.4" ry="88.6"/>
							<path d="M400.6,43.4l10.6,2.7l-6.9,27.6L393.7,71L400.6,43.4z M403.2,32.8l10.6,2.7l-1.8,7.2l-10.6-2.7L403.2,32.8z"/>
							<path d="M415,56.1c1.5-6.2,4.5-10.7,8.9-13.3c4.4-2.6,9.6-3.1,15.8-1.6c6.4,1.6,10.8,4.5,13.4,8.8c2.6,4.3,3.1,9.5,1.6,15.6
								c-0.8,3.8-2.5,7.4-5,10.4c-2.2,2.4-5,4.2-8.2,5c-3.7,0.9-7.6,0.8-11.2-0.3c-3.7-0.8-7.2-2.4-10.2-4.7c-2.5-2.2-4.4-5-5.2-8.2
								C413.9,64,413.9,59.9,415,56.1z M426.8,59.1c-1,3.9-0.9,6.8,0.1,8.9c2.3,4,7.4,5.5,11.4,3.2c0.1-0.1,0.2-0.1,0.3-0.2
								c1.8-1.3,3.2-4.1,4.3-8.4c0.9-3.6,0.8-6.4-0.2-8.4c-1.1-2.1-3-3.5-5.3-4c-2.2-0.6-4.5-0.2-6.4,1.1
								C429.2,52.6,427.8,55.2,426.8,59.1L426.8,59.1z"/>
							<path d="M457.3,73.5l11.4,2.1c-0.3,1.5-0.1,3.1,0.4,4.5c0.9,1.9,2.6,3.2,4.6,3.6c1.4,0.4,2.9,0.4,4.2-0.2
								c1.8-0.8,2.6-2.8,1.9-4.6c-0.1-0.3-0.3-0.6-0.5-0.8c-0.7-1-2.5-2.2-5.5-3.7c-4.9-2.5-8.2-4.9-9.9-7.4
								c-1.7-2.4-2.3-5.4-1.5-8.2c0.5-2,1.6-3.8,3.1-5.1c1.7-1.5,3.9-2.5,6.2-2.8c3.3-0.4,6.6-0.1,9.8,0.8c4.9,1.2,8.4,3.1,10.5,5.5
								c2.1,2.5,2.9,5.7,2.4,9.8l-11.3-2.1c0.2-1.5-0.1-3-0.9-4.2c-0.9-1.1-2.2-1.9-3.6-2.2c-1.1-0.4-2.3-0.3-3.3,0.1
								c-0.8,0.3-1.4,1-1.6,1.9c-0.1,0.7,0,1.3,0.5,1.8c1,1.1,2.2,1.9,3.6,2.4c4.9,2.4,8.3,4.4,10.2,6.1c1.8,1.4,3.1,3.3,3.8,5.4
								c0.6,2,0.6,4,0.1,6c-0.6,2.4-1.9,4.6-3.7,6.3c-1.9,1.7-4.3,2.9-6.9,3.3c-3.2,0.4-6.5,0.2-9.6-0.7c-6.5-1.6-10.7-4-12.6-7.1
								C457.3,80.9,456.6,77.1,457.3,73.5z"/>
						</g>
					</g>
				</g>
			</g>
		</g>
	</g>
</g>
</svg>
