<?xml version="1.0" encoding="UTF-8"?>
<svg width="553px" height="228px" viewBox="0 0 553 228" version="1.1" xmlns="http://www.w3.org/2000/svg" xmlns:xlink="http://www.w3.org/1999/xlink">
    <title>rs_school_ios</title>
    <g id="Page-1" stroke="none" stroke-width="1" fill="none" fill-rule="evenodd">
        <g id="rs_school_ios" transform="translate(0.000000, 2.000000)">
            <path d="M285.36,88.14 L311.65,86.49 C312.223333,90.7566667 313.383333,94.01 315.13,96.25 C317.983333,99.87 322.05,101.68 327.33,101.68 C331.27,101.68 334.31,100.756667 336.45,98.91 C338.434904,97.3570855 339.611147,94.989896 339.65,92.47 C339.617086,90.0554982 338.519051,87.7789054 336.65,86.25 C334.65,84.4166667 329.933333,82.6866667 322.5,81.06 C310.346667,78.3533333 301.686667,74.7333333 296.52,70.2 C291.428167,65.9331044 288.554098,59.58145 288.71,52.94 C288.729147,48.3065641 290.121093,43.7827404 292.71,39.94 C295.666771,35.6089175 299.843395,32.2536963 304.71,30.3 C310.043333,27.96 317.376667,26.79 326.71,26.79 C338.136667,26.79 346.85,28.9133333 352.85,33.16 C358.85,37.4066667 362.42,44.17 363.56,53.45 L337.52,55 C336.853333,51 335.4,48.0733333 333.16,46.22 C330.92,44.3666667 327.866667,43.4333333 324,43.42 C320.79,43.42 318.37,44.11 316.75,45.42 C315.198797,46.6128055 314.295773,48.4632649 314.31,50.42 C314.359174,51.9372395 315.094974,53.3499749 316.31,54.26 C317.61,55.44 320.7,56.54 325.58,57.56 C337.66,60.16 346.326667,62.7933333 351.58,65.46 C356.833333,68.1266667 360.633333,71.43 362.98,75.37 C365.374889,79.3668296 366.610949,83.9509845 366.55,88.61 C366.578778,94.2513515 364.925011,99.7731944 361.8,104.47 C358.547456,109.367132 353.920409,113.194014 348.5,115.47 C342.8,117.97 335.62,119.22 326.96,119.22 C311.753333,119.22 301.22,116.293333 295.36,110.44 C289.5,104.586667 286.166667,97.1533333 285.36,88.14 Z" id="Path" fill="#000000" fill-rule="nonzero"></path>
            <path d="M6.27,117.72 L6.27,28.29 L52.33,28.29 C60.87,28.29 67.3966667,29.0233333 71.91,30.49 C76.3575125,31.9065019 80.202151,34.7723771 82.83,38.63 C85.6932345,42.90873 87.1508981,47.9738489 87,53.12 C87.3366061,61.9674853 82.7585419,70.277249 75.1,74.72 C72.0681798,76.3923061 68.7962884,77.5863778 65.4,78.26 C67.9428333,79.004063 70.3646,80.1122149 72.59,81.55 C74.2378937,82.9434426 75.7178666,84.524094 77,86.26 C78.4654176,87.9812885 79.7614167,89.8398919 80.87,91.81 L94.25,117.72 L63,117.72 L48.24,90.4 C46.3666667,86.86 44.7,84.56 43.24,83.5 C41.2504842,82.1212489 38.8803469,81.3976229 36.46,81.43 L34,81.43 L34,117.72 L6.27,117.72 Z M34,64.53 L45.68,64.53 C48.1512177,64.3401137 50.6007769,63.9318538 53,63.31 C54.7920473,62.9661716 56.39035,61.9636648 57.48,60.5 C60.1635782,56.8647366 59.7357229,51.8032092 56.48,48.67 C54.6533333,47.1166667 51.2166667,46.3433333 46.17,46.3499573 L34,46.3499573 L34,64.53 Z" id="Shape" fill="#000000" fill-rule="nonzero"></path>
            <path d="M0,194.33 L26.29,192.69 C26.8633333,196.963333 28.0233333,200.216667 29.77,202.45 C32.59,206.07 36.6666667,207.88 42,207.88 C45.94,207.88 48.98,206.953333 51.12,205.1 C53.1049035,203.547085 54.2811467,201.179896 54.32,198.66 C54.2843534,196.246143 53.1868449,193.970642 51.32,192.44 C49.32,190.613333 44.6033333,188.886667 37.17,187.26 C25.05,184.533333 16.4066667,180.913333 11.24,176.4 C6.14778055,172.129084 3.27397287,165.774327 3.43,159.13 C3.45213465,154.49702 4.84382002,149.974043 7.43,146.13 C10.3867712,141.798917 14.5633951,138.443696 19.43,136.49 C24.7633333,134.15 32.0966667,132.98 41.43,132.98 C52.8566667,132.98 61.57,135.106667 67.57,139.36 C73.57,143.613333 77.14,150.373333 78.28,159.64 L52.28,161.17 C51.6133333,157.17 50.16,154.24 47.92,152.38 C45.68,150.52 42.6166667,149.606667 38.73,149.64 C35.5233333,149.64 33.1066667,150.306667 31.48,151.64 C29.9287974,152.832806 29.0257732,154.683265 29.04,156.64 C29.0861698,158.160787 29.8222843,159.577808 31.04,160.49 C32.34,161.67 35.43,162.766667 40.31,163.78 C52.39,166.38 61.0566667,169.013333 66.31,171.68 C71.5633333,174.346667 75.3633333,177.65 77.71,181.59 C80.1034236,185.587452 81.3393693,190.171183 81.28,194.83 C81.3087784,200.471352 79.6550108,205.993194 76.53,210.69 C73.2774564,215.587132 68.6504086,219.414014 63.23,221.69 C57.53,224.19 50.35,225.44 41.69,225.44 C26.4833333,225.44 15.95,222.513333 10.09,216.66 C4.23,210.806667 0.866666667,203.363333 0,194.33 Z" id="Path" fill="#000000" fill-rule="nonzero"></path>
            <path d="M175,187.32 L199.22,194.64 C197.880473,200.784329 195.260114,206.57706 191.53,211.64 C188.130988,216.113602 183.660204,219.659278 178.53,221.95 C173.343333,224.256667 166.743333,225.413333 158.73,225.42 C149.01,225.42 141.07,224.01 134.91,221.19 C128.75,218.37 123.416667,213.4 118.91,206.28 C114.43,199.166667 112.193333,190.063333 112.199985,178.97 C112.199985,164.176667 116.133333,152.806667 124,144.86 C131.866667,136.913333 142.993333,132.96 157.38,132.999699 C168.653333,132.999699 177.51,135.28 183.95,139.84 C190.39,144.4 195.176667,151.4 198.31,160.84 L173.91,166.27 C173.337061,164.141755 172.432658,162.116971 171.23,160.27 C169.752173,158.218141 167.809066,156.545767 165.56,155.39 C163.229085,154.228612 160.653952,153.642263 158.05,153.68 C151.79,153.68 146.993333,156.2 143.66,161.24 C141.133333,164.98 139.87,170.85 139.87,178.85 C139.87,188.763333 141.376667,195.556667 144.39,199.23 C147.403333,202.903333 151.633333,204.74 157.08,204.74 C162.36,204.74 166.36,203.256667 169.08,200.29 C171.8,197.323333 173.773333,193 175,187.32 Z" id="Path" fill="#000000" fill-rule="nonzero"></path>
            <polygon id="Path" fill="#000000" fill-rule="nonzero" points="189.51 134.49 217.14 134.49 217.14 165.78 247.34 165.78 247.34 134.49 275.09 134.49 275.09 223.92 247.34 223.92 247.34 187.74 217.14 187.74 217.14 223.92 189.51 223.92"></polygon>
            <path d="M302.289984,179.26 C302.289984,164.66 306.356667,153.293333 314.49,145.16 C322.623333,137.026667 333.956667,132.96 348.49,132.96 C363.37,132.96 374.836667,136.96 382.89,144.96 C390.943333,152.96 394.98,164.15 395,178.53 C395,188.99 393.24,197.56 389.72,204.24 C386.297672,210.843424 380.989501,216.280384 374.47,219.86 C367.803333,223.58 359.516667,225.44 349.61,225.44 C339.53,225.44 331.196667,223.833333 324.61,220.62 C317.842985,217.266445 312.243057,211.952263 308.54,205.37 C304.366667,198.423333 302.283333,189.72 302.289984,179.26 Z M329.92,179.39 C329.92,188.423333 331.586667,194.91 334.92,198.85 C338.253333,202.79 342.82,204.76 348.62,204.76 C354.56,204.76 359.156667,202.83 362.41,198.97 C365.663333,195.11 367.29,188.176667 367.29,178.17 C367.29,169.75 365.59,163.596667 362.19,159.71 C358.79,155.823333 354.183333,153.883333 348.37,153.89 C343.244919,153.716227 338.321115,155.892718 335,159.8 C331.62,163.753333 329.926667,170.283333 329.92,179.39 Z" id="Shape" fill="#000000" fill-rule="nonzero"></path>
            <path d="M392.28,179.26 C392.28,164.66 396.346667,153.293333 404.48,145.16 C412.613333,137.026667 423.946667,132.96 438.48,132.96 C453.373333,132.96 464.843333,136.96 472.89,144.96 C480.936667,152.96 484.96,164.153333 484.96,178.54 C484.96,189 483.203333,197.57 479.69,204.25 C476.264712,210.851285 470.957291,216.287476 464.44,219.87 C457.773333,223.59 449.486667,225.45 439.58,225.45 C429.493333,225.45 421.16,223.843333 414.58,220.63 C407.812151,217.273979 402.209652,211.960664 398.5,205.38 C394.353333,198.426667 392.28,189.72 392.28,179.26 Z M419.91998,179.39 C419.91998,188.423333 421.586667,194.91 424.92,198.85 C428.253333,202.79 432.816667,204.76 438.61,204.76 C444.55,204.76 449.146667,202.83 452.4,198.97 C455.653333,195.11 457.28,188.176667 457.28,178.17 C457.28,169.75 455.583333,163.596667 452.19,159.71 C448.796667,155.823333 444.19,153.883333 438.37,153.89 C433.244631,153.714741 428.320209,155.891505 425,159.8 C421.606667,163.753333 419.913333,170.283333 419.91998,179.39 L419.91998,179.39 Z" id="Shape" fill="#000000" fill-rule="nonzero"></path>
            <polygon id="Path" fill="#000000" fill-rule="nonzero" points="482.08 134.49 509.72 134.49 509.72 201.9 552.85 201.9 552.85 223.9 482.08 223.9"></polygon>
            <ellipse id="Oval" fill="#FFFFFF" fill-rule="nonzero" transform="translate(447.461372, 78.558133) rotate(-75.350000) translate(-447.461372, -78.558133) " cx="447.461372" cy="78.5581326" rx="57.41" ry="88.58"></ellipse>
            <ellipse id="Oval" stroke="#000000" stroke-width="4" transform="translate(447.461372, 78.558133) rotate(-75.350000) translate(-447.461372, -78.558133) " cx="447.461372" cy="78.5581326" rx="57.41" ry="88.58"></ellipse>
            <text id="ML" transform="translate(455.059137, 102.723269) rotate(22.000000) translate(-455.059137, -102.723269) " font-family="Arial-Black, Arial Black" font-size="72" font-weight="700" fill="#000000">
                <tspan x="381.059137" y="106.223269">ML</tspan>
                <tspan x="497.039606" y="106.223269" font-size="35"></tspan>
            </text>
        </g>
    </g>
</svg>