<?xml version="1.0" encoding="UTF-8"?>
<svg width="202px" height="24px" viewBox="0 0 202 24" version="1.1" xmlns="http://www.w3.org/2000/svg" xmlns:xlink="http://www.w3.org/1999/xlink">
    <!-- Generator: Sketch 48.2 (47327) - http://www.bohemiancoding.com/sketch -->
    <title>imaguru</title>
    <desc>Created with Sketch.</desc>
    <defs></defs>
    <g id="partners" stroke="none" stroke-width="1" fill="none" fill-rule="evenodd" transform="translate(-681.000000, -256.000000)">
        <g transform="translate(231.000000, 250.000000)" fill="#151515" id="imaguru">
            <path d="M496.872107,6 C497.580485,6.0931577 498.298931,6.1368218 498.995582,6.28770299 C502.699217,7.08988795 505.061105,9.69224547 505.6167,13.5945816 C505.741272,14.4695781 505.800239,15.3617203 505.804332,16.2464327 C505.823471,20.3912074 505.812851,24.5360964 505.812851,28.6808711 L505.812851,29.1069962 L500.822895,29.1069962 C500.816367,28.9531431 500.804198,28.7988328 500.804198,28.6444082 C500.803091,24.6207956 500.800657,20.5970688 500.805083,16.5733419 C500.806189,15.5031142 500.714254,14.4523182 500.324054,13.4474724 C499.638355,11.6818196 498.346503,10.7511571 496.506357,10.7295536 C495.947885,10.7230383 495.378572,10.7094361 494.832049,10.8060229 C493.564093,11.0301729 492.720301,11.8481318 492.185062,13.0246622 C491.704586,14.0809448 491.561096,15.2098104 491.560543,16.3634799 C491.558773,20.4409296 491.559879,24.5184936 491.559879,28.5960576 L491.559879,29.1068819 L486.398664,29.1068819 L486.398664,28.625548 C486.398664,24.5480983 486.398111,20.4705343 486.398996,16.3929703 C486.399217,15.3345159 486.273429,14.2983508 485.86077,13.319452 C485.171753,11.6849058 483.980354,10.7798473 482.235131,10.7349259 C481.625437,10.7192663 481.001913,10.7045211 480.405495,10.812081 C479.022482,11.0617208 478.171277,12.0009562 477.658607,13.2993345 C477.300159,14.2072506 477.162975,15.1622599 477.162533,16.1395585 C477.160762,20.2978211 477.159656,24.4560837 477.158329,28.6142319 C477.158218,28.7719714 477.158329,28.9297108 477.158329,29.1111111 L472.188176,29.1111111 C472.174789,29.0267548 472.151999,28.9509713 472.152109,28.8751878 C472.158194,24.2729688 472.125005,19.6700639 472.191826,15.0687593 C472.22402,12.8477197 472.829732,10.7640734 474.230889,9.00847937 C475.575292,7.3240967 477.365432,6.48064802 479.417771,6.16619791 C479.892493,6.09350061 480.371974,6.05452297 480.849352,6 L482.490691,6 C482.669473,6.02423243 482.849582,6.04046359 483.026594,6.07418325 C483.930902,6.24643927 484.852026,6.35845712 485.733986,6.614155 C486.964659,6.97089756 488.023852,7.67901039 488.931479,8.6222464 C488.992105,8.5756104 489.037907,8.54886328 489.07342,8.51182881 C490.218021,7.32043897 491.613757,6.61381209 493.190488,6.28793159 C493.862247,6.14905232 494.550158,6.09338631 495.230767,6 L496.872107,6 Z M541.254386,6.88888889 L567.829099,6.88888889 L567.829099,11.7998551 L546.391315,11.7998551 L546.391315,25.0513399 L562.687824,25.0513399 L562.687824,21.1257978 L553.472199,21.1257978 L553.472199,16.9938762 L567.833333,16.9938762 L567.833333,30 L541.254386,30 L541.254386,6.88888889 Z M626.307018,30 L620.155476,29.999883 C619.049404,27.8483716 617.930207,25.6713639 616.813142,23.4983326 L607.755819,23.4983326 L607.755819,30 L602.385965,30 L602.385965,6.91511009 C602.510918,6.90715713 602.649219,6.89090033 602.787521,6.89078337 C607.581624,6.88949686 612.375728,6.88692384 617.169831,6.8914851 C618.524577,6.89277161 619.856777,7.06340954 621.128071,7.58538147 C624.052585,8.7859286 625.677652,11.0327587 625.939,14.2862239 C626.130131,16.6647458 625.606651,18.8668989 624.027572,20.6798245 C623.535723,21.2443682 622.932716,21.7034181 622.342721,22.2455064 C623.636336,24.7758364 624.960124,27.3652288 626.307018,30 Z M607.701754,18.4005143 L607.701754,11.3668838 C607.848918,11.3558281 607.985959,11.3368077 608.122888,11.3366889 C611.068936,11.3350246 614.015095,11.3296751 616.961142,11.3374021 C618.958581,11.3427516 620.064809,12.4681658 620.104186,14.6020186 C620.116088,15.245503 620.029548,15.9247695 619.835332,16.5318774 C619.455688,17.7185135 618.59718,18.4013464 617.43222,18.4179893 C614.237897,18.4635194 611.042685,18.4364153 607.847805,18.4366531 C607.810764,18.4366531 607.773723,18.4189403 607.701754,18.4005143 Z M637.290615,24.2571636 L647.200646,24.2571636 L647.200646,6 L652,6 L652,29.1111111 L632.508772,29.1111111 L632.508772,6.00091673 L637.290615,6.00091673 L637.290615,24.2571636 Z M590.23149,6.88888889 L595.271796,6.88888889 C595.280977,7.01141881 595.29542,7.11487837 595.29542,7.21822373 C595.295644,11.5871633 595.305049,15.9561028 595.288255,20.3250424 C595.281649,22.0336096 594.987972,23.6942155 594.261563,25.2506766 C593.155938,27.6196264 591.310244,29.0751402 588.825695,29.6378872 C586.69181,30.1213836 584.522546,30.1262939 582.3937,29.618931 C578.832524,28.7704713 576.788209,26.3843924 576.085312,22.7832917 C575.896544,21.8156137 575.830038,20.809795 575.823433,19.8206485 C575.795554,15.6401287 575.811453,11.4592663 575.812237,7.27851804 C575.812348,7.15929974 575.822201,7.04008144 575.828583,6.89494116 L580.880086,6.89494116 L580.880086,7.36393498 C580.880086,11.3968023 580.883109,15.4296695 580.877958,19.4625368 C580.876615,20.5188292 580.968983,21.5571932 581.366673,22.5439416 C582.060949,24.2663263 583.291524,25.2258965 585.149981,25.2523895 C585.728601,25.2606115 586.317073,25.2801386 586.884721,25.189012 C588.104883,24.9932838 588.956802,24.2469133 589.513813,23.144715 C590.0706,22.0429735 590.23093,20.8513615 590.231266,19.6290314 C590.231938,15.5558537 590.23149,11.4827902 590.23149,7.4094983 L590.23149,6.88888889 Z M518.36453,30 L512.903509,30 C515.58407,22.2742302 518.252243,14.5837818 520.922008,6.88888889 L526.719775,6.88888889 C529.490575,14.5670568 532.264102,22.2521252 535.052632,29.9790645 L529.591383,29.9790645 C529.173376,28.7053932 528.747755,27.4086812 528.317247,26.0972325 L519.584114,26.0972325 C519.183723,27.3783891 518.777081,28.6798964 518.36453,30 Z M523.530646,12.2253832 C524.415096,15.1773203 525.299546,18.1292573 526.192982,21.1111111 L520.877193,21.1111111 C521.742842,18.1254189 522.598678,15.1738206 523.454411,12.2222222 C523.479823,12.2232383 523.505234,12.2243672 523.530646,12.2253832 Z M464.175439,25.5980675 L464.175439,30 L450,30 L450,25.6158593 L454.526873,25.6158593 L454.526873,11.3018241 L450,11.3018241 L450,6.88888889 L464.168726,6.88888889 L464.168726,11.2657725 L459.968406,11.2657725 L459.968406,25.5980675 L464.175439,25.5980675 Z"></path>
        </g>
    </g>
</svg>