<?xml version="1.0" encoding="UTF-8"?>
<svg width="123px" height="44px" viewBox="0 0 123 44" version="1.1" xmlns="http://www.w3.org/2000/svg" xmlns:xlink="http://www.w3.org/1999/xlink">
    <!-- Generator: Sketch 48.2 (47327) - http://www.bohemiancoding.com/sketch -->
    <title>epam</title>
    <desc>Created with Sketch.</desc>
    <defs></defs>
    <g id="partners" stroke="none" stroke-width="1" fill="none" fill-rule="evenodd" transform="translate(-518.000000, -250.000000)">
        <g transform="translate(231.000000, 250.000000)" fill="#151515" id="epam">
            <path d="M310.342629,15.2640449 L317.180414,15.2640449 L317.180414,7.99761798 C317.180414,5.9701573 316.168159,4.95617978 314.141673,4.95617978 L313.381865,4.95617978 C311.355873,4.95617978 310.342629,5.9701573 310.342629,7.99761798 L310.342629,15.2640449 L310.342629,15.2640449 Z M310.327315,19.9008539 L310.342629,27.8930337 C310.342629,29.9204944 311.355873,30.9344719 313.381865,30.9344719 L314.268143,30.9344719 C316.294629,30.9344719 317.307378,29.9204944 317.307378,27.8930337 L317.307378,23.9646742 L321.992701,23.9646742 L321.992701,27.703191 C321.992701,32.8353708 319.3971,35.4328539 314.268143,35.4328539 L313.255394,35.4328539 C308.126438,35.4328539 305.530837,32.8353708 305.530837,28.3038652 L305.530837,8.78862921 C305.530837,3.0552809 308.126438,0.457303371 313.255394,0.457303371 L314.268143,0.457303371 C319.3971,0.457303371 321.992701,3.0552809 321.992701,8.18795506 L321.977386,19.9008539 L310.327315,19.9008539 Z M325.118884,0.837483146 L329.931171,0.837483146 L329.931171,3.0552809 C331.070884,1.85146067 333.033641,0.457303371 335.819442,0.457303371 C339.935155,0.457303371 341.961147,3.1818427 341.961147,7.23725843 L341.961147,28.6533933 C341.961147,32.7083146 339.935155,35.4328539 335.819442,35.4328539 C333.033641,35.4328539 331.070884,34.1024719 329.931171,32.9619326 L329.931171,44 L325.118884,44 L325.118884,0.837483146 Z M329.931171,29.0968539 C331.26059,30.2373933 332.780207,30.8706966 334.36306,30.8706966 C336.136112,30.8706966 337.149355,30.0475506 337.149355,28.0833708 L337.149355,7.80777528 C337.149355,5.84310112 336.136112,5.01946067 334.36306,5.01946067 C332.780207,5.01946067 331.26059,5.65325843 329.931171,6.79379775 L329.931171,29.0968539 L329.931171,29.0968539 Z M356.293976,28.850041 L356.293976,17.5559042 L352.02135,19.2122523 C350.287272,19.9098182 349.730183,20.7973596 349.730183,22.7629124 L349.730183,27.9624996 C349.730183,29.6109321 350.535135,30.4346535 352.02135,30.4346535 C353.445236,30.4346535 354.745916,29.9275577 356.293976,28.850041 L356.293976,28.850041 Z M345.023675,22.6995873 C345.023675,18.4513612 346.3862,16.7396037 349.977563,15.4716168 L356.293976,13.2522687 L356.293976,7.54558562 C356.293976,5.51670766 355.303005,4.43869618 353.321546,4.43869618 L352.554764,4.43869618 C350.573305,4.43869618 349.582334,5.51670766 349.582334,7.54558562 L349.582334,12.3949057 L345,12.3949057 L345,7.73605575 C345,2.59979363 347.539031,0 352.554764,0 L353.445236,0 C358.460969,0 361,2.59979363 361,7.73605575 L361,34.6195545 L356.293976,34.6195545 L356.293976,32.4640262 C354.993779,33.7320131 353.259701,35 350.535135,35 C346.757753,35 345.023675,32.7806519 345.023675,28.9766913 L345.023675,22.6995873 Z M380.418073,35 L375.58143,35 L375.58143,7.11583806 C375.58143,5.38476928 374.754717,4.61551653 373.290963,4.61551653 C371.95432,4.61551653 370.554618,5.12818498 368.836147,6.34658531 L368.836147,35 L364,35 L364,0.384626377 L368.836147,0.384626377 L368.836147,2.62836361 C370.236346,1.28242137 372.081927,0 374.754717,0 C377.236346,0 378.890765,1.02583706 379.781529,2.82092688 C381.5,1.3464424 383.536246,0 386.336147,0 C390.090864,0 392,2.30825843 392,6.090001 L392,35 L387.163357,35 L387.163357,7.11583806 C387.163357,5.38476928 386.336147,4.61551653 384.872393,4.61551653 C383.536246,4.61551653 382.136048,5.12818498 380.418073,6.34658531 L380.418073,35 Z M299,4 L299,10.2853313 L291.140014,18 L299,25.5768715 L299,32 L287,20.3810767 L287,15.7567205 L299,4 Z M410,15.7567205 L410,20.3810767 L398,32 L398,25.5768715 L405.859986,18 L398,10.2853313 L398,4 L410,15.7567205 Z"></path>
        </g>
    </g>
</svg>