<?xml version="1.0" encoding="utf-8"?>
<!-- Generator: Adobe Illustrator 15.0.0, SVG Export Plug-In  -->
<!DOCTYPE svg PUBLIC "-//W3C//DTD SVG 1.1//EN" "http://www.w3.org/Graphics/SVG/1.1/DTD/svg11.dtd" [
	<!ENTITY ns_flows "http://ns.adobe.com/Flows/1.0/">
]>
<svg version="1.1"
	 xmlns="http://www.w3.org/2000/svg" xmlns:xlink="http://www.w3.org/1999/xlink" xmlns:a="http://ns.adobe.com/AdobeSVGViewerExtensions/3.0/"
	 x="0px" y="0px" width="647px" height="545px" viewBox="0.28 -3.304 647 545" enable-background="new 0.28 -3.304 647 545"
	 xml:space="preserve">
<defs>
</defs>
<path d="M271.33,20.826C310,4.466,352.559-2.224,394.41,0.646c40.97,3.08,81.25,15.48,116.641,36.41
	c31.72,18.69,59.579,43.91,81.31,73.64c25.37,34.62,42.301,75.41,48.7,117.87c4.91,33.66,3.91,68.34-4.141,101.438
	c5.24,10.25,7.86,22.052,6.091,33.512c-2.021,17.25-13.08,33.028-28.479,41.02c-3.511,2.41-8.711,2.45-11.101,6.28
	c-28.051,44.938-69.511,81.479-117.86,103.21c-10.09,4.71-20.6,8.44-31.149,11.96c-0.55,0.12-1.64,0.36-2.189,0.48
	c-50.819,15.6-106.29,15.05-157.04-0.62c-37.989-12.03-73.38-32.33-102.6-59.46c-27.979-25.79-50.439-57.54-65.33-92.57
	c-6.64-15.37-11.45-31.45-15.37-47.69c-7-4.278-15.439-5.5-23.5-4.568c-16.649,1.72-32.399,7.738-48.51,11.858
	c11.48-8.46,24-15.5,36.98-21.37c-20.62,0.271-40.84,5.12-60.84,9.762c-5.36,1.33-10.721,2.699-16.021,4.229
	c20.59-22.029,47.68-36.938,75.61-47.6c-9.551-1.22-19.23-2.352-28.351-5.62c-8.55-2.86-16.52-7.29-23.68-12.75
	c6.9-0.21,13.83,0.229,20.71-0.57c21.24,0.15,43.54-1,62.48-11.67c3.479-46.05,19.319-91.1,45.319-129.25
	C181.29,75.406,223.21,40.906,271.33,20.826z"/>
<path fill="#F9FCFA" d="M345.299,10.256c34.07-3.5,68.9-1.19,101.82,8.56c69.63,19.84,129.75,70.28,161.51,135.32
	c15.7,31.52,24.841,66.329,26.45,101.51c-0.229,7.358,1.101,14.7,0.13,22.04c-0.22,14.488-2.17,28.88-4.84,43.108
	c-1.931-1.81-3.899-3.568-5.939-5.238c2.93-18.78,5.061-37.852,3.84-56.87c-0.261-4.972-0.42-9.94-0.91-14.892
	c-3.979-39.479-17.31-78.01-38.89-111.33c-21.711-33.829-51.561-62.399-86.301-82.609c-36-20.96-77.239-33.09-118.92-34.08
	c-5.01-0.74-10.09-0.2-15.13-0.37l-0.67,0.49c-43.75,0.62-87.051,14.05-124.351,36.74c-36.56,22.38-67.37,54.1-88.55,91.38
	c-16.34,28.47-26.899,60.199-31.109,92.739c-1.971,2.4-4.891,3.74-7.49,5.33c4.75-48.488,24.04-95.319,54.14-133.58
	c31.42-40.09,74.79-70.75,123.17-86.729C310.16,16.186,327.629,12.346,345.299,10.256z"/>
<path fill="#FCFDFC" d="M356.78,31.216c5.17-2.61,12.369-3,16.67,1.43c2.939,2.65,3.409,6.82,4.39,10.44
	c-2.81,0.24-5.63,0.4-8.439,0.37c-0.96-1.78-1-4.61-3.22-5.35c-1.79-0.46-3.63,0.05-5.41,0.25c-0.141,1.5-0.22,3-0.26,4.51
	c5.079,1.87,10.779,2.93,14.76,6.9c4.45,4.2,4.101,11.38,1.439,16.46c-3.97,7.46-15.101,8.489-21.3,3.35
	c-3.311-3.13-3.939-7.81-4.62-12.07c3.021,0,6.04,0,9.061-0.03c0.66,1.83,0.92,3.89,2.17,5.47c1.229,1.85,3.609,1.13,5.479,1.23
	c1.319-2.32,2.061-5.061,1.189-7.67c-2.909-2.74-7.239-2.7-10.67-4.49C350.099,48.556,349.259,35.546,356.78,31.216z"/>
<path fill="#FBFDFA" d="M396.439,31.646c4.95-1,11.13-0.85,14.78,3.21c3.01,3.06,3.39,7.62,3.35,11.68
	c-2.609-0.07-5.21-0.29-7.789-0.61c-0.851-1.86-1.36-3.84-2.131-5.73c-1.71-0.25-3.75-1.65-5.311-0.37
	c-2.021,0.93-2.279,4.08-0.119,5c4.239,2.25,9.061,3.99,12.021,8c3.76,4.66,2.649,11.64-0.53,16.3
	c-5.109,7.23-17.55,6.851-22.42-0.399c-2.26-3.351-2.101-7.59-2.239-11.44c2.97,0.36,5.939,0.77,8.93,0.93
	c0.53,2.29,0.301,5.01,2.08,6.79c1.021,0.601,2.2,0.851,3.33,1.181c0.58-0.32,1.72-0.95,2.29-1.271c1.229-2.18,1.489-4.66,1.04-7.1
	c-4.011-2.54-8.931-3.78-12.271-7.26C386.75,44.696,388.8,33.966,396.439,31.646z"/>
<path fill="#FBFDFA" d="M316.25,37.856c3.681-2.91,8.75-3.62,13.229-2.46c5.24,1.86,8.75,6.98,9.479,12.39
	c-2.939,0.75-5.891,1.48-8.88,1.92c-0.46-1.45-0.91-2.9-1.359-4.34c-1.58-0.36-3.15-0.71-4.729-1.06c-1.57,1.09-3.58,1.97-4,4.05
	c0.92,5.55,2.1,11.06,3.399,16.52c0.71,3.7,5.92,4.891,8.399,2.21c1.681-1.46,1.05-3.939,1.391-5.88c2.71-0.85,5.46-1.7,8.29-2.08
	c1.909,2.62,1.75,6.22,0.979,9.23c-1.96,5.27-7.431,8.14-12.58,9.46c-6.801,0.95-14.479-3.67-15.54-10.74
	c-1.2-6.18-2.471-12.35-3.521-18.55C309.95,44.166,312.969,40.316,316.25,37.856z"/>
<path fill="#FBFDFA" d="M456.24,58.906c2.22-4.65,6.449-9.25,12.029-9.01c7.74,0.05,16.5,6.42,15.2,14.92
	c-1.12,5.85-4.511,10.91-6.62,16.42c-2.399,5-4.149,10.34-7.03,15.1c-2.729-0.71-5.199-2.109-7.76-3.239
	c0.641-3.82,2.75-7.12,4.189-10.65c2.359-5.59,5.05-11.04,7.28-16.68c0.92-1.88-0.271-3.69-0.87-5.44
	c-2.38-0.35-5.681-1.16-6.96,1.58c-4.051,8.89-7.881,17.88-11.939,26.76c-3.311-0.33-6.271-1.95-9.091-3.58
	C448.459,76.335,452.429,67.656,456.24,58.906z"/>
<path fill="#FAFDFA" d="M243.66,68.526c2.6-1.561,5.17-3.2,7.899-4.53c6.11,9.66,11.38,19.84,17.4,29.561
	c4.52-2.551,8.91-5.311,13.52-7.66c1.54,2.54,3,5.12,4.351,7.76c-7.261,3.91-14.28,8.25-21.49,12.271
	C258.09,93.465,251.03,80.906,243.66,68.526z"/>
<path fill="#FBFDFA" d="M495.25,71.616c6.49-4.32,16.431-1.81,20.069,5.08c1.091,1.82,1.61,3.9,2.311,5.9
	c-0.2,2.81-0.58,5.77-2.34,8.09c-3.79,5.24-7.311,10.68-11.28,15.779c-2.909,3.641-8.05,4.41-12.38,3.421
	c-8.08-1.53-14.05-10.851-10.771-18.681c2.08-3.76,4.859-7.09,7.189-10.7C490.33,77.456,492.139,73.926,495.25,71.616z"/>
<path fill="#010101" d="M497.439,81.715c1.08-1.77,2.96-2.689,4.801-3.5c1.521,0.671,3.04,1.36,4.54,2.101
	c0.81,2.26,1.84,4.939,0.239,7.13c-2.37,3.64-4.88,7.19-7.439,10.69c-2.37,2.89-6.681,3.04-9.521,0.77
	c-0.399-1.12-0.8-2.22-1.2-3.33C490.75,90.416,494.439,86.236,497.439,81.715z"/>
<path fill="#FBFDFB" d="M219.399,86.835c4.96-5.17,14.41-6.29,19.591-0.84c6.869,7.45,13.949,14.73,20.64,22.37
	c-2.18,2.01-4.29,4.1-6.47,6.1c-7.15-6.8-13.29-14.579-20.4-21.409c-1.49-1.591-3.8-0.92-5.71-0.98c-1.23,1.89-2.59,4.561-0.83,6.59
	c6.33,7.17,12.97,14.08,19.58,21c-0.03,0.61-0.05,1.23-0.07,1.851c-2.25,1.8-4.279,3.85-6.41,5.79
	c-5.96-6.601-12.22-12.931-18.109-19.591c-1.65-1.68-3.45-4.029-6.13-3.27c-2.75,0.77-4.44,4.5-2.12,6.67
	c6.57,7.36,13.39,14.5,20.18,21.67c-2.01,2.44-4.43,4.48-6.84,6.521c-6.81-7.07-13.39-14.37-20.16-21.471
	c-3.939-3.76-4.63-9.92-2.479-14.79c1.739-5.1,6.989-8.029,12.189-8.27C216.599,91.965,217.309,88.996,219.399,86.835z"/>
<path fill="#FFFFFF" d="M299.049,101.326c35.381-16.24,76-20.57,114.051-12.45c36.75,7.681,70.84,27.141,96.439,54.551
	c13.99,15.069,25.511,32.399,33.939,51.159c5.7,13.38,10.34,27.312,12.66,41.71c-19.13-3.75-38.021-8.84-56.391-15.39
	c-8.72-3.15-17.359-6.63-25.51-11.07c-1.29-0.67-2.44-1.55-3.33-2.68c-3.69-4.38-7.38-8.74-11.08-13.1
	c-0.931-1.71-2.931-1.062-4.479-1.142c-0.341-1.778-0.601-3.568-0.83-5.35c-3.63-3.7-3.551-8.96-3.721-13.79
	c-1.5-14.65-0.779-29.71-5.1-43.96c-5.67-12.62-17.29-22.83-31.12-25.23c-9.771-1.529-19.88-0.77-29.38,1.95
	c-17.66,4.95-33.801,14.061-49.11,23.97c-13.829,9.091-26.97,19.2-39.689,29.771c-15.729,0.87-30.27,7.54-44.09,14.59
	c-9.06,4.41-18.1,9.29-28.05,11.37c-4.95,0.63-9.93,1.01-14.8,2.189C228.069,150.196,260.3,118.835,299.049,101.326z"/>
<path fill="#FBFDFB" d="M527.229,92.696c1.689-1.7,3.16-4.15,5.891-3.98c4.41,5.37,11.489,8.9,13.359,16.03
	c0.641,3.891-0.21,8.24-3,11.15c-4.08,4.59-8.261,9.1-12.59,13.46c-3.46,3.64-9.12,3.939-13.641,2.49
	c-5.689-3.07-10.05-8.021-14.75-12.37C510.509,110.335,519.129,101.755,527.229,92.696z"/>
<path fill="#010001" d="M532.429,101.526c2.561,1.54,4.659,3.84,4.811,6.99c-4.54,4.91-9.07,9.84-13.7,14.67
	c-1.431-0.03-2.87-0.05-4.29-0.08c-1.21-1.18-2.431-2.36-3.641-3.521C521.3,113.646,526.919,107.636,532.429,101.526z"/>
<path fill="#FFFFFF" d="M360.399,134.686c13.931-8.01,28.75-15.58,44.931-17.431c10.26-1.38,21.819,1.65,28.229,10.25
	c5.229,5.721,5.811,13.811,6.521,21.15c0.92,7.37,0.51,14.84,1.649,22.2c-2.87,0.55-5.71,1.37-8.63,1.6
	c-1.5-0.71-2.99-1.399-4.311-2.39c-0.51-2-0.82-4.04-1.13-6.08c-11.79,2.19-24.221,4.63-33.87,12.229
	c-4.851,3.7-7.721,9.421-8.721,15.36c-0.01,1.79-0.05,3.59,0.08,5.4c1.631,1.358,3.971,1,5.939,1.488
	c-2.75,5.052-5.21,10.342-5.96,16.102c0,1,0,3,0,4c4.61-0.72,8.53-3.36,12.841-4.95c-0.189,1.03-0.561,3.09-0.74,4.12
	c-0.09,1.4-0.17,2.8-0.239,4.2c0.899,2.22,1.989,4.35,3.25,6.38c6.21-1.352,11.579-4.94,17.51-7.062
	c-0.17,0.86-0.51,2.58-0.681,3.44c0.24,0.68,0.711,2.03,0.939,2.7c6.381-1.562,12.44-4.3,17.811-8.08
	c7.011-4.5,13.82-10.41,22.351-11.521c4.761,3,6.979,9.2,12.011,12.092c8.18,4.938,17.061,8.578,25.96,12
	c18.279,6.79,37.09,12.148,56.17,16.158c9.92,2.17,20.029,3.65,29.649,6.99c5.38,1.95,10.801,5.24,13.181,10.69
	c4.479,10.71,4.42,23.38-0.859,33.79c-4.729,8.72-13.171,15.84-23.051,17.738c-39.561,9.15-79.761,15.302-119.979,20.65
	c-11.95,1.32-23.87,2.76-35.851,3.771c-27.619,2.471-55.351,3.859-83.101,3.521c-9.09,0.13-18.26-0.08-27.14-2.189
	c-3.479-1.319-7.051-2.801-9.561-5.659c-3.439-3.341-4.399-8.2-5.28-12.71c-1.47-8.28-3.439-16.521-3.72-24.961
	c-0.31-7.341,2.181-14.351,3.57-21.471c4.31-21.479,7.689-43.17,13.18-64.41c0.729-2.6,0.319-5.35,1.04-7.948
	c2.891-12.08,6.3-24.021,9.42-36.041c0.37-1.03,0.51-2.271,1.38-3C329.58,155.186,344.459,144.096,360.399,134.686z"/>
<path fill="#FBFDFB" d="M526.219,143.136c11.67-8.44,23.3-16.931,34.989-25.341c4.17,6.011,8.58,11.851,12.82,17.811
	c-2.41,1.7-4.681,3.62-7.29,5c-2.86-3.24-5.25-6.87-7.75-10.391c-1.86,1.301-3.74,2.57-5.62,3.83c0.109,2.92,2.521,4.91,3.899,7.311
	c-2.21,1.649-4.45,3.28-6.75,4.81c-1.529-2.13-3-4.3-4.72-6.27c-1.99,1.16-3.851,2.51-5.73,3.819
	c-0.329,0.41-0.989,1.23-1.319,1.641c2.54,3.43,5.08,6.859,7.471,10.41c-2.37,1.8-4.801,3.51-7.311,5.109
	C534.759,154.906,530.069,149.306,526.219,143.136z"/>
<path fill="#FCFDFA" d="M185.189,122.556c0.94-1.271,1.71-2.73,3.021-3.66c2.609,1.16,4.689,3.22,7,4.88
	c-1.82,2.53-3.69,5.01-5.37,7.65c9.229,6.609,18.34,13.38,27.59,19.949c-1.37,2.601-3.18,4.92-4.95,7.25
	c-9.41-6.66-18.63-13.58-28.05-20.22c-1.6,2.37-3.12,4.81-4.96,7c-2.93-0.15-4.97-3.03-7.42-4.42
	C176.04,134.576,180.929,128.786,185.189,122.556z"/>
<path fill="#FCFEFB" d="M161.75,160.056c1.57-3.051,3.15-6.101,5.06-8.95c12.351,6.72,25.021,12.939,37.17,20.01
	c0.15,3.38-2.71,6.4-4.3,9.311c-5.11-2.44-9.79-5.801-15.13-7.7c-0.79,1.739-1.6,3.489-2.39,5.25c4.819,2.88,10.159,4.88,14.729,8.2
	c-1.47,2.979-3.08,5.891-4.64,8.819c-12.67-6.37-25.09-13.25-37.63-19.84c-0.47-1.9,1.17-3.65,1.84-5.36
	c0.89-1.25,1.25-3.229,2.82-3.779c5.08,2.27,9.779,5.33,14.859,7.63c0.94-1.75,1.9-3.49,2.92-5.2
	C171.979,165.606,166.78,162.976,161.75,160.056z"/>
<path fill="#F6FCF8" d="M543.37,164.816c1.13-3.08,4.949-3.271,7.38-1.66c1.061,2.18,1.149,4.49-0.061,6.63
	c-1.22,0.48-2.43,0.96-3.641,1.46C544.819,169.996,541.53,167.746,543.37,164.816z"/>
<path fill="#F8FBF9" d="M395.859,184.926c9.181-7.9,20.74-11.9,32.109-15.461l0.82,0.601c1.319,0.99,2.811,1.68,4.311,2.39
	c-12.631,4.99-24.801,11.07-37.261,16.45C395.819,187.566,395.83,186.255,395.859,184.926z"/>
<path fill="#FCFDFB" d="M553.969,178.476c1.67-3.94,5.46-6.34,9.229-7.99c1.29,2.97,2.649,5.91,3.92,8.9
	c-2.59,1.39-5.011,3.439-4.45,6.68c1.5,0.38,3.07,1.7,4.66,0.89c9.47-3.81,18.521-8.58,27.88-12.64
	c1.351,3.14,2.88,6.189,4.141,9.37c-6.811,3.29-13.74,6.34-20.551,9.63c-4.699,1.89-9.58,4.7-14.819,3.71
	C555.939,195.686,550.45,185.936,553.969,178.476z"/>
<path fill="#FFFFFF" d="M232.359,199.306c23.921-4.82,43.23-22.87,67.801-25.4c-2.841,11.61-6.28,23.07-9.07,34.7
	c-0.84,3.64-0.7,7.45-1.83,11.03c-6.39,24.81-9.6,50.3-15.55,75.21c-1.61,7.479-0.71,15.21,0.71,22.648
	c0.71,4.971,1.76,9.93,3.7,14.59c-8.19,0.352-16.23,3.142-23.2,7.392c-7.95,4.68-13.92,12.898-23.51,14.438
	c-12.011,0.87-22.33-6.85-34.08-7.739c-4.261-0.021-8.23,2.109-12.521,1.939c0.78-0.58,1.561-1.14,2.351-1.7
	c6.01-3.148,11.989-6.79,18.84-7.77c8.359-0.95,16.77-1.54,25.069-2.92c4.54-0.82,8.721-2.96,12.181-5.99
	c4.56-3.84,12.05-4.67,14.13-10.99c0.439-4.5-0.5-11.76-6.13-12.358c-4.8,0.688-8.75,3.898-12.45,6.81
	c-6.16,4.85-11.72,10.5-18.37,14.71c-2.99,2.062-6.77,1.46-10.189,1.51c-5.061-0.08-9.87-1.989-14.891-2.37
	c-7.59,0.802-14.84,3.392-22.03,5.83c-5.51,1.7-11.14,3.562-16.979,3.271c-7.93-0.23-15.49-3.12-22.5-6.65
	c4.82-0.16,9.69,0.271,14.48-0.52c16.21-2.33,30.88-10.19,46.67-14.08c5.04-1.48,10.47,0.04,15.43-1.891
	c7.45-2.58,14.47-8.811,15.49-16.971c0.51-3.16-0.74-6.1-2.21-8.79c-4.48-4.069-10.71-1.608-15.311,0.892
	c-13.28,7.52-24.189,18.52-37.37,26.188c-3.569,2.03-7.649,3.23-11.779,3.062c-8.83-0.24-17.29-3.052-25.971-4.4
	c-8.01-1.49-16.18-1.2-24.279-0.88c15.25-7.38,32.64-6.61,48.97-9.601c5.98-1.149,12.5-1.939,17.39-5.869
	c1.94-1.4,2.01-3.98,2.34-6.12c-2.05-5.75-6.8-11.23-13.319-11.36c-10.11,0.312-18.51,6.71-26.64,12
	c-5.62,3.63-11.301,8.87-18.511,8.021c-7.39-1-14.609-3.439-22.14-3.341l-0.65-0.43c-7.25-0.13-14.489,0.641-21.609,1.97
	c6-3.75,12.06-7.658,18.939-9.58c8.13-2.369,16.74-1.42,25-2.92c13.771-3.898,22.65-16.188,34.96-22.738
	c3.681-1.79,7.86-3.28,11.99-2.37c10.39,1.68,16.56,11.818,26.51,14.55c8.88,2.18,18.17-1.19,25.35-6.4
	c3.9-2.71,7.091-6.6,8.15-11.31c-1.79-4.98-8.01-5.95-12.62-5.521c-7.729,0.69-12.27,7.771-18.79,11.04
	c-9.72-1.068-16.819-8.47-25.739-11.608c-5.74-1.45-12.4-0.75-17.051,3.188c-7.409,5.96-15.18,11.94-24.47,14.63
	c-10.79,3.5-22.439,1.762-32.979-1.778c11.02-1.12,22.2-3.472,31.75-9.341c11.71-6.979,20.42-19.381,34.46-22.039
	c7.81-2.03,15.529,1.47,22.239,5.17c4.24,2.119,8.851,4.63,13.75,3.698c7.391-1.68,12.75-7.39,18.98-11.27
	c2.95-1.91,6.939-2.08,9.18-5.05c1.88-1.562,1.25-4.13,1.41-6.261c-1.92-2.131-4.53-3.811-7.521-3.229
	c-9.72,0.84-15.47,10.311-24.52,12.89c-3.44,0.74-6.71-0.84-9.92-1.84c-5.33-1.85-10.91-3.22-16.6-2.96
	c-5.21-0.26-10.16,1.54-15.221,2.431c2.381-2.109,4.73-4.369,7.721-5.601c7.1-3.22,15.14-1.84,22.59-3.49
	c6.79-1.67,11.989-6.59,17.8-10.159c6.07-4.131,12.92-7.149,20.149-8.54C224.269,200.005,228.389,200.226,232.359,199.306z"/>
<path fill="#EEFAF9" d="M402.479,198.946c8.41-5.98,16.5-12.79,26.149-16.72c-2.18,2.47-4.64,4.661-7.239,6.649
	c-9.92,7.682-19.979,15.17-30.28,22.33C393.169,205.835,398.33,202.606,402.479,198.946z"/>
<path fill="#FDFDFC" d="M437.24,191.816c2.859-1,5.949-1.28,8.92-0.58c0.229,5.41-4.96,8.57-8.41,11.9
	c-10.779,8.6-23.33,14.618-36.04,19.778c0.75-5.29,2.551-10.33,4.439-15.29C416.149,201.706,426.149,195.505,437.24,191.816z"/>
<path fill="#FBFEFB" d="M584.99,205.516c2.189-4.062,6.979-5.65,11.29-6.13c8.34,0.118,13.06,9.96,11.14,17.229
	c-1.3,4.97-6.13,7.49-10.529,9.24c-0.761-2.71-1.45-5.44-2.149-8.16c1.51-1.271,4.35-1.82,4.34-4.21
	c0.05-1.44-0.25-2.85-0.399-4.271c-1.41-0.43-2.83-0.818-4.25-1.13c-0.341,0.591-1.011,1.75-1.351,2.341
	c-0.21,5.899-0.59,12.671-5.319,16.891c-3.461,3.52-8.851,3.43-13.381,2.76c-7.88-2.1-11.51-11.91-8.659-19.109
	c2.029-4.391,6.689-6.461,10.979-8.029c0.891,2.91,1.63,5.858,2.33,8.818c-2.25,1.4-6.189,2.472-5.561,5.892
	c-0.37,1.8,1.42,2.64,2.449,3.76c2.271-0.24,5.221,0.11,6.591-2.189C583.689,214.726,582.969,209.795,584.99,205.516z"/>
<path fill="#010102" d="M336,249.585c2.681-8.818,11.351-13.979,20.101-15.06c6.979-0.42,14.561,0.67,20.08,5.31
	c3.79,2.91,5.239,7.67,6.55,12.062c2.141,0,4.29,0.05,6.439,0.2c0.36-5.65,5.2-9.92,10.221-11.762c3.109-1.27,6.069,0.5,8.789,1.83
	c2.312-1.12,4.36-3.25,7.15-2.858c2.391-0.271,4.79,2.028,7.061,0.68c3.369-1.87,7.729-2.45,11.101-0.26
	c3.529,1.648,4.729,5.66,5.649,9.13c7.08-2.47,15.569-2.99,21.819,1.85c1.83-0.81,3.641-1.67,5.45-2.54
	c1.311-6.05,7.96-10.02,13.899-8.46c6.569,1.41,10.819,9.7,6.55,15.45c1.021,3.5,1.301,7.24-0.04,10.71
	c2.641,2.62,5.511,5.79,4.891,9.83c0.49,5.47-3.561,9.82-7.739,12.7c2.68,4.08,1.029,8.97,2.579,13.34
	c1.011,4.2,0.23,9.05-3.149,12.021c-4.641,4.961-12,4.229-18.13,5.351c-1.12-0.72-2.239-1.44-3.359-2.13
	c-6.24,2.938-13.95,3.479-19.69-0.892c-2.26,2.142-4.979,3.682-7.96,4.562c-3.05,4.188-7.069,8.38-12.39,9.31
	c-5.141,0.182-8.721-4.449-9.641-9.108c-5.16,1.62-10.479,0.89-15.5-0.841c-4.391,3.521-10.489,3.939-15.699,2.189
	c-2.23,4.35-5.37,8.34-9.852,10.53c-9.56,4.779-22.699,3.18-29.56-5.49c-5.729-7.07-4.79-18.13,1.96-24.22
	c-1-2.19-1.771-4.471-2.189-6.83c-1.351-0.4-2.689-0.811-4.021-1.2c-1.28,0.67-2.561,1.34-3.83,2.021
	c-6.771,0.021-13.62-0.67-20.25,1.091c-1.87-1.341-4.101-2.36-5.33-4.38c-1.16-2.07-0.92-4.5-0.979-6.771
	c-8.66-2.54-11.471-14.64-5.46-21.06c3.721-4.011,9.489-4.671,14.659-4.432c3.271-1.59,7.141-3.72,10.641-1.29
	c4.391,1.921,3.771,7.37,6.021,10.852c3.341,2.229,7.08-0.91,10.681-0.92C336.269,266.306,334.25,257.036,336,249.585z"/>
<path fill="#F9FCFA" d="M352.379,242.076c5.86-1.74,12.591-1.61,17.939,1.57c5.65,3.14,7.479,11.47,3.61,16.67
	c-1.61,2.14-4.29,2.97-6.641,3.979c2.87,7.57,7.3,16.15,15.641,18.592c4.819,1.31,8.601-3.45,13.279-3
	c2.609,0.068,2.41,3.329,2.63,5.188c-4.329,6.66-13.729,7.82-20.489,4.49c-6.78-3.47-11.149-10.28-13.891-17.17
	c-1.09-2.75-1.97-5.562-2.899-8.36c-0.431,0.062-1.311,0.17-1.74,0.23c0.101,1.66,0.211,3.33,0.33,5
	c1.061,0.479,2.12,0.96,3.189,1.448c-0.271,1.23-0.56,2.472-0.869,3.7c-1.939,3.392-4.881,6.12-8.301,7.98
	c-0.979-0.931-2.21-1.642-2.851-2.852c0.811-2.278,2.61-4.198,2.689-6.72c0.141-4.34-0.47-8.67-0.39-13.01
	c0.109-2.58-1.729-4.58-3.09-6.55c2.119-2.86,5.729-2.36,8.859-2.29c0.311,0.54,0.63,1.08,0.96,1.63
	c-0.431,2.29-0.62,4.608-0.7,6.938c2.851-0.01,6.33,0.36,8.189-2.33c2.92-3.26,0.21-8.318-3.56-9.448
	c-5.801-1.972-14.171-0.53-16.49,5.89c0.97,3.63,4.55,6.24,4.311,10.19c-1.54,0.579-3.17,1.93-4.859,1.01
	c-4.73-2.44-6.341-8.602-4.811-13.43C343.62,246.715,347.87,243.375,352.379,242.076z"/>
<path fill="#F4FAF9" d="M426.059,245.266c1.54-0.562,3.2-0.19,4.8-0.15c1.351,2.42,2.24,6.13-0.29,8.09
	c-2,0.771-4.949,0.65-5.859-1.64C423.25,249.486,424.569,246.906,426.059,245.266z"/>
<path fill="#F8FCF9" d="M395.769,251.456c1.29-2.75,4.17-4.21,6.819-5.38c3.601,8.21,1.53,17.5,3.16,26.11
	c0.891,1.05,1.92,1.99,2.91,2.97c0.029,0.54,0.08,1.63,0.109,2.17c-3.489,1.65-7.439,1.22-11.17,0.96
	c-0.03-0.609-0.08-1.84-0.109-2.45c0.71-1.09,1.43-2.18,1.979-3.358c-0.141-5.92-0.95-11.812-0.841-17.74
	C397.669,253.666,395.179,253.375,395.769,251.456z"/>
<path fill="#F8FCF9" d="M409.5,249.696c2.069-1.78,4.181-3.68,6.939-4.25c2.141,4.77,1.75,10.13,2.261,15.23
	c0.38,4.5-0.94,9.868,2.71,13.35c1.21,0,2.42,0,3.641,0c0.479-0.57,1.43-1.7,1.899-2.26c0.029-3.021,0.029-6.04-0.11-9.052
	c-0.89-0.22-2.67-0.648-3.56-0.868c0.84-3.61,4.06-5.73,7.26-7.052c2.181,5.08,1.149,10.75,2.2,16.07
	c1.069,1.11,2.149,2.22,3.239,3.33c-0.04,0.49-0.109,1.45-0.14,1.93c-3.23,0.602-6.511,0.87-9.79,0.91
	c-1.021-0.77-2.04-1.51-3.051-2.27c-2.449,4.52-8.409,3.14-12.5,2.25c0.87-2.41,2.88-4.54,2.551-7.262
	c-0.2-4.329-0.5-8.658-0.71-12.988c-0.15-1.04-0.28-2.07-0.391-3.102C409.83,253.295,409.569,251.476,409.5,249.696z"/>
<path fill="#F6FAF7" d="M473.58,248.106c2.061-3.92,9.45-2.08,8.37,2.67c-1.36,2.34-4.12,1.2-6.271,1.33
	c2.319,3.14,6.779,6.02,5.271,10.53c-1.79,4.198-7.03,4.54-10.851,5.8c-0.2,0.43-0.601,1.29-0.801,1.729
	c4.131,2.12,8.7-1.2,12.851,0.82c2.021,0.7,2.771,2.87,3.609,4.64c-1.42,6.92-9.189,9.61-15.47,9.13c-2.67-0.47-6.2-0.85-7.59-3.5
	c-1.25-2.42,1.04-5.39,3.63-4.92c2.26,1.58,4.21,3.602,6.71,4.841c2.29-0.869,6.43-1.25,5.68-4.671c-1.239-1.72-3.55-1.5-5.39-1.35
	c-2.771,0.22-5.55,0.22-8.33,0.16c-0.72-0.72-1.431-1.44-2.141-2.15c-0.01-0.92-0.01-1.83-0.01-2.729c1.101-1.01,2.21-2.021,3.34-3
	c-1.271-1.45-3.21-2.57-3.55-4.602c-0.729-2.26,0.561-4.358,1.409-6.35c3.051-1.66,6.391-2.59,9.82-3.06
	C473.379,251.715,471.969,249.625,473.58,248.106z"/>
<path fill="#F8FBF9" d="M446.849,256.375c2.42-1.52,5.619-3.56,8.409-1.68c3.021,2.05,2.601,6.04,2.9,9.21
	c-0.13,2.7,2.779,4.021,2.97,6.64c-2.51,2.67-5.01,7.182-9.37,5.57c0.79-5.24,2.21-10.95-0.27-15.95
	c-1.53,0.392-3.03,0.8-4.551,1.19c-0.399,2.108-1.149,4.22-0.851,6.398c0.261,2.91,2.971,4.57,4.301,6.98
	c-3.479,1.7-7.359,1.71-11.131,1.5c-0.39-0.48-1.18-1.45-1.569-1.93c0.96-1,1.931-1.98,2.95-2.921
	c0.271-0.819,0.561-1.619,0.84-2.431c-0.439-2.16-0.641-4.35-0.761-6.54c-0.75-0.14-2.229-0.42-2.979-0.56
	c0.02-1.54,0.399-3.011,0.96-4.42c1.71-1.15,3.409-2.32,5.159-3.432c1.08,1.222,1.819,2.65,2.54,4.12
	C446.509,257.686,446.74,256.816,446.849,256.375z"/>
<path fill="#030207" d="M468.059,260.496c0.76-2.84,4.061-2.648,6.359-2.28c0.74,1.132,1.341,2.33,1.78,3.632
	c-1.61,0.97-3.33,1.71-5.061,2.42C469.929,263.276,467.089,262.676,468.059,260.496z"/>
<path fill="#F8FBF6" d="M380.689,259.215c4.391-2.158,10.391-0.688,12.689,3.79c2.07,4.512,2.181,10.53-1.569,14.2
	c-2.75,3.04-7.45,2.7-11.069,1.82C373.12,275.686,373.019,262.576,380.689,259.215z"/>
<path fill="#152028" d="M359.819,264.266c0.431-0.062,1.311-0.17,1.74-0.23c0.931,2.8,1.811,5.61,2.899,8.36
	c-0.67,0.67-1.34,1.34-1.989,2.02c0.311-1.229,0.6-2.47,0.869-3.7c-1.069-0.488-2.13-0.97-3.189-1.448
	C360.03,267.596,359.919,265.926,359.819,264.266z"/>
<path fill="#020103" d="M381.919,264.416c2.141-2.398,6.601-0.85,6.979,2.29c0.32,2.59,0.82,6.16-2,7.62
	c-1.97,0.271-4.619,0.51-5.54-1.72C380.149,270.136,379.91,266.505,381.919,264.416z"/>
<path fill="#F2FAF9" d="M319.269,268.166c1.439-1.608,3.221-2.64,5.431-2.2c-0.011,1.82,0.271,3.98-1.5,5.12
	c-1.57,0.38-3.181,0.41-4.771,0.552c0.229,3.818,0.18,7.648,0.51,11.46c0.681,0.85,1.37,1.71,2.061,2.579
	c-1.891,2.561-3.83,5.931-7.54,5.641c0.66-4.062,2.891-8.63,0.141-12.4c-1.62,2.53-5.88,2.16-7.479-0.188
	c-2.29-2.61-1.811-7.21,1.13-9.16C310.729,267.045,315.299,268.596,319.269,268.166z"/>
<path fill="#030408" d="M308.359,276.045c0.421-1.618,0.15-3.79,2.061-4.479c1.29-0.271,2.601-0.4,3.931-0.4
	c0.09,1.95,0.22,3.91,0.399,5.88C312.74,276.066,310.509,276.196,308.359,276.045z"/>
<path fill="#F2F9F8" d="M323.2,271.085c0.729,0.271,2.189,0.802,2.93,1.062c0.37,2.08,0.391,4.21,0.551,6.33
	c2.25-1.142,4.561-1.551,6.779-0.09c0.229,1.93,0.431,3.858,0.58,5.8c0.609,0.858,1.229,1.729,1.851,2.608
	c-1.12,1.312-2.271,2.592-3.479,3.83c-0.721-0.14-2.149-0.42-2.87-0.56c1.05-2.91,1.859-6.3-0.09-9.05
	c-0.931,0.33-1.811,0.778-2.689,1.22c0.021,1.39,0.079,2.8,0.18,4.2c0.71,1.16,1.45,2.31,2.229,3.438
	c-2.38,0.33-4.779,0.54-7.18,0.591c-0.051-0.381-0.15-1.149-0.2-1.541c0.62-0.948,1.24-1.88,1.83-2.828
	c-0.729-3.07-0.681-6.24-0.689-9.37C319.37,275.896,322.53,273.016,323.2,271.085z"/>
<path fill="#F1FBF9" d="M339.819,277.166c3.061-0.608,7.261-0.34,7.979,3.45c1.2,4.32-4.56,3.78-7.26,3.9
	c0.141,0.438,0.431,1.318,0.58,1.76c2.311-0.05,4.439-1.07,6.72-1.33c0.771,5.46-8.699,6.29-10.18,1.44
	C335.849,283.125,337.29,279.516,339.819,277.166z"/>
<path fill="#61A6C3" d="M339.219,280.736c1.88-0.57,3.779-1.09,5.71-1.521C345.28,282.746,340.899,283.106,339.219,280.736z"/>
<path fill="#F8FCF9" d="M360.389,286.386c2.09,0.31,3.979-2.37,5.949-0.852c2.681,2.25,4.311,5.84,4.181,9.352
	c-0.88,0.729-1.891,1.25-2.88,1.8c-2.521-2.102-5.051-4.3-8.189-5.38c-1.221,0.438-2.45,0.88-3.66,1.33
	c-0.16,1.5-1.83,3.51,0.2,4.408c5.199,3.012,11.55,3.682,16.311,7.592c2.819,3.77,3.8,8.47,3.35,13.108
	c-3,11.53-19.149,14.66-27.47,7.021c-5.2-4.29-5.25-14.16,1.01-17.512c3.28-2.028,8.07-2,10.561,1.25
	c-0.46,1.092-0.909,2.19-1.359,3.29c-2.229,0.762-4.96,0.88-6.5,2.88c-0.771,2.82,0.37,6.182,3.21,7.342
	c3.76,1.658,8.859,1.278,11.83-1.75c3.359-3.83,2.351-10.54-2.2-12.99c-4.47-2.37-9.68-3.19-13.899-6.07
	c-3.311-2.29-3.88-7.21-1.489-10.358C351.66,287.166,356.25,285.826,360.389,286.386z"/>
<path fill="#F7FAF9" d="M464.979,291.406c2.729-2.438,6.83,0,9.62-2.32c0.51,0,1.54-0.01,2.05-0.01
	c1.359,2.142,2.41,4.47,3.261,6.88c-2.9,2.61-5.851-0.06-8.41-1.67c-0.46,0.062-1.399,0.16-1.859,0.22
	c-0.011,0.78-0.021,1.57-0.011,2.37c3.29,1.5,7.311,1.88,9.92,4.602c1.99,2.12,0.57,5-0.01,7.42c-2.63,2.26-5.99,2.88-9.359,2.279
	c-1.21,0.591-2.49,1.75-3.921,1.141c-2.38-2-3.92-4.95-3.819-8.09c3.63-1.91,6.431,1.63,9.66,2.729c2.38,0.96,1.851-1.989,2.13-3.27
	c-3.391-1.09-6.83-2.102-10.01-3.73c-0.36-0.58-1.08-1.739-1.439-2.318C462.74,295.375,463.189,292.956,464.979,291.406z"/>
<path fill="#F8FCF9" d="M425.349,294.776c2.771-1.64,6.181-3.42,9.351-1.64c6.109,3.438,6.85,12.71,2.909,18.068
	c-1.949,3.07-6.561,3.98-9.47,1.771c-1.71-0.88-1.851-3.682-0.32-4.79c1.431-0.21,2.891-0.3,4.36-0.28
	c2.33-2.24,2.93-5.36,1.409-8.25c-0.56-0.39-1.68-1.17-2.239-1.56c-2.141,0.02-4.859,0.55-5.351,3.04
	c-0.37,3.34-0.12,6.72,0.011,10.079c-0.051,1.931,1.92,2.881,2.81,4.391c0.461,1.568-1.05,2.64-1.84,3.77
	c-1.931,1.852-3.989,4.57-7.021,3.762c-1.22-2.75,0.5-5.61,0.42-8.42c-0.18-4.512-0.771-8.99-0.649-13.5
	c-0.971-0.472-1.939-0.932-2.891-1.392c-0.09-0.56-0.271-1.68-0.35-2.24c1.96-2.118,4.1-4.5,7.18-4.738
	C424.089,293.326,424.929,294.295,425.349,294.776z"/>
<path fill="#F8FBF9" d="M445.29,293.686c4.101-4.142,12.25-3.352,14.819,2.14c1.011,2.13,1.641,5.82-1.04,6.95
	c-3.319,1.729-7.109,1.22-10.689,1.25c0.091,0.51,0.29,1.55,0.391,2.06c3.95,2.92,7.641-1.22,11.771-1.08
	c0.08,1.25,0.34,2.521,0.181,3.79c-1.479,2.642-4.7,3.271-7.32,4.21c-4.97,0.07-9.979-3.118-10.76-8.25
	C441.49,300.924,442.53,296.585,445.29,293.686z"/>
<path fill="#F9FDF8" d="M398.05,297.416c2.52-3.83,7.76-4.06,11.75-2.898c4.96,1.83,5.93,7.76,5.779,12.398
	c-0.87,2.71-1.99,5.771-4.75,7.102c-2.67,1.56-5.83,0.96-8.761,1.068C395.679,311.936,393.669,302.996,398.05,297.416z"/>
<path fill="#F7FCF8" d="M380.669,297.005c1.851-1.64,4.36-2.038,6.649-2.698c2.11,0.738,4.53,1.16,6.15,2.83
	c1.21,1.63,0.89,4.158-1.011,5.148c-2.729-1.1-5.43-2.568-8.47-2.1c-1.71,3.03-2.471,7.54,0.71,9.898
	c3.399,1.67,6.6-1.76,10.109-1.22c0.069,1.78,0.91,4.21-1.051,5.32c-2.659,2.54-6.63,2.688-10.029,1.989
	C376.2,313.446,374.629,301.986,380.669,297.005z"/>
<path fill="#03080A" d="M449.12,296.416c2.55-0.58,6.29-1.198,6.479,2.48c-2.689,0.77-5.471,1.148-8.261,1.29
	C447.91,298.916,448.509,297.666,449.12,296.416z"/>
<path fill="#040304" d="M403.109,299.276c1.7-0.78,3.58-0.22,5.351,0.01c1.311,2.521,2.351,5.44,1.2,8.25
	c-1.04,3.47-6.721,3.55-7.9,0.09C401.349,304.846,400.75,301.375,403.109,299.276z"/>
<path fill="#FFFFFF" d="M581.399,328.356c7.07-1.62,12.2-7.15,17.66-11.37c9.899,1.03,19.311,5.71,26.239,12.83
	c6.061,6.76,10.24,15.62,9.851,24.85c0.569,12.261-5.909,24.052-15.34,31.58c-15.939,13.09-41.141,13.36-56.87-0.229
	c-9.311-7.771-14.601-20.271-13.08-32.36c0.771-7.35,3.87-14.3,8.341-20.14C565.969,331.986,573.66,330.045,581.399,328.356z"/>
<path fill="#FAFCFA" d="M123.57,336.816c2.91,2.91,5.76,5.88,8.72,8.74c2.15,1.84,2.49,4.81,3.479,7.318
	c14.261,40.32,38.88,76.9,70.891,105.28c28.52,25.4,62.79,44.38,99.59,54.7c41.931,11.87,86.95,12.67,129.25,2.148
	c59.96-14.51,113.811-52.108,148.561-103.01c2.939-0.34,5.891-0.66,8.859-0.79c-35.351,54.271-91.569,94.67-154.51,110.182
	c-15.13,3.948-30.65,6.3-46.229,7.329c-21.341,1.421-42.841,0.149-63.881-3.659c-41.439-7.472-80.899-25.41-113.97-51.44
	C170.509,439.266,137.969,390.656,123.57,336.816z"/>
<path fill="#FFFFFF" d="M520.889,340.456c1.271-0.148,2.59-0.62,3.891-0.3c7.771,6.32,13.319,15.44,14.56,25.46
	c3.091,19.58-10.96,39.17-29.569,44.72c-12.561,4.08-26.989,2.4-37.96-5.08c-8.601-5.59-14.971-14.579-17.021-24.67
	c-2.391-10.118-0.03-21.118,5.62-29.76c0.689-1.49,2.489-1.3,3.84-1.56C483.2,346.795,502.059,343.696,520.889,340.456z"/>
<path fill="#FFFFFF" d="M259.099,372.656c4.101-12.75,14.13-23.87,27.03-27.99c1.77,5.49,6.1,9.9,11.63,11.63
	c12.159,4.131,25.229,2.472,37.84,2.842c6.199,9.148,9.431,20.67,7.101,31.64c-3.28,19.46-21.7,34.78-41.37,34.76
	c-14.311,0.7-28.66-6.47-36.7-18.33C257.719,397.255,255.84,384.286,259.099,372.656z"/>
<path fill="#FFFFFF" d="M367.419,358.286c21.011-0.95,42.021-2.46,62.91-5c7.399,7.51,12.149,17.83,11.72,28.49
	c-0.109,12.54-7.01,24.49-17.189,31.63c-9.579,6.84-22.069,9.54-33.601,7c-14.949-2.95-27.68-14.84-31.21-29.74
	c-0.93-6.67-1.02-13.59,0.99-20.08C362.54,366.186,364.919,362.174,367.419,358.286z"/>
<path fill="#FAFCFB" d="M237.12,366.666c1.55-0.778,3.12-1.528,4.699-2.29c-3.55,8.602-4.55,17.972-4.079,27.19
	c-6.12-7.09-11.841-14.521-17.12-22.26C226.25,369.536,231.859,368.746,237.12,366.666z"/>
<path fill="#FBFDFB" d="M192.149,399.706c8.11-5.05,15.73-10.88,23.9-15.85c1.93,2.83,3.83,5.68,5.58,8.63
	c-7.37,4.8-14.58,9.82-21.95,14.6c-3.479,2.12-7.33,4.33-11.57,3.812c-7.529-0.25-13.55-8.01-12.39-15.352
	c0.83-4.51,4.04-8.47,8.22-10.34c1.62,2.57,3.49,4.97,5.051,7.58c-1.46,2.15-4.521,4.12-3.181,7.102
	C187.42,402.166,190.25,400.786,192.149,399.706z"/>
<path fill="#FCFDFB" d="M214.78,408.217c3.18-2.972,6.8-6.541,11.55-6c7.229,0.979,13.13,7.35,14.27,14.459
	c0.37,4.351-2.3,8.189-5.55,10.801c-7.19,6.38-13.84,13.37-21.28,19.47c-1.859-1.9-3.739-3.771-5.59-5.67
	c3.42-4.56,8.04-8.09,12.26-11.88c-2.08-2.562-4.29-5-6.54-7.392c-4.5,3.421-8.319,7.632-12.619,11.28
	c-1.95-1.74-3.79-3.59-5.62-5.45c-0.04-0.358-0.12-1.1-0.17-1.47C201.769,420.156,208.509,414.424,214.78,408.217z"/>
<path fill="#FFFFFF" d="M388.189,436.424c22.859,2.94,46.841-9.67,57.061-30.398c6.55,8.86,16,15.439,26.5,18.74
	c-0.029,0.21-0.109,0.64-0.149,0.85c-35.311,21.76-78.011,31.28-119.181,26.01c-15.59-1.96-31-5.818-45.529-11.84
	c16.88-3.37,31.71-14.92,39.54-30.2C355.08,424.467,371.08,434.696,388.189,436.424z"/>
<path fill="#020304" d="M224.16,411.996c3.81-0.25,8.199,3.312,6.67,7.38c-1.34,1.592-2.99,2.892-4.561,4.25
	c-2.33-2.25-4.59-4.568-6.72-7.01C221.08,415.066,222.62,413.526,224.16,411.996z"/>
<path fill="#FBFDFB" d="M250.25,420.656c2.359,1.562,4.6,3.3,6.88,4.99c-3,7.01-5.84,14.1-9.09,21
	c-0.11,0.648-0.351,1.938-0.471,2.58c6.381-5.57,13.07-10.761,19.61-16.142c2.16,1.79,4.39,3.49,6.67,5.131
	c-11.359,9.591-23.06,18.779-34.51,28.279c-2.16-1.64-4.34-3.24-6.54-4.82C238.519,447.956,244.509,434.366,250.25,420.656z"/>
<path fill="#FBFDF9" d="M458.979,449.967c7.979-4.462,15.729-9.312,23.521-14.08c1.609,2.5,3.149,5.05,4.53,7.698
	c-2.53,1.54-5.181,2.881-7.591,4.602c0.221,1.31,0.931,2.45,1.601,3.59c5.061,8.41,10.279,16.74,15.17,25.27
	c0.229,0.16,0.7,0.48,0.931,0.642c-2.551,1.479-5.04,3.05-7.479,4.688c-6.689-9.398-11.88-19.778-18.229-29.408
	c-2.71,1.578-5.36,3.26-8.16,4.68C461.839,455.076,460.389,452.526,458.979,449.967z"/>
<path fill="#FBFDFA" d="M279.859,445.516c8.08-2.38,17.99,2.738,20,11.1c0.811,4.42-1.869,8.3-3.72,12.07
	c-3.791,7.688-7.82,15.238-11.72,22.87c-2.62-1.15-5.15-2.48-7.65-3.852c2.511-5.1,5.12-10.14,7.66-15.22
	c-2.96-1.5-5.8-3.311-8.979-4.32c-2.351,4.94-5.11,9.682-7.381,14.67c-2.729-0.76-5.25-2.068-7.789-3.27
	c0.189-2.3,1.21-4.38,2.289-6.37c3.461-6.87,7.131-13.63,10.5-20.55C274.439,449.585,276.5,446.566,279.859,445.516z"/>
<path fill="#020304" d="M282.099,455.217c0.57-0.222,1.69-0.65,2.25-0.87c2.67,0.56,6.59,1.75,6.54,5.108
	c-0.649,2.13-1.85,4.04-2.89,6c-2.96-1.45-5.92-2.898-8.811-4.488C280.12,459.026,281.09,457.106,282.099,455.217z"/>
<path fill="#FCFEFC" d="M428.339,460.846c7.061-1.95,14.061-7.552,21.631-4.74c7.279,2.09,11.42,11.26,7.949,18.05
	c-2.199,4.43-6.59,7.11-11.109,8.69c1.88,5,3.939,9.938,5.62,15.02c-2.439,1.07-4.92,2.021-7.33,3.13
	c-0.601,0.021-1.2,0.04-1.79,0.07c-4-10.19-7.811-20.45-11.76-30.66C430.339,467.266,428.819,464.206,428.339,460.846z"/>
<path fill="#FAFCF9" d="M313.019,458.456c4.75-1.41,10.029-0.398,14.141,2.3c4.42,3.45,5.279,9.79,3.68,14.9
	c-2.609-0.67-5.199-1.4-7.739-2.26c-0.271-2.142,0.189-5.16-2.17-6.29c-1.431-1.04-3.24-0.72-4.87-0.83
	c-0.5,1.21-0.99,2.439-1.471,3.67c4.49,3.99,10.58,6.72,12.87,12.71c2.54,7.71-2.979,16.74-10.93,18.26
	c-1.171-0.028-2.32-0.04-3.471-0.04c-4.109-1.028-8.71-2.479-10.931-6.42c-2.369-3.818-1.67-8.529-1.04-12.738
	c2.931,0.63,5.87,1.289,8.69,2.35c0.199,2.83-0.131,5.9,2,8.14c1.039,0,3.109,0.012,4.14,0.012c1.351-1.882,3.021-4,2.7-6.45
	c-3.17-4.3-8.87-6-11.58-10.722C304.589,469.174,306.99,461.136,313.019,458.456z"/>
<path fill="#FBFEFA" d="M412.009,463.576c3.17-0.67,6.34-1.358,9.55-1.81c2.909,14.06,5.37,28.21,8.351,42.26
	c-2.609,0.62-5.229,1.18-7.88,1.6c-0.32,0.2-0.971,0.602-1.29,0.812c-1.301-3.521-1.78-7.25-2.54-10.892
	C416.139,484.886,414.03,474.246,412.009,463.576z"/>
<path fill="#020204" d="M440.439,466.467c2.591-1.07,5.341-1.842,8.17-1.24c1.109,1.99,1.95,4.34,0.939,6.568
	c-1.689,1.65-4.039,2.302-6.26,2.892C442.319,471.946,441.28,469.236,440.439,466.467z"/>
<path fill="#FCFEFD" d="M342.549,471.186c4.641-7.25,16.4-8.25,22.311-1.98c1.801,1.74,2.631,4.16,3.649,6.392
	c-0.01,2.27-0.02,4.55-0.06,6.84c-2.971,0.108-5.94-0.17-8.891-0.47c-0.029-1.53-0.069-3.062-0.061-4.57
	c-1.95-2.12-4.95-3.352-7.71-2.08c-2.45,1.74-2.021,5.03-2.58,7.63c-0.43,4.25-1.47,8.44-1.43,12.75c0.369,0.55,1.13,1.65,1.5,2.2
	c2.279,1.34,4.819,1.04,7.13-0.07c0.64-1.52,1.279-3.03,1.909-4.54c2.931,0.32,5.851,0.78,8.79,1.102
	c-0.01,4.39-1.479,9.358-5.609,11.568c-6.431,3.48-15.689,2.94-20.33-3.25c-3.739-4.108-2.84-10.04-1.899-15.029
	C340.459,482.206,340.399,476.396,342.549,471.186z"/>
<path fill="#FDFEFC" d="M375.429,467.096c5.609-0.79,11.279-1.19,16.949-1.19c2.891-0.1,5.5,1.28,7.99,2.6
	c4.09,5.012,4.84,12.392,1.75,18.092c-1,1.988-2.82,3.408-3.87,5.358c2.37,5.562,5.99,10.512,8.75,15.91
	c-3.21,0.05-6.399,0.352-9.59,0.561c-3.58-5.369-6.431-11.209-10.4-16.301c0.051,5.722,1.04,11.38,1.16,17.11
	c-3.03,0.26-6.04,0.68-9.08,0.78c-0.38-3.062-0.479-6.15-0.84-9.21c-0.601-7.341-1.271-14.682-1.931-22.021
	C375.87,474.896,375.689,470.996,375.429,467.096z"/>
<path fill="#010204" d="M385.609,474.906c3.101-0.938,6.28-0.39,8.95,1.4c0.359,1.198,0.739,2.42,1.12,3.63
	c-0.761,1.43-1.351,3.148-2.87,3.97c-2.04,0.6-4.141,0.94-6.24,1.28C385.879,481.795,385.639,478.356,385.609,474.906z"/>
</svg>
