<svg id="Layer_1" xmlns="http://www.w3.org/2000/svg" viewBox="0 0 2641 1174"><style>.st0{fill:none}.st1{fill:#010101}.st2{fill:#fff}.st3{fill:#f8fbf9}.st4{fill:#eefaf9}.st5{fill:#fdfdfc}.st6{fill:#010102}.st7{fill:#f9fcfa}.st8{fill:#f4faf9}.st9{fill:#f8fcf9}.st10{fill:#f6faf7}.st11{fill:#030207}.st12{fill:#f8fbf6}.st13{fill:#152028}.st14{fill:#020103}.st15{fill:#f2faf9}.st16{fill:#030408}.st17{fill:#f2f9f8}.st18{fill:#f1fbf9}.st19{fill:#61a6c3}.st20{fill:#f7faf9}.st21{fill:#f9fdf8}.st22{fill:#f7fcf8}.st23{fill:#03080a}.st24{fill:#040304}.st25{fill:#fafcfb}.st26{fill:#020304}.st27{fill:#020204}</style><path d="M0 8070V4400l983-1c888-1 973-3 884-15-448-65-895-292-1227-624C284 3403 62 2932 9 2421c-15-141-6-429 16-561 77-461 278-860 599-1189C980 307 1421 86 1930 19c137-18 430-16 575 5 722 104 1340 547 1665 1196 108 215 185 466 211 680 13 114 28 162 29 95 0-58 27-215 56-329C4668 864 5316 234 6122 56c175-38 287-50 483-49 209 0 357 18 550 68 775 199 1383 811 1580 1590 19 72 39 178 46 235 13 114 28 162 29 95 0-58 27-215 56-329 202-802 850-1432 1656-1610 175-38 287-50 483-49 209 0 357 18 550 68 775 199 1383 811 1580 1590 19 72 39 178 46 235 13 114 28 162 29 95 0-58 27-215 56-329 202-802 850-1432 1656-1610 175-38 287-50 483-49 209 0 357 18 550 68 775 199 1383 811 1580 1590 19 72 39 178 46 235 13 114 28 162 29 95 0-58 27-215 55-325 97-383 283-716 559-999 356-364 797-585 1306-652 137-18 430-16 575 5 722 104 1340 547 1665 1196 108 215 185 466 211 680 13 114 28 162 29 95 0-22 7-83 15-135 144-892 820-1611 1697-1804 175-38 287-50 483-49 209 0 357 18 550 68 775 199 1384 812 1580 1590 99 391 86 831-36 1212-211 659-727 1186-1381 1411-124 43-288 82-433 103-131 20-452 17-599-5-946-138-1697-871-1856-1809-11-66-20-138-20-160-1-64-16-25-24 60-10 101-49 281-86 398-163 505-494 927-950 1210-251 155-546 260-865 306-131 20-452 17-599-5-946-138-1697-871-1856-1809-11-66-20-138-20-160-1-69-16-21-29 93-15 129-66 332-116 465-282 752-940 1286-1735 1409-64 11-75 14-42 15l42 1v3670h9580v3670H0V8070zm12540 2740c47-11 132-44 190-72 94-46 116-63 205-152 111-112 152-175 201-306 124-330 64-718-151-970-107-126-272-227-441-271-172-44-397-35-569 22-137 46-226 101-330 204-97 97-147 174-195 298-49 124-63 206-63 362 0 200 38 346 130 505 53 91 199 234 293 287 87 49 227 98 320 112 100 15 311 6 410-19zm10318 1c126-32 268-103 360-181l24-20-56-89c-59-93-93-119-138-106-13 4-54 25-91 47-128 74-263 105-421 95-330-19-536-262-536-632 0-203 61-369 179-485 121-119 259-166 456-156 114 5 149 12 248 48l57 20v328h-123c-169 0-167-1-167 141v109h590v-728l-48-31c-179-114-421-171-682-158-146 7-247 33-375 97-166 82-293 209-375 375-79 160-94 227-94 440 0 157 3 191 22 264 96 351 350 577 716 637 115 19 347 11 454-15zm-20008-126v-135h-530V9040h-340v1510h-540v270h1410v-135zm1170-250v-385h840v770h330V9030h-330v790h-840v-790h-340v1790h340v-385zm3280 255v-130h-790v-500h620v-260h-620v-500h790v-270H6170v1790h1130v-130zm2839 101c129-33 206-74 282-150 69-69 100-129 120-235 33-175-29-368-155-482-58-53-182-124-215-124-9 0 3-17 31-42 29-26 137-176 277-383l231-340-166-3c-146-2-171 0-202 16-29 15-74 76-239 328-126 193-214 317-234 332-28 19-45 22-125 22h-94v-700h-340v1792l373-5c342-4 379-6 456-26zm4271-726v-755h720v-280h-1050v1790h330v-755zm1900 0v-755h720v-280h-1050v1790h330v-755zm1940-140v-895h-340v1790h340v-895zm1293 855c19-19 237-295 486-612 249-318 455-579 459-582 4-2 6 274 4 615l-2 619h290V9030h-101c-69 0-111 5-132 15-23 11-172 194-507 621l-475 605-3-620-2-621h-290v1792l120-4 120-3 33-35zM2270 7296c95-17 210-62 282-110 87-57 86-54 38-148-24-46-50-91-58-100-25-29-80-22-147 18-124 75-240 99-358 74-168-34-245-221-139-333 43-46 97-72 272-132 91-31 201-74 245-95 221-106 304-309 238-575-94-379-575-531-1001-316-80 40-182 115-182 133 0 19 101 178 120 188 36 19 76 10 139-30 177-114 309-144 455-103 74 21 145 85 164 149 17 57 15 140-4 180-36 76-110 118-314 179-364 107-490 240-490 513 1 211 100 366 296 459 127 60 283 78 444 49zm2321-14c94-25 213-84 297-147 34-26 62-49 62-52 0-9-91-135-118-165-36-39-72-36-150 13-35 22-94 52-131 67-59 23-80 26-196 26-102 1-142-3-185-18-185-63-307-186-366-370-35-109-44-285-20-407 31-159 129-314 244-388 73-46 156-72 257-78 163-10 284 25 404 116 30 22 65 41 77 41 15 0 47-27 98-81 88-93 88-89-1-168-77-67-210-136-319-163-129-33-372-32-493 0-239 65-415 208-522 427-77 158-94 243-93 465 0 172 2 191 28 274 73 239 213 416 416 524 82 44 212 87 305 102 97 15 318 5 406-18zm2279-2c47-11 132-44 190-72 94-46 116-63 205-152 111-112 152-175 201-306 124-330 64-718-151-970-107-126-272-227-441-271-172-44-397-35-569 22-137 46-226 101-330 204-97 97-147 174-195 298-49 124-63 206-63 362 0 200 38 346 130 505 53 91 199 234 293 287 87 49 227 98 320 112 100 15 311 6 410-19zm6420 16c95-17 210-62 282-110 87-57 86-54 38-148-24-46-50-91-58-100-25-29-80-22-147 18-124 75-240 99-358 74-168-34-245-221-139-333 43-46 97-72 272-132 91-31 201-74 245-95 221-106 304-309 238-575-94-379-575-531-1001-316-80 40-182 115-182 133 0 19 101 178 120 188 36 19 76 10 139-30 177-114 309-144 455-103 74 21 145 85 164 149 17 57 15 140-4 180-36 76-110 118-314 179-364 107-490 240-490 513 1 211 100 366 296 459 127 60 283 78 444 49zm-4035-31c292-73 444-260 445-546 0-234-107-414-300-507-135-64-187-73-427-79l-213-5v-628h-340v1792l383-5c320-3 393-7 452-22zm2445-105v-130h-790v-500h620v-260h-620v-500h790v-270h-1130v1790h1130v-130zM6267 4384c-53-8-149-28-212-44-842-217-1481-910-1625-1763-11-66-20-138-20-160-1-69-16-21-29 93-15 129-66 332-116 465-282 752-940 1286-1735 1409-72 12 213 14 1875 14 1728 0 1948-2 1862-14zm4400 0c-53-8-149-28-212-44-842-217-1481-910-1625-1763-11-66-20-138-20-160-1-69-16-21-29 93-15 129-66 332-116 465-282 752-940 1286-1735 1409-72 12 213 14 1875 14 1728 0 1948-2 1862-14zm4400 0c-53-8-149-28-212-44-842-217-1481-910-1625-1763-11-66-20-138-20-160-1-69-16-21-29 93-15 129-66 332-116 465-282 752-940 1286-1735 1409-72 12 213 14 1875 14 1728 0 1948-2 1862-14zM6911 3292c94-25 213-84 297-147 34-26 62-49 62-52 0-9-91-135-118-165-36-39-72-36-150 13-35 22-94 52-131 67-59 23-80 26-196 26-102 1-142-3-185-18-185-63-307-186-366-370-35-109-44-285-20-407 31-159 129-314 244-388 73-46 156-72 257-78 163-10 284 25 404 116 30 22 65 41 77 41 15 0 47-27 98-81 88-93 88-89-1-168-77-67-210-136-319-163-129-33-372-32-493 0-239 65-415 208-522 427-77 158-94 243-93 465 0 172 2 191 28 274 73 239 213 416 416 524 82 44 212 87 305 102 97 15 318 5 406-18zm-4551-76c95-17 210-62 282-110 87-57 86-54 38-148-24-46-50-91-58-100-25-29-80-22-147 18-124 75-240 99-358 74-168-34-245-221-139-333 43-46 97-72 272-132 91-31 201-74 245-95 221-106 304-309 238-575-94-379-575-531-1001-316-80 40-182 115-182 133 0 19 101 178 120 188 36 19 76 10 139-30 177-114 309-144 455-103 74 21 145 85 164 149 17 57 15 140-4 180-36 76-110 118-314 179-364 107-490 240-490 513 1 211 100 366 296 459 127 60 283 78 444 49zm13350-16c47-11 132-44 190-72 94-46 116-63 205-152 111-112 152-175 201-306 124-330 64-718-151-970-107-126-272-227-441-271-172-44-397-35-569 22-137 46-226 101-330 204-97 97-147 174-195 298-49 124-63 206-63 362 0 200 38 346 130 505 53 91 199 234 293 287 87 49 227 98 320 112 100 15 311 6 410-19zm4450 0c47-11 132-44 190-72 94-46 116-63 205-152 111-112 152-175 201-306 124-330 64-718-151-970-107-126-272-227-441-271-172-44-397-35-569 22-137 46-226 101-330 204-97 97-147 174-195 298-49 124-63 206-63 362 0 200 38 346 130 505 53 91 199 234 293 287 87 49 227 98 320 112 100 15 311 6 410-19zm-9520-375v-385h840v770h330V1420h-330v790h-840v-790h-340v1790h340v-385zm13550-370v-755h720v-280h-1050v1790h330v-755z" transform="matrix(.1 0 0 -.1 0 1174)"/><path d="M12150 10544c-202-43-343-188-401-409-27-105-29-296-4-405 63-277 267-440 550-440 271 0 472 158 541 425 25 96 25 323 1 415-74 276-271 431-547 429-41 0-104-7-140-15zm-2500-283v-301h108c198 1 310 30 380 99 55 56 75 106 80 203 4 80 2 93-23 143-30 63-70 97-147 127-44 18-81 22-225 26l-173 4v-301zM6480 7014c-202-43-343-188-401-409-27-105-29-296-4-405 63-277 267-440 550-440 271 0 472 158 541 425 25 96 25 323 1 415-74 276-271 431-547 429-41 0-104-7-140-15zm2280-304v-320h158c178 0 249 13 322 60 72 47 116 126 126 228 18 171-79 308-242 341-32 6-126 11-211 11h-153v-320zm6560-3776c-202-43-343-188-401-409-27-105-29-296-4-405 63-277 267-440 550-440 271 0 472 158 541 425 25 96 25 323 1 415-74 276-271 431-547 429-41 0-104-7-140-15zm4450 0c-202-43-343-188-401-409-27-105-29-296-4-405 63-277 267-440 550-440 271 0 472 158 541 425 25 96 25 323 1 415-74 276-271 431-547 429-41 0-104-7-140-15z" transform="matrix(.1 0 0 -.1 0 1174)"/><path d="M1886.6 745.7c32.2-13.6 67.7-19.2 102.6-16.8 34.2 2.6 67.7 12.9 97.2 30.4 26.4 15.6 49.7 36.6 67.8 61.4 21.1 28.9 35.3 62.9 40.6 98.3 4.1 28.1 3.3 57-3.5 84.6 4.4 8.5 6.6 18.4 5.1 27.9-1.7 14.4-10.9 27.5-23.7 34.2-2.9 2-7.3 2-9.3 5.2-23.4 37.5-57.9 67.9-98.2 86-8.4 3.9-17.2 7-26 10-.5.1-1.4.3-1.8.4-42.4 13-88.6 12.5-130.9-.5-31.7-10-61.2-27-85.5-49.6-23.3-21.5-42-48-54.5-77.2-5.5-12.8-9.5-26.2-12.8-39.8-5.8-3.6-12.9-4.6-19.6-3.8-13.9 1.4-27 6.5-40.4 9.9 9.6-7.1 20-12.9 30.8-17.8-17.2.2-34 4.3-50.7 8.1-4.5 1.1-8.9 2.2-13.4 3.5 17.2-18.4 39.7-30.8 63-39.7-8-1-16-2-23.6-4.7-7.1-2.4-13.8-6.1-19.7-10.6 5.8-.2 11.5.2 17.3-.5 17.7.1 36.3-.8 52.1-9.7 2.9-38.4 16.1-75.9 37.8-107.7 24.3-36 59.2-64.8 99.3-81.5z"/><path d="M1948.3 736.9c28.4-2.9 57.4-1 84.9 7.1 58 16.5 108.2 58.6 134.6 112.8 13.1 26.3 20.7 55.3 22 84.6-.2 6.1.9 12.3.1 18.4-.2 12.1-1.8 24.1-4 35.9-1.6-1.5-3.3-3-5-4.4 2.4-15.7 4.2-31.6 3.2-47.4-.2-4.1-.4-8.3-.8-12.4-3.3-32.9-14.4-65-32.4-92.8-18.1-28.2-43-52-71.9-68.9-30-17.5-64.4-27.6-99.1-28.4-4.2-.6-8.4-.2-12.6-.3l-.6.4c-36.5.5-72.6 11.7-103.7 30.6-30.5 18.7-56.2 45.1-73.8 76.2-13.6 23.7-22.4 50.2-25.9 77.3-1.6 2-4.1 3.1-6.2 4.4 4-40.4 20-79.5 45.1-111.4 26.2-33.4 62.3-59 102.7-72.3 14.1-4.5 28.7-7.7 43.4-9.4z"/><path class="st0" d="M1889.1 768.1h23.3v26.7h-23.3z"/><path class="st1" d="M2075.1 796.4c.9-1.5 2.5-2.2 4-2.9 1.3.6 2.5 1.1 3.8 1.8.7 1.9 1.5 4.1.2 5.9-2 3-4.1 6-6.2 8.9-2 2.4-5.6 2.5-7.9.6-.3-.9-.7-1.9-1-2.8 1.6-4.2 4.6-7.7 7.1-11.5z"/><path class="st2" d="M1909.8 812.8c29.5-13.5 63.4-17.1 95.1-10.4 30.6 6.4 59.1 22.6 80.4 45.5 11.7 12.6 21.3 27 28.3 42.6 4.8 11.2 8.6 22.8 10.6 34.8-15.9-3.1-31.7-7.4-47-12.8-7.3-2.6-14.5-5.5-21.3-9.2-1.1-.6-2-1.3-2.8-2.2-3.1-3.7-6.2-7.3-9.2-10.9-.8-1.4-2.4-.9-3.7-1-.3-1.5-.5-3-.7-4.5-3-3.1-3-7.5-3.1-11.5-1.3-12.2-.6-24.8-4.3-36.6-4.7-10.5-14.4-19-25.9-21-8.1-1.3-16.6-.6-24.5 1.6-14.7 4.1-28.2 11.7-40.9 20-11.5 7.6-22.5 16-33.1 24.8-13.1.7-25.2 6.3-36.8 12.2-7.6 3.7-15.1 7.7-23.4 9.5-4.1.5-8.3.8-12.3 1.8 15.4-32 42.3-58.1 74.6-72.7z"/><path class="st2" d="M1960.9 840.6c11.6-6.7 24-13 37.5-14.5 8.6-1.2 18.2 1.4 23.5 8.5 4.4 4.8 4.8 11.5 5.4 17.6.8 6.1.4 12.4 1.4 18.5-2.4.5-4.8 1.1-7.2 1.3-1.3-.6-2.5-1.2-3.6-2-.4-1.7-.7-3.4-.9-5.1-9.8 1.8-20.2 3.9-28.2 10.2-4 3.1-6.4 7.9-7.3 12.8 0 1.5 0 3 .1 4.5 1.4 1.1 3.3.8 5 1.2-2.3 4.2-4.3 8.6-5 13.4v3.3c3.8-.6 7.1-2.8 10.7-4.1-.2.9-.5 2.6-.6 3.4-.1 1.2-.1 2.3-.2 3.5.7 1.9 1.7 3.6 2.7 5.3 5.2-1.1 9.7-4.1 14.6-5.9-.1.7-.4 2.2-.6 2.9.2.6.6 1.7.8 2.3 5.3-1.3 10.4-3.6 14.8-6.7 5.8-3.8 11.5-8.7 18.6-9.6 4 2.5 5.8 7.7 10 10.1 6.8 4.1 14.2 7.2 21.6 10 15.2 5.7 30.9 10.1 46.8 13.5 8.3 1.8 16.7 3 24.7 5.8 4.5 1.6 9 4.4 11 8.9 3.7 8.9 3.7 19.5-.7 28.2-3.9 7.3-11 13.2-19.2 14.8-33 7.6-66.5 12.8-100 17.2-10 1.1-19.9 2.3-29.9 3.1-23 2.1-46.1 3.2-69.3 2.9-7.6.1-15.2-.1-22.6-1.8-2.9-1.1-5.9-2.3-8-4.7-2.9-2.8-3.7-6.8-4.4-10.6-1.2-6.9-2.9-13.8-3.1-20.8-.3-6.1 1.8-12 3-17.9 3.6-17.9 6.4-36 11-53.7.6-2.2.3-4.5.9-6.6 2.4-10.1 5.3-20 7.9-30 .3-.9.4-1.9 1.2-2.5 11.9-9.6 24.3-18.9 37.6-26.7z"/><path class="st3" d="M1990.5 882.5c7.7-6.6 17.3-9.9 26.8-12.9l.7.5c1.1.8 2.3 1.4 3.6 2-10.5 4.2-20.7 9.2-31.1 13.7-.1-1.1-.1-2.2 0-3.3z"/><path class="st2" d="M1854.2 894.5c19.9-4 36-19.1 56.5-21.2-2.4 9.7-5.2 19.2-7.6 28.9-.7 3-.6 6.2-1.5 9.2-5.3 20.7-8 41.9-13 62.7-1.3 6.2-.6 12.7.6 18.9.6 4.1 1.5 8.3 3.1 12.2-6.8.3-13.5 2.6-19.3 6.2-6.6 3.9-11.6 10.8-19.6 12-10 .7-18.6-5.7-28.4-6.5-3.6 0-6.9 1.8-10.4 1.6.7-.5 1.3-1 2-1.4 5-2.6 10-5.7 15.7-6.5 7-.8 14-1.3 20.9-2.4 3.8-.7 7.3-2.5 10.2-5 3.8-3.2 10-3.9 11.8-9.2.4-3.8-.4-9.8-5.1-10.3-4 .6-7.3 3.2-10.4 5.7-5.1 4-9.8 8.8-15.3 12.3-2.5 1.7-5.6 1.2-8.5 1.3-4.2-.1-8.2-1.7-12.4-2-6.3.7-12.4 2.8-18.4 4.9-4.6 1.4-9.3 3-14.2 2.7-6.6-.2-12.9-2.6-18.8-5.5 4-.1 8.1.2 12.1-.4 13.5-1.9 25.7-8.5 38.9-11.7 4.2-1.2 8.7 0 12.9-1.6 6.2-2.2 12.1-7.3 12.9-14.1.4-2.6-.6-5.1-1.8-7.3-3.7-3.4-8.9-1.3-12.8.7-11.1 6.3-20.2 15.4-31.2 21.8-3 1.7-6.4 2.7-9.8 2.6-7.4-.2-14.4-2.5-21.6-3.7-6.7-1.2-13.5-1-20.2-.7 12.7-6.2 27.2-5.5 40.8-8 5-1 10.4-1.6 14.5-4.9 1.6-1.2 1.7-3.3 2-5.1-1.7-4.8-5.7-9.4-11.1-9.5-8.4.3-15.4 5.6-22.2 10-4.7 3-9.4 7.4-15.4 6.7-6.2-.8-12.2-2.9-18.5-2.8l-.5-.4c-6-.1-12.1.5-18 1.6 5-3.1 10.1-6.4 15.8-8 6.8-2 14-1.2 20.8-2.4 11.5-3.2 18.9-13.5 29.1-19 3.1-1.5 6.6-2.7 10-2 8.7 1.4 13.8 9.9 22.1 12.1 7.4 1.8 15.1-1 21.1-5.3 3.3-2.3 5.9-5.5 6.8-9.4-1.5-4.2-6.7-5-10.5-4.6-6.4.6-10.2 6.5-15.7 9.2-8.1-.9-14-7.1-21.5-9.7-4.8-1.2-10.3-.6-14.2 2.7-6.2 5-12.7 10-20.4 12.2-9 2.9-18.7 1.5-27.5-1.5 9.2-.9 18.5-2.9 26.5-7.8 9.8-5.8 17-16.2 28.7-18.4 6.5-1.7 12.9 1.2 18.5 4.3 3.5 1.8 7.4 3.9 11.5 3.1 6.2-1.4 10.6-6.2 15.8-9.4 2.5-1.6 5.8-1.7 7.7-4.2 1.6-1.3 1-3.4 1.2-5.2-1.6-1.8-3.8-3.2-6.3-2.7-8.1.7-12.9 8.6-20.4 10.7-2.9.6-5.6-.7-8.3-1.5-4.4-1.5-9.1-2.7-13.8-2.5-4.3-.2-8.5 1.3-12.7 2 2-1.8 3.9-3.6 6.4-4.7 5.9-2.7 12.6-1.5 18.8-2.9 5.7-1.4 10-5.5 14.8-8.5 5.1-3.4 10.8-6 16.8-7.1 3.2-.8 6.7-.6 10-1.3z"/><path class="st4" d="M1996 894.2c7-5 13.8-10.7 21.8-13.9-1.8 2.1-3.9 3.9-6 5.5-8.3 6.4-16.7 12.6-25.2 18.6 1.6-4.5 5.9-7.2 9.4-10.2z"/><path class="st5" d="M2025 888.2c2.4-.8 5-1.1 7.4-.5.2 4.5-4.1 7.1-7 9.9-9 7.2-19.4 12.2-30 16.5.6-4.4 2.1-8.6 3.7-12.7 8.3-4.9 16.6-10.1 25.9-13.2z"/><path class="st6" d="M1940.6 936.4c2.2-7.4 9.5-11.7 16.8-12.6 5.8-.4 12.1.6 16.7 4.4 3.2 2.4 4.4 6.4 5.5 10.1 1.8 0 3.6 0 5.4.2.3-4.7 4.3-8.3 8.5-9.8 2.6-1.1 5.1.4 7.3 1.5 1.9-.9 3.6-2.7 6-2.4 2-.2 4 1.7 5.9.6 2.8-1.6 6.4-2 9.3-.2 2.9 1.4 3.9 4.7 4.7 7.6 5.9-2.1 13-2.5 18.2 1.5l4.5-2.1c1.1-5 6.6-8.4 11.6-7.1 5.5 1.2 9 8.1 5.5 12.9.9 2.9 1.1 6 0 8.9 2.2 2.2 4.6 4.8 4.1 8.2.4 4.6-3 8.2-6.5 10.6 2.2 3.4.9 7.5 2.1 11.1.8 3.5.2 7.5-2.6 10-3.9 4.1-10 3.5-15.1 4.5-.9-.6-1.9-1.2-2.8-1.8-5.2 2.4-11.6 2.9-16.4-.7-1.9 1.8-4.2 3.1-6.6 3.8-2.5 3.5-5.9 7-10.3 7.8-4.3.2-7.3-3.7-8-7.6-4.3 1.4-8.7.7-12.9-.7-3.7 2.9-8.7 3.3-13.1 1.8-1.9 3.6-4.5 7-8.2 8.8-8 4-18.9 2.7-24.6-4.6-4.8-5.9-4-15.1 1.6-20.2-.8-1.8-1.5-3.7-1.8-5.7-1.1-.3-2.2-.7-3.4-1-1.1.6-2.1 1.1-3.2 1.7-5.6 0-11.4-.6-16.9.9-1.6-1.1-3.4-2-4.4-3.7-1-1.7-.8-3.8-.8-5.6-7.2-2.1-9.6-12.2-4.6-17.6 3.1-3.3 7.9-3.9 12.2-3.7 2.7-1.3 6-3.1 8.9-1.1 3.7 1.6 3.1 6.1 5 9 2.8 1.9 5.9-.8 8.9-.8-6.3-3-8-10.7-6.5-16.9z"/><path class="st7" d="M1954.2 930.1c4.9-1.5 10.5-1.3 15 1.3 4.7 2.6 6.2 9.6 3 13.9-1.3 1.8-3.6 2.5-5.5 3.3 2.4 6.3 6.1 13.5 13 15.5 4 1.1 7.2-2.9 11.1-2.5 2.2.1 2 2.8 2.2 4.3-3.6 5.6-11.4 6.5-17.1 3.7-5.7-2.9-9.3-8.6-11.6-14.3-.9-2.3-1.6-4.6-2.4-7-.4.1-1.1.1-1.5.2l.3 4.2 2.7 1.2c-.2 1-.5 2.1-.7 3.1-1.6 2.8-4.1 5.1-6.9 6.7-.8-.8-1.8-1.4-2.4-2.4.7-1.9 2.2-3.5 2.2-5.6.1-3.6-.4-7.2-.3-10.8.1-2.2-1.4-3.8-2.6-5.5 1.8-2.4 4.8-2 7.4-1.9.3.5.5.9.8 1.4-.4 1.9-.5 3.8-.6 5.8 2.4 0 5.3.3 6.8-1.9 2.4-2.7.2-6.9-3-7.9-4.8-1.6-11.8-.4-13.7 4.9.8 3 3.8 5.2 3.6 8.5-1.3.5-2.6 1.6-4.1.8-3.9-2-5.3-7.2-4-11.2 1-3.9 4.6-6.7 8.3-7.8z"/><path class="st8" d="M2015.6 932.8c1.3-.5 2.7-.2 4-.1 1.1 2 1.9 5.1-.2 6.7-1.7.6-4.1.5-4.9-1.4-1.2-1.7-.1-3.9 1.1-5.2z"/><path class="st9" d="M1990.4 937.9c1.1-2.3 3.5-3.5 5.7-4.5 3 6.8 1.3 14.6 2.6 21.8.7.9 1.6 1.7 2.4 2.5 0 .5.1 1.4.1 1.8-2.9 1.4-6.2 1-9.3.8 0-.5-.1-1.5-.1-2 .6-.9 1.2-1.8 1.6-2.8-.1-4.9-.8-9.8-.7-14.8-.7-.9-2.8-1.2-2.3-2.8zm11.4-1.4c1.7-1.5 3.5-3.1 5.8-3.5 1.8 4 1.5 8.4 1.9 12.7.3 3.8-.8 8.2 2.3 11.1h3c.4-.5 1.2-1.4 1.6-1.9 0-2.5 0-5-.1-7.5-.7-.2-2.2-.5-3-.7.7-3 3.4-4.8 6.1-5.9 1.8 4.2 1 9 1.8 13.4.9.9 1.8 1.9 2.7 2.8 0 .4-.1 1.2-.1 1.6-2.7.5-5.4.7-8.2.8-.9-.6-1.7-1.3-2.5-1.9-2 3.8-7 2.6-10.4 1.9.7-2 2.4-3.8 2.1-6.1l-.6-10.8c-.1-.9-.2-1.7-.3-2.6-1.8-.4-2-2-2.1-3.4z"/><path class="st10" d="M2055.2 935.1c1.7-3.3 7.9-1.7 7 2.2-1.1 2-3.4 1-5.2 1.1 1.9 2.6 5.7 5 4.4 8.8-1.5 3.5-5.9 3.8-9 4.8-.2.4-.5 1.1-.7 1.4 3.4 1.8 7.3-1 10.7.7 1.7.6 2.3 2.4 3 3.9-1.2 5.8-7.7 8-12.9 7.6-2.2-.4-5.2-.7-6.3-2.9-1-2 .9-4.5 3-4.1 1.9 1.3 3.5 3 5.6 4 1.9-.7 5.4-1 4.7-3.9-1-1.4-3-1.3-4.5-1.1-2.3.2-4.6.2-6.9.1l-1.8-1.8v-2.3c.9-.8 1.8-1.7 2.8-2.5-1.1-1.2-2.7-2.1-3-3.8-.6-1.9.5-3.6 1.2-5.3 2.5-1.4 5.3-2.2 8.2-2.6-.4-1.3-1.6-3-.3-4.3z"/><path class="st3" d="M2033 942c2-1.3 4.7-3 7-1.4 2.5 1.7 2.2 5 2.4 7.7-.1 2.3 2.3 3.4 2.5 5.5-2.1 2.2-4.2 6-7.8 4.6.7-4.4 1.8-9.1-.2-13.3-1.3.3-2.5.7-3.8 1-.3 1.8-1 3.5-.7 5.3.2 2.4 2.5 3.8 3.6 5.8-2.9 1.4-6.1 1.4-9.3 1.3-.3-.4-1-1.2-1.3-1.6.8-.8 1.6-1.7 2.5-2.4.2-.7.5-1.3.7-2-.4-1.8-.5-3.6-.6-5.5-.6-.1-1.9-.4-2.5-.5 0-1.3.3-2.5.8-3.7 1.4-1 2.8-1.9 4.3-2.9.9 1 1.5 2.2 2.1 3.4 0-.2.2-.9.3-1.3z"/><path class="st11" d="M2050.6 945.5c.6-2.4 3.4-2.2 5.3-1.9.6.9 1.1 1.9 1.5 3-1.3.8-2.8 1.4-4.2 2-1-.8-3.4-1.3-2.6-3.1z"/><path class="st12" d="M1977.8 944.4c3.7-1.8 8.7-.6 10.6 3.2 1.7 3.8 1.8 8.8-1.3 11.8-2.3 2.5-6.2 2.3-9.2 1.5-6.4-2.8-6.5-13.7-.1-16.5z"/><path class="st13" d="M1960.4 948.6c.4-.1 1.1-.1 1.5-.2.8 2.3 1.5 4.7 2.4 7l-1.7 1.7c.3-1 .5-2.1.7-3.1l-2.7-1.2c0-1.4-.1-2.8-.2-4.2z"/><path class="st14" d="M1978.8 948.7c1.8-2 5.5-.7 5.8 1.9.3 2.2.7 5.1-1.7 6.4-1.6.2-3.9.4-4.6-1.4-.9-2.1-1.1-5.1.5-6.9z"/><path class="st15" d="M1926.6 951.9c1.2-1.3 2.7-2.2 4.5-1.8 0 1.5.2 3.3-1.3 4.3-1.3.3-2.7.3-4 .5.2 3.2.2 6.4.4 9.6.6.7 1.1 1.4 1.7 2.1-1.6 2.1-3.2 4.9-6.3 4.7.6-3.4 2.4-7.2.1-10.3-1.4 2.1-4.9 1.8-6.2-.2-1.9-2.2-1.5-6 .9-7.6 3.1-2.3 6.9-1 10.2-1.3z"/><path class="st16" d="M1917.5 958.4c.4-1.3.1-3.2 1.7-3.7 1.1-.2 2.2-.3 3.3-.3.1 1.6.2 3.3.3 4.9-1.6-.9-3.5-.8-5.3-.9z"/><path class="st17" d="M1929.9 954.3c.6.2 1.8.7 2.4.9.3 1.7.3 3.5.5 5.3 1.9-1 3.8-1.3 5.7-.1.2 1.6.4 3.2.5 4.8.5.7 1 1.4 1.5 2.2-.9 1.1-1.9 2.2-2.9 3.2-.6-.1-1.8-.4-2.4-.5.9-2.4 1.5-5.3-.1-7.5-.8.3-1.5.6-2.2 1 0 1.2.1 2.3.2 3.5.6 1 1.2 1.9 1.9 2.9-2 .3-4 .5-6 .5 0-.3-.1-1-.2-1.3l1.5-2.4c-.6-2.6-.6-5.2-.6-7.8-3-.7-.4-3.1.2-4.7z"/><path class="st18" d="M1943.7 959.4c2.6-.5 6.1-.3 6.7 2.9 1 3.6-3.8 3.2-6.1 3.3.1.4.4 1.1.5 1.5 1.9 0 3.7-.9 5.6-1.1.6 4.6-7.3 5.2-8.5 1.2-1.5-2.9-.3-5.9 1.8-7.8z"/><path class="st19" d="M1943.2 962.3c1.6-.5 3.2-.9 4.8-1.3.3 3-3.4 3.3-4.8 1.3z"/><path class="st9" d="M1960.9 967c1.7.3 3.3-2 5-.7 2.2 1.9 3.6 4.9 3.5 7.8-.7.6-1.6 1-2.4 1.5-2.1-1.8-4.2-3.6-6.8-4.5-1 .4-2 .7-3.1 1.1-.1 1.3-1.5 2.9.2 3.7 4.3 2.5 9.6 3.1 13.6 6.3 2.3 3.1 3.2 7.1 2.8 10.9-2.5 9.6-16 12.2-22.9 5.9-4.3-3.6-4.4-11.8.8-14.6 2.7-1.7 6.7-1.7 8.8 1-.4.9-.8 1.8-1.1 2.7-1.9.6-4.1.7-5.4 2.4-.6 2.4.3 5.2 2.7 6.1 3.1 1.4 7.4 1.1 9.9-1.5 2.8-3.2 2-8.8-1.8-10.8-3.7-2-8.1-2.7-11.6-5.1-2.8-1.9-3.2-6-1.2-8.6 1.7-2.9 5.5-4 9-3.6z"/><path class="st20" d="M2048.1 971.2c2.3-2 5.7 0 8-1.9h1.7c1.1 1.8 2 3.7 2.7 5.7-2.4 2.2-4.9 0-7-1.4-.4.1-1.2.1-1.5.2v2c2.7 1.3 6.1 1.6 8.3 3.8 1.7 1.8.5 4.2 0 6.2-2.2 1.9-5 2.4-7.8 1.9-1 .5-2.1 1.5-3.3 1-2-1.7-3.3-4.1-3.2-6.7 3-1.6 5.4 1.4 8.1 2.3 2 .8 1.5-1.7 1.8-2.7-2.8-.9-5.7-1.8-8.3-3.1-.3-.5-.9-1.4-1.2-1.9-.2-2.1.2-4.1 1.7-5.4z"/><path class="st9" d="M2015 974c2.3-1.4 5.2-2.9 7.8-1.4 5.1 2.9 5.7 10.6 2.4 15.1-1.6 2.6-5.5 3.3-7.9 1.5-1.4-.7-1.5-3.1-.3-4 1.2-.2 2.4-.3 3.6-.2 1.9-1.9 2.4-4.5 1.2-6.9-.5-.3-1.4-1-1.9-1.3-1.8 0-4.1.5-4.5 2.5-.3 2.8-.1 5.6 0 8.4 0 1.6 1.6 2.4 2.3 3.7.4 1.3-.9 2.2-1.5 3.1-1.6 1.5-3.3 3.8-5.9 3.1-1-2.3.4-4.7.4-7-.2-3.8-.6-7.5-.5-11.3l-2.4-1.2c-.1-.5-.2-1.4-.3-1.9 1.6-1.8 3.4-3.8 6-3.9.5.5 1.2 1.3 1.5 1.7z"/><path class="st3" d="M2031.7 973.1c3.4-3.5 10.2-2.8 12.4 1.8.8 1.8 1.4 4.9-.9 5.8-2.8 1.4-5.9 1-8.9 1 .1.4.2 1.3.3 1.7 3.3 2.4 6.4-1 9.8-.9.1 1 .3 2.1.2 3.2-1.2 2.2-3.9 2.7-6.1 3.5-4.1.1-8.3-2.6-9-6.9-1-3.1-.1-6.8 2.2-9.2z"/><path class="st21" d="M1992.3 976.2c2.1-3.2 6.5-3.4 9.8-2.4 4.1 1.5 4.9 6.5 4.8 10.3-.7 2.3-1.7 4.8-4 5.9-2.2 1.3-4.9.8-7.3.9-5.3-2.6-7-10-3.3-14.7z"/><path class="st22" d="M1977.8 975.9c1.5-1.4 3.6-1.7 5.5-2.2 1.8.6 3.8 1 5.1 2.4 1 1.4.7 3.5-.8 4.3-2.3-.9-4.5-2.1-7.1-1.8-1.4 2.5-2.1 6.3.6 8.3 2.8 1.4 5.5-1.5 8.4-1 .1 1.5.8 3.5-.9 4.4-2.2 2.1-5.5 2.2-8.4 1.7-6.1-2.4-7.4-12-2.4-16.1z"/><path class="st23" d="M2034.9 975.4c2.1-.5 5.2-1 5.4 2.1-2.2.6-4.6 1-6.9 1.1.4-1.1.9-2.2 1.5-3.2z"/><path class="st24" d="M1996.5 977.8c1.4-.7 3-.2 4.5 0 1.1 2.1 2 4.5 1 6.9-.9 2.9-5.6 3-6.6.1-.4-2.4-.9-5.3 1.1-7z"/><path class="st2" d="M2145.1 1002c5.9-1.4 10.2-6 14.7-9.5 8.3.9 16.1 4.8 21.9 10.7 5.1 5.6 8.5 13 8.2 20.7.5 10.2-4.9 20-12.8 26.3-13.3 10.9-34.3 11.1-47.4-.2-7.8-6.5-12.2-16.9-10.9-27 .6-6.1 3.2-11.9 7-16.8 6.5-1.1 12.9-2.8 19.3-4.2z"/><path d="M1763.5 1009.1c2.4 2.4 4.8 4.9 7.3 7.3 1.8 1.5 2.1 4 2.9 6.1 11.9 33.6 32.4 64.1 59.1 87.8 23.8 21.2 52.3 37 83 45.6 35 9.9 72.5 10.6 107.7 1.8 50-12.1 94.9-43.4 123.8-85.9 2.5-.3 4.9-.6 7.4-.7-29.5 45.2-76.3 78.9-128.8 91.8-12.6 3.3-25.6 5.3-38.5 6.1-17.8 1.2-35.7.1-53.3-3.1-34.5-6.2-67.4-21.2-95-42.9-36.5-28.5-63.6-69-75.6-113.9z"/><path class="st2" d="M2094.7 1012.1c1.1-.1 2.2-.5 3.2-.3 6.5 5.3 11.1 12.9 12.1 21.2 2.6 16.3-9.1 32.7-24.6 37.3-10.5 3.4-22.5 2-31.6-4.2-7.2-4.7-12.5-12.2-14.2-20.6-2-8.4 0-17.6 4.7-24.8.6-1.2 2.1-1.1 3.2-1.3 15.8-2 31.5-4.6 47.2-7.3zm-218.2 26.9c3.4-10.6 11.8-19.9 22.5-23.3 1.5 4.6 5.1 8.3 9.7 9.7 10.1 3.4 21 2.1 31.5 2.4 5.2 7.6 7.9 17.2 5.9 26.4-2.7 16.2-18.1 29-34.5 29-11.9.6-23.9-5.4-30.6-15.3-5.7-8.4-7.3-19.2-4.5-28.9zm90.2-12c17.5-.8 35-2.1 52.4-4.2 6.2 6.3 10.1 14.9 9.8 23.7-.1 10.5-5.8 20.4-14.3 26.4-8 5.7-18.4 8-28 5.8-12.5-2.5-23.1-12.4-26-24.8-.8-5.6-.9-11.3.8-16.7 1.3-3.6 3.3-7 5.3-10.2z"/><path class="st25" d="M1858.1 1034c1.3-.6 2.6-1.3 3.9-1.9-3 7.2-3.8 15-3.4 22.7-5.1-5.9-9.9-12.1-14.3-18.6 4.8.2 9.4-.5 13.8-2.2z"/><path class="st2" d="M1984.1 1092.1c19.1 2.5 39-8.1 47.6-25.3 5.5 7.4 13.3 12.9 22.1 15.6 0 .2-.1.5-.1.7-29.4 18.1-65 26.1-99.4 21.7-13-1.6-25.8-4.8-38-9.9 14.1-2.8 26.4-12.4 33-25.2 7.2 12.4 20.5 21 34.8 22.4z"/><path class="st26" d="M1895.6 1107.8c.5-.2 1.4-.5 1.9-.7 2.2.5 5.5 1.5 5.5 4.3-.5 1.8-1.5 3.4-2.4 5-2.5-1.2-4.9-2.4-7.3-3.7.7-1.7 1.5-3.3 2.3-4.9z"/><path class="st27" d="M2027.6 1117.2c2.2-.9 4.5-1.5 6.8-1 .9 1.7 1.6 3.6.8 5.5-1.4 1.4-3.4 1.9-5.2 2.4-.8-2.4-1.7-4.6-2.4-6.9z"/><path class="st0" d="M1804.1 780.6h102.5v66.7h-102.5z"/></svg>