<svg width="553" height="228" viewBox="0 0 553 228" xmlns="http://www.w3.org/2000/svg"><title>rs_school_ios</title><g transform="translate(0 2)" fill="none" fill-rule="evenodd"><path d="M285.36 88.14l26.29-1.65c.573 4.267 1.733 7.52 3.48 9.76 2.853 3.62 6.92 5.43 12.2 5.43 3.94 0 6.98-.923 9.12-2.77a8.34 8.34 0 0 0 3.2-6.44 8.18 8.18 0 0 0-3-6.22c-2-1.833-6.717-3.563-14.15-5.19-12.153-2.707-20.813-6.327-25.98-10.86a21.85 21.85 0 0 1-7.81-17.26 23.44 23.44 0 0 1 4-13 26.47 26.47 0 0 1 12-9.64c5.333-2.34 12.667-3.51 22-3.51 11.427 0 20.14 2.123 26.14 6.37s9.57 11.01 10.71 20.29L337.52 55c-.667-4-2.12-6.927-4.36-8.78-2.24-1.853-5.293-2.787-9.16-2.8-3.21 0-5.63.69-7.25 2a6.25 6.25 0 0 0-2.44 5 5 5 0 0 0 2 3.84c1.3 1.18 4.39 2.28 9.27 3.3 12.08 2.6 20.747 5.233 26 7.9 5.253 2.667 9.053 5.97 11.4 9.91a25.12 25.12 0 0 1 3.57 13.24 28.37 28.37 0 0 1-4.75 15.86 29.83 29.83 0 0 1-13.3 11c-5.7 2.5-12.88 3.75-21.54 3.75-15.207 0-25.74-2.927-31.6-8.78-5.86-5.853-9.193-13.287-10-22.3zM6.27 117.72V28.29h46.06c8.54 0 15.067.733 19.58 2.2a20.88 20.88 0 0 1 10.92 8.14A24.75 24.75 0 0 1 87 53.12a23.92 23.92 0 0 1-11.9 21.6 33.63 33.63 0 0 1-9.7 3.54 27.46 27.46 0 0 1 7.19 3.29A27.79 27.79 0 0 1 77 86.26a35.16 35.16 0 0 1 3.87 5.55l13.38 25.91H63L48.24 90.4c-1.873-3.54-3.54-5.84-5-6.9a11.63 11.63 0 0 0-6.78-2.07H34v36.29H6.27zM34 64.53h11.68A42 42 0 0 0 53 63.31a7.3 7.3 0 0 0 4.48-2.81 9 9 0 0 0-1-11.83c-1.827-1.553-5.263-2.327-10.31-2.32H34v18.18zM0 194.33l26.29-1.64c.573 4.273 1.733 7.527 3.48 9.76 2.82 3.62 6.897 5.43 12.23 5.43 3.94 0 6.98-.927 9.12-2.78a8.34 8.34 0 0 0 3.2-6.44 8.2 8.2 0 0 0-3-6.22c-2-1.827-6.717-3.553-14.15-5.18-12.12-2.727-20.763-6.347-25.93-10.86a21.87 21.87 0 0 1-7.81-17.27 23.49 23.49 0 0 1 4-13 26.47 26.47 0 0 1 12-9.64c5.333-2.34 12.667-3.51 22-3.51 11.427 0 20.14 2.127 26.14 6.38s9.57 11.013 10.71 20.28l-26 1.53c-.667-4-2.12-6.93-4.36-8.79-2.24-1.86-5.303-2.773-9.19-2.74-3.207 0-5.623.667-7.25 2a6.25 6.25 0 0 0-2.44 5 5 5 0 0 0 2 3.85c1.3 1.18 4.39 2.277 9.27 3.29 12.08 2.6 20.747 5.233 26 7.9 5.253 2.667 9.053 5.97 11.4 9.91a25.15 25.15 0 0 1 3.57 13.24 28.37 28.37 0 0 1-4.75 15.86 29.83 29.83 0 0 1-13.3 11c-5.7 2.5-12.88 3.75-21.54 3.75-15.207 0-25.74-2.927-31.6-8.78C4.23 210.807.867 203.363 0 194.33zm175-7.01l24.22 7.32a44.72 44.72 0 0 1-7.69 17 33.46 33.46 0 0 1-13 10.31c-5.187 2.307-11.787 3.463-19.8 3.47-9.72 0-17.66-1.41-23.82-4.23-6.16-2.82-11.493-7.79-16-14.91-4.48-7.113-6.717-16.217-6.71-27.31 0-14.793 3.933-26.163 11.8-34.11 7.867-7.947 18.993-11.9 33.38-11.86 11.273 0 20.13 2.28 26.57 6.84 6.44 4.56 11.227 11.56 14.36 21l-24.4 5.43a21 21 0 0 0-2.68-6 16 16 0 0 0-5.67-4.88 16.31 16.31 0 0 0-7.51-1.71c-6.26 0-11.057 2.52-14.39 7.56-2.527 3.74-3.79 9.61-3.79 17.61 0 9.913 1.507 16.707 4.52 20.38 3.013 3.673 7.243 5.51 12.69 5.51 5.28 0 9.28-1.483 12-4.45 2.72-2.967 4.693-7.29 5.92-12.97z" fill="#000" fill-rule="nonzero"/><path fill="#000" fill-rule="nonzero" d="M189.51 134.49h27.63v31.29h30.2v-31.29h27.75v89.43h-27.75v-36.18h-30.2v36.18h-27.63zm112.78 44.77c0-14.6 4.067-25.967 12.2-34.1 8.133-8.133 19.467-12.2 34-12.2 14.88 0 26.347 4 34.4 12 8.053 8 12.09 19.19 12.11 33.57 0 10.46-1.76 19.03-5.28 25.71a37.51 37.51 0 0 1-15.25 15.62c-6.667 3.72-14.953 5.58-24.86 5.58-10.08 0-18.413-1.607-25-4.82a37.59 37.59 0 0 1-16.07-15.25c-4.173-6.947-6.257-15.65-6.25-26.11zm27.63.13c0 9.033 1.667 15.52 5 19.46 3.333 3.94 7.9 5.91 13.7 5.91 5.94 0 10.537-1.93 13.79-5.79 3.253-3.86 4.88-10.793 4.88-20.8 0-8.42-1.7-14.573-5.1-18.46-3.4-3.887-8.007-5.827-13.82-5.82A16.8 16.8 0 0 0 335 159.8c-3.38 3.953-5.073 10.483-5.08 19.59z"/><path d="M392.28 179.26c0-14.6 4.067-25.967 12.2-34.1 8.133-8.133 19.467-12.2 34-12.2 14.893 0 26.363 4 34.41 12 8.047 8 12.07 19.193 12.07 33.58 0 10.46-1.757 19.03-5.27 25.71a37.57 37.57 0 0 1-15.25 15.62c-6.667 3.72-14.953 5.58-24.86 5.58-10.087 0-18.42-1.607-25-4.82a37.67 37.67 0 0 1-16.08-15.25c-4.147-6.953-6.22-15.66-6.22-26.12zm27.64.13c0 9.033 1.667 15.52 5 19.46 3.333 3.94 7.897 5.91 13.69 5.91 5.94 0 10.537-1.93 13.79-5.79 3.253-3.86 4.88-10.793 4.88-20.8 0-8.42-1.697-14.573-5.09-18.46-3.393-3.887-8-5.827-13.82-5.82A16.79 16.79 0 0 0 425 159.8c-3.393 3.953-5.087 10.483-5.08 19.59z" fill="#000" fill-rule="nonzero"/><path fill="#000" fill-rule="nonzero" d="M482.08 134.49h27.64v67.41h43.13v22h-70.77z"/><ellipse fill="#FFF" fill-rule="nonzero" transform="rotate(-75.35 447.461 78.558)" cx="447.461" cy="78.558" rx="57.41" ry="88.58"/><ellipse stroke="#000" stroke-width="4" transform="rotate(-75.35 447.461 78.558)" cx="447.461" cy="78.558" rx="57.41" ry="88.58"/><text transform="rotate(22 455.06 102.723)" font-family="Arial-Black, Arial Black" font-size="72" font-weight="700" fill="#000"><tspan x="381.059" y="106.223">ML</tspan></text></g></svg>