<svg id="Layer_1" xmlns="http://www.w3.org/2000/svg" xmlns:xlink="http://www.w3.org/1999/xlink" viewBox="0 0 590.1 213.1"><style>.st0{fill:#fff}.st1{clip-path:url(#SVGID_2_)}.st2{clip-path:url(#SVGID_4_)}.st3{clip-path:url(#SVGID_6_)}.st4{clip-path:url(#SVGID_8_)}.st5{fill:#fff;stroke:#000;stroke-width:4;stroke-miterlimit:10}.st6{clip-path:url(#SVGID_8_)}.st6,.st7{fill:none;stroke:#000;stroke-width:4;stroke-miterlimit:10}.st8,.st9{clip-path:url(#SVGID_10_)}.st9{fill:none;stroke:#000;stroke-width:4;stroke-miterlimit:10}</style><title>rs_school_ios</title><path d="M285.4 75.8l26.3-1.6c.6 4.3 1.7 7.5 3.5 9.8 2.9 3.6 6.9 5.4 12.2 5.4 3.9 0 7-.9 9.1-2.8 2-1.6 3.2-3.9 3.2-6.4 0-2.4-1.1-4.7-3-6.2-2-1.8-6.7-3.6-14.1-5.2-12.2-2.7-20.8-6.3-26-10.9-5.1-4.3-8-10.6-7.8-17.3 0-4.6 1.4-9.2 4-13 3-4.3 7.1-7.7 12-9.6 5.3-2.3 12.7-3.5 22-3.5 11.4 0 20.1 2.1 26.1 6.4 6 4.2 9.6 11 10.7 20.3l-26 1.6c-.7-4-2.1-6.9-4.4-8.8s-5.3-2.8-9.2-2.8c-3.2 0-5.6.7-7.2 2-1.6 1.2-2.5 3-2.4 5 0 1.5.8 2.9 2 3.8 1.3 1.2 4.4 2.3 9.3 3.3 12.1 2.6 20.7 5.2 26 7.9 5.3 2.7 9.1 6 11.4 9.9 2.4 4 3.6 8.6 3.6 13.2 0 5.6-1.6 11.2-4.8 15.9-3.3 4.9-7.9 8.7-13.3 11-5.7 2.5-12.9 3.8-21.5 3.8-15.2 0-25.7-2.9-31.6-8.8s-9.3-13.4-10.1-22.4zM6.3 105.4V16h46.1c8.5 0 15.1.7 19.6 2.2 4.4 1.4 8.3 4.3 10.9 8.1 2.9 4.3 4.3 9.3 4.2 14.5.3 8.8-4.2 17.2-11.9 21.6-3 1.7-6.3 2.9-9.7 3.5 2.5.7 5 1.9 7.2 3.3 1.6 1.4 3.1 3 4.4 4.7 1.5 1.7 2.8 3.6 3.9 5.6l13.4 25.9H63L48.2 78.1c-1.9-3.5-3.5-5.8-5-6.9-2-1.4-4.4-2.1-6.8-2.1H34v36.3H6.3zM34 52.2h11.7c2.5-.2 4.9-.6 7.3-1.2 1.8-.3 3.4-1.3 4.5-2.8 2.7-3.6 2.3-8.7-1-11.8-1.8-1.6-5.3-2.3-10.3-2.3H34v18.1zM0 182l26.3-1.6c.6 4.3 1.7 7.5 3.5 9.8 2.8 3.6 6.9 5.4 12.2 5.4 3.9 0 7-.9 9.1-2.8 2-1.6 3.2-3.9 3.2-6.4 0-2.4-1.1-4.7-3-6.2-2-1.8-6.7-3.6-14.2-5.2-12.1-2.7-20.8-6.3-25.9-10.9-5.1-4.3-8-10.6-7.8-17.3 0-4.6 1.4-9.2 4-13 3-4.3 7.1-7.7 12-9.6 5.3-2.3 12.7-3.5 22-3.5 11.4 0 20.1 2.1 26.1 6.4 6 4.3 9.6 11 10.7 20.3l-26 1.5c-.7-4-2.1-6.9-4.4-8.8-2.2-1.9-5.3-2.8-9.2-2.7-3.2 0-5.6.7-7.2 2-1.6 1.2-2.5 3-2.4 5 0 1.5.8 2.9 2 3.9 1.3 1.2 4.4 2.3 9.3 3.3 12.1 2.6 20.7 5.2 26 7.9 5.3 2.7 9.1 6 11.4 9.9 2.4 4 3.6 8.6 3.6 13.2 0 5.6-1.6 11.2-4.8 15.9-3.3 4.9-7.9 8.7-13.3 11-5.7 2.5-12.9 3.8-21.5 3.8-15.2 0-25.7-2.9-31.6-8.8S.9 191 0 182zm175-7l24.2 7.3c-1.3 6.1-4 11.9-7.7 17-3.4 4.5-7.9 8-13 10.3-5.2 2.3-11.8 3.5-19.8 3.5-9.7 0-17.7-1.4-23.8-4.2s-11.5-7.8-16-14.9c-4.5-7.1-6.7-16.2-6.7-27.3 0-14.8 3.9-26.2 11.8-34.1 7.9-7.9 19-11.9 33.4-11.9 11.3 0 20.1 2.3 26.6 6.8 6.4 4.6 11.2 11.6 14.4 21l-24.4 5.4c-.6-2.1-1.5-4.2-2.7-6-1.5-2.1-3.4-3.7-5.7-4.9-2.3-1.2-4.9-1.7-7.5-1.7-6.3 0-11.1 2.5-14.4 7.6-2.5 3.7-3.8 9.6-3.8 17.6 0 9.9 1.5 16.7 4.5 20.4s7.2 5.5 12.7 5.5c5.3 0 9.3-1.5 12-4.4s4.7-7.3 5.9-13z"/><path d="M189.5 122.2h27.6v31.3h30.2v-31.3h27.8v89.4h-27.8v-36.2h-30.2v36.2h-27.6v-89.4zm112.8 44.7c0-14.6 4.1-26 12.2-34.1 8.1-8.1 19.5-12.2 34-12.2 14.9 0 26.3 4 34.4 12s12.1 19.2 12.1 33.6c0 10.5-1.8 19-5.3 25.7-3.4 6.6-8.7 12-15.2 15.6-6.7 3.7-15 5.6-24.9 5.6-10.1 0-18.4-1.6-25-4.8-6.8-3.4-12.4-8.7-16.1-15.2-4.1-7-6.2-15.7-6.2-26.2zm27.6.2c0 9 1.7 15.5 5 19.5 3.3 3.9 7.9 5.9 13.7 5.9 5.9 0 10.5-1.9 13.8-5.8 3.3-3.9 4.9-10.8 4.9-20.8 0-8.4-1.7-14.6-5.1-18.5-3.4-3.9-8-5.8-13.8-5.8-5.1-.2-10 2-13.4 5.9-3.4 3.9-5.1 10.4-5.1 19.6z"/><path d="M392.3 166.9c0-14.6 4.1-26 12.2-34.1 8.1-8.1 19.5-12.2 34-12.2 14.9 0 26.4 4 34.4 12s12.1 19.2 12.1 33.6c0 10.5-1.8 19-5.3 25.7-3.4 6.6-8.7 12-15.2 15.6-6.7 3.7-15 5.6-24.9 5.6-10.1 0-18.4-1.6-25-4.8-6.8-3.4-12.4-8.7-16.1-15.2-4.1-7-6.2-15.7-6.2-26.2zm27.6.2c0 9 1.7 15.5 5 19.5 3.3 3.9 7.9 5.9 13.7 5.9 5.9 0 10.5-1.9 13.8-5.8 3.3-3.9 4.9-10.8 4.9-20.8 0-8.4-1.7-14.6-5.1-18.5s-8-5.8-13.8-5.8c-5.1-.2-10 2-13.4 5.9-3.4 3.9-5.1 10.4-5.1 19.6z"/><path d="M482.1 122.2h27.6v67.4h43.1v22H482v-89.4z"/><ellipse transform="rotate(-75.351 447.455 66.225)" class="st0" cx="447.5" cy="66.2" rx="57.4" ry="88.6"/><defs><ellipse id="SVGID_1_" transform="rotate(-75.351 447.455 66.225)" cx="447.5" cy="66.2" rx="57.4" ry="88.6"/></defs><clipPath id="SVGID_2_"><use xlink:href="#SVGID_1_" overflow="visible"/></clipPath><g class="st1"><path transform="rotate(-75.351 446.867 66.072)" class="st0" d="M346.8-53.2h200.1v238.6H346.8z"/><g id="Layer_2_1_"><defs><path id="SVGID_3_" transform="rotate(-75.351 446.867 66.072)" d="M346.8-53.2h200.1v238.6H346.8z"/></defs><clipPath id="SVGID_4_"><use xlink:href="#SVGID_3_" overflow="visible"/></clipPath><g id="Layer_1-2" class="st2"><ellipse transform="rotate(-75.351 447.455 66.225)" class="st0" cx="447.5" cy="66.2" rx="57.4" ry="88.6"/><defs><ellipse id="SVGID_5_" transform="rotate(-75.351 447.455 66.225)" cx="447.5" cy="66.2" rx="57.4" ry="88.6"/></defs><clipPath id="SVGID_6_"><use xlink:href="#SVGID_5_" overflow="visible"/></clipPath><g class="st3"><path transform="rotate(-75.351 447.458 66.231)" class="st0" d="M390.1-22.4h114.8v177.2H390.1z"/><defs><path id="SVGID_7_" transform="rotate(-75.351 447.458 66.231)" d="M390.1-22.4h114.8v177.2H390.1z"/></defs><clipPath id="SVGID_8_"><use xlink:href="#SVGID_7_" overflow="visible"/></clipPath><g class="st4"><ellipse transform="rotate(-75.351 447.455 66.225)" class="st5" cx="447.5" cy="66.2" rx="57.4" ry="88.6"/></g><path transform="rotate(-75.351 447.458 66.231)" class="st6" d="M390.1-22.4h114.8v177.2H390.1z"/><ellipse transform="rotate(-75.351 447.455 66.225)" class="st7" cx="447.5" cy="66.2" rx="57.4" ry="88.6"/><path transform="rotate(-75.351 447.458 66.231)" class="st0" d="M390.1-22.4h114.8v177.2H390.1z"/><defs><path id="SVGID_9_" transform="rotate(-75.351 447.458 66.231)" d="M390.1-22.4h114.8v177.2H390.1z"/></defs><clipPath id="SVGID_10_"><use xlink:href="#SVGID_9_" overflow="visible"/></clipPath><g class="st8"><ellipse transform="rotate(-75.351 447.455 66.225)" class="st5" cx="447.5" cy="66.2" rx="57.4" ry="88.6"/></g><path transform="rotate(-75.351 447.458 66.231)" class="st9" d="M390.1-22.4h114.8v177.2H390.1z"/><path transform="rotate(-75.351 446.867 66.072)" class="st7" d="M346.8-53.2h200.1v238.6H346.8z"/></g><ellipse transform="rotate(-75.351 447.455 66.225)" class="st7" cx="447.5" cy="66.2" rx="57.4" ry="88.6"/><path d="M400.6 43.4l10.6 2.7-6.9 27.6-10.6-2.7 6.9-27.6zm2.6-10.6l10.6 2.7-1.8 7.2-10.6-2.7 1.8-7.2zM415 56.1c1.5-6.2 4.5-10.7 8.9-13.3 4.4-2.6 9.6-3.1 15.8-1.6 6.4 1.6 10.8 4.5 13.4 8.8 2.6 4.3 3.1 9.5 1.6 15.6-.8 3.8-2.5 7.4-5 10.4-2.2 2.4-5 4.2-8.2 5-3.7.9-7.6.8-11.2-.3-3.7-.8-7.2-2.4-10.2-4.7-2.5-2.2-4.4-5-5.2-8.2-1-3.8-1-7.9.1-11.7zm11.8 3c-1 3.9-.9 6.8.1 8.9 2.3 4 7.4 5.5 11.4 3.2.1-.1.2-.1.3-.2 1.8-1.3 3.2-4.1 4.3-8.4.9-3.6.8-6.4-.2-8.4-1.1-2.1-3-3.5-5.3-4-2.2-.6-4.5-.2-6.4 1.1-1.8 1.3-3.2 3.9-4.2 7.8zm30.5 14.4l11.4 2.1c-.3 1.5-.1 3.1.4 4.5.9 1.9 2.6 3.2 4.6 3.6 1.4.4 2.9.4 4.2-.2 1.8-.8 2.6-2.8 1.9-4.6-.1-.3-.3-.6-.5-.8-.7-1-2.5-2.2-5.5-3.7-4.9-2.5-8.2-4.9-9.9-7.4-1.7-2.4-2.3-5.4-1.5-8.2.5-2 1.6-3.8 3.1-5.1 1.7-1.5 3.9-2.5 6.2-2.8 3.3-.4 6.6-.1 9.8.8 4.9 1.2 8.4 3.1 10.5 5.5 2.1 2.5 2.9 5.7 2.4 9.8l-11.3-2.1c.2-1.5-.1-3-.9-4.2-.9-1.1-2.2-1.9-3.6-2.2-1.1-.4-2.3-.3-3.3.1-.8.3-1.4 1-1.6 1.9-.1.7 0 1.3.5 1.8 1 1.1 2.2 1.9 3.6 2.4 4.9 2.4 8.3 4.4 10.2 6.1 1.8 1.4 3.1 3.3 3.8 5.4.6 2 .6 4 .1 6-.6 2.4-1.9 4.6-3.7 6.3-1.9 1.7-4.3 2.9-6.9 3.3-3.2.4-6.5.2-9.6-.7-6.5-1.6-10.7-4-12.6-7.1-1.8-3.1-2.5-6.9-1.8-10.5z"/></g></g></g></svg>